{"glyphs":{"0":{"ha":819,"x_min":69,"x_max":750,"o":"m 410 -28 q 69 458 69 -28 q 410 944 69 944 q 750 458 750 944 q 410 -28 750 -28 m 410 29 q 522 75 481 29 q 580 215 563 121 q 597 458 597 308 q 580 702 597 608 q 522 842 563 796 q 410 888 481 888 q 298 842 339 888 q 240 703 257 796 q 222 458 222 610 q 240 214 222 307 q 298 75 257 121 q 410 29 339 29 z "},"1":{"ha":431,"x_min":17,"x_max":315,"o":"m 175 771 l 44 686 l 17 721 l 232 917 l 315 917 l 315 0 l 175 0 l 175 771 z "},"2":{"ha":739,"x_min":57,"x_max":671,"o":"m 57 75 q 156 169 60 78 q 351 363 283 290 q 460 515 418 436 q 503 679 503 594 q 453 833 503 779 q 329 888 403 888 q 182 826 243 888 q 100 649 121 765 l 67 649 q 72 762 67 719 q 100 833 78 804 q 212 913 139 881 q 367 944 285 944 q 569 887 482 944 q 656 679 656 829 q 609 510 656 590 q 495 361 563 429 q 310 192 428 293 q 160 57 186 81 l 467 57 q 596 94 551 57 q 640 206 640 132 l 671 206 l 671 111 q 553 0 671 0 l 57 0 l 57 75 z "},"3":{"ha":740,"x_min":51,"x_max":689,"o":"m 374 -28 q 190 10 267 -28 q 51 121 114 49 l 78 150 q 332 29 186 29 q 478 87 421 29 q 536 257 536 144 q 510 375 536 326 q 444 448 485 424 q 357 472 403 472 q 276 468 304 472 q 194 450 249 464 l 160 507 l 538 860 l 282 860 q 153 822 197 860 q 108 711 108 785 l 76 711 l 76 806 q 194 917 76 917 l 644 917 l 644 860 l 279 518 q 394 529 321 529 q 521 505 453 529 q 639 419 589 481 q 689 257 689 358 q 636 83 689 147 q 512 -4 583 19 q 374 -28 440 -28 z "},"4":{"ha":768,"x_min":22,"x_max":731,"o":"m 467 236 l 22 236 l 22 292 l 486 917 l 606 917 l 606 293 l 731 293 l 731 236 l 606 236 l 606 0 l 467 0 l 467 236 m 467 293 l 467 776 l 108 293 l 467 293 z "},"5":{"ha":742,"x_min":57,"x_max":693,"o":"m 360 -28 q 188 9 258 -28 q 57 119 118 46 l 86 146 q 336 29 189 29 q 483 87 425 29 q 540 258 540 144 q 483 419 540 365 q 318 474 425 474 q 144 456 264 474 l 89 510 l 104 917 l 629 917 l 629 860 l 231 860 l 218 525 l 261 528 q 354 532 336 532 q 590 470 488 532 q 693 258 693 408 q 639 86 693 150 q 509 -3 585 22 q 360 -28 433 -28 z "},"6":{"ha":754,"x_min":69,"x_max":701,"o":"m 396 -28 q 149 94 229 -28 q 69 458 69 215 q 158 824 69 703 q 428 944 246 944 q 644 901 535 944 l 638 871 q 456 888 535 888 q 276 795 338 888 q 215 535 215 703 q 421 599 306 599 q 633 516 565 599 q 701 285 701 433 q 667 130 701 201 q 563 15 632 58 q 396 -28 494 -28 m 396 29 q 513 104 469 29 q 556 285 556 179 q 379 540 556 540 q 215 471 290 540 q 263 136 215 243 q 396 29 311 29 z "},"7":{"ha":658,"x_min":35,"x_max":643,"o":"m 507 860 l 239 860 q 110 822 154 860 q 65 711 65 785 l 35 711 l 35 806 q 153 917 35 917 l 643 917 l 643 860 l 296 0 l 160 0 l 507 860 z "},"8":{"ha":778,"x_min":63,"x_max":715,"o":"m 389 -28 q 154 31 246 -28 q 63 210 63 90 q 123 362 63 303 q 288 465 183 421 q 146 572 194 519 q 97 707 97 625 q 178 890 97 835 q 389 944 258 944 q 600 892 519 944 q 681 721 681 839 q 632 588 681 644 q 504 494 583 532 q 615 422 571 456 q 687 338 658 388 q 715 224 715 289 q 624 33 715 94 q 389 -28 533 -28 m 439 529 q 510 607 486 564 q 535 721 535 650 q 492 849 535 811 q 389 888 449 888 q 287 851 331 888 q 243 735 243 815 q 298 621 243 672 q 439 529 353 569 m 389 29 q 517 73 465 29 q 569 196 569 117 q 515 327 569 275 q 353 436 460 379 q 246 351 283 401 q 208 210 208 300 q 260 74 208 119 q 389 29 311 29 z "},"9":{"ha":753,"x_min":51,"x_max":683,"o":"m 326 -28 q 108 15 214 -28 l 115 46 q 299 29 219 29 q 476 122 415 29 q 538 382 538 214 q 333 318 450 318 q 119 401 188 318 q 51 632 51 483 q 86 787 51 715 q 190 901 121 858 q 357 944 260 944 q 603 823 524 944 q 683 458 683 701 q 595 92 683 213 q 326 -28 507 -28 m 375 376 q 538 446 463 376 q 490 781 538 674 q 357 888 442 888 q 240 813 283 888 q 197 632 197 738 q 375 376 197 376 z "}," ":{"ha":347,"x_min":0,"x_max":0,"o":""},"!":{"ha":329,"x_min":86,"x_max":242,"o":"m 92 917 l 238 917 l 211 215 l 118 215 l 92 917 m 164 -19 q 109 3 132 -19 q 86 60 86 26 q 109 114 86 92 q 164 136 132 136 q 219 114 197 136 q 242 60 242 92 q 219 3 242 25 q 164 -19 197 -19 z "},"\"":{"ha":517,"x_min":71,"x_max":446,"o":"m 71 917 l 221 917 l 179 542 l 113 542 l 71 917 m 297 917 l 446 917 l 404 542 l 339 542 l 297 917 z "},"#":{"ha":939,"x_min":42,"x_max":896,"o":"m 221 242 l 42 242 l 42 328 l 239 328 l 290 575 l 125 575 l 125 661 l 308 661 l 367 938 l 469 938 l 411 661 l 606 661 l 664 938 l 767 938 l 708 661 l 896 661 l 896 575 l 690 575 l 639 328 l 813 328 l 813 242 l 621 242 l 571 0 l 469 0 l 518 242 l 324 242 l 274 0 l 171 0 l 221 242 m 538 328 l 588 575 l 393 575 l 342 328 l 538 328 z "},"$":{"ha":739,"x_min":65,"x_max":686,"o":"m 328 -21 q 142 34 219 -10 q 65 144 65 78 l 65 297 l 94 297 q 172 109 115 172 q 328 35 229 46 l 328 406 l 231 464 q 103 572 140 517 q 65 706 65 628 q 137 872 65 808 q 328 942 208 936 l 328 1021 l 394 1021 l 394 939 q 573 885 496 931 q 650 775 650 840 l 650 622 l 621 622 q 545 809 600 747 q 394 882 490 871 l 394 535 l 511 465 q 646 359 606 410 q 686 233 686 308 q 609 48 686 117 q 394 -24 532 -21 l 394 -111 l 328 -111 l 328 -21 m 328 882 q 228 840 268 876 q 189 746 189 803 q 221 656 189 692 q 328 575 253 619 l 328 882 m 394 35 q 507 76 463 40 q 551 174 551 113 q 516 273 551 232 q 394 367 481 314 l 394 35 z "},"%":{"ha":965,"x_min":43,"x_max":922,"o":"m 250 546 q 98 596 153 546 q 43 735 43 646 q 98 874 43 824 q 250 924 153 924 q 402 874 347 924 q 457 735 457 824 q 402 596 457 646 q 250 546 347 546 m 746 917 l 861 917 l 219 0 l 104 0 l 746 917 m 250 597 q 367 735 367 597 q 250 874 367 874 q 135 735 135 874 q 250 597 135 597 m 715 -7 q 564 43 618 -7 q 510 182 510 93 q 564 321 510 271 q 715 371 618 371 q 867 321 813 371 q 922 182 922 271 q 867 43 922 93 q 715 -7 813 -7 m 715 43 q 832 182 832 43 q 715 319 832 319 q 600 182 600 319 q 715 43 600 43 z "},"&":{"ha":863,"x_min":54,"x_max":835,"o":"m 360 -28 q 131 33 208 -28 q 54 193 54 94 q 81 293 54 249 q 149 372 108 338 q 258 453 190 406 q 156 576 200 506 q 113 728 113 646 q 181 887 113 829 q 369 944 250 944 q 544 890 482 944 q 607 750 607 836 q 554 603 607 665 q 400 472 501 542 l 674 174 q 764 290 722 228 q 797 346 785 324 l 831 322 q 800 263 818 292 q 708 138 758 192 l 835 0 l 672 0 l 617 58 q 505 -2 571 24 q 360 -28 439 -28 m 356 524 q 445 623 414 574 q 476 736 476 672 q 444 856 476 817 q 369 894 411 894 q 289 855 321 894 q 257 728 257 815 q 292 603 257 660 q 356 524 328 547 m 382 22 q 585 94 496 22 l 304 400 q 227 310 254 356 q 200 207 200 264 q 246 69 200 117 q 382 22 292 22 z "},"'":{"ha":292,"x_min":71,"x_max":221,"o":"m 71 917 l 221 917 l 179 542 l 113 542 l 71 917 z "},"(":{"ha":433,"x_min":43,"x_max":414,"o":"m 399 -296 q 131 -15 219 -164 q 43 333 43 133 q 131 682 43 533 q 399 963 219 831 l 414 939 q 183 333 183 736 q 414 -272 183 -69 l 399 -296 z "},")":{"ha":433,"x_min":19,"x_max":390,"o":"m 19 -272 q 250 333 250 -69 q 19 939 250 736 l 35 963 q 302 682 214 831 q 390 333 390 533 q 302 -15 390 133 q 35 -296 214 -164 l 19 -272 z "},"*":{"ha":593,"x_min":63,"x_max":531,"o":"m 275 654 l 121 514 l 63 617 l 263 686 l 63 756 l 121 858 l 275 719 l 235 917 l 357 917 l 318 719 l 472 858 l 531 756 l 329 686 l 531 617 l 472 514 l 318 654 l 357 456 l 235 456 l 275 654 z "},"+":{"ha":742,"x_min":47,"x_max":694,"o":"m 324 415 l 47 415 l 47 501 l 324 501 l 324 778 l 418 778 l 418 501 l 694 501 l 694 415 l 418 415 l 418 139 l 324 139 l 324 415 z "},",":{"ha":326,"x_min":76,"x_max":250,"o":"m 79 -193 q 161 -112 132 -157 q 190 -10 190 -68 q 154 -21 172 -21 q 99 2 121 -21 q 76 58 76 25 q 99 118 76 94 q 160 142 122 142 q 226 115 203 142 q 250 42 250 88 q 212 -108 250 -44 q 96 -217 174 -171 l 79 -193 z "},"-":{"ha":540,"x_min":89,"x_max":451,"o":"m 89 421 l 451 421 l 451 315 l 89 315 l 89 421 z "},".":{"ha":307,"x_min":76,"x_max":231,"o":"m 154 -19 q 99 3 121 -19 q 76 60 76 25 q 99 114 76 92 q 154 136 121 136 q 209 114 188 136 q 231 60 231 92 q 208 3 231 25 q 154 -19 186 -19 z "},"/":{"ha":624,"x_min":31,"x_max":593,"o":"m 476 917 l 593 917 l 147 0 l 31 0 l 476 917 z "},":":{"ha":333,"x_min":89,"x_max":244,"o":"m 167 485 q 113 507 135 485 q 90 563 90 529 q 113 617 90 594 q 167 640 135 640 q 223 618 201 640 q 244 563 244 596 q 223 507 244 529 q 167 485 201 485 m 167 -19 q 111 3 133 -19 q 89 60 89 25 q 111 114 89 92 q 167 136 133 136 q 222 114 200 136 q 244 60 244 92 q 223 3 244 25 q 167 -19 201 -19 z "},";":{"ha":356,"x_min":90,"x_max":264,"o":"m 181 486 q 125 508 147 486 q 103 565 103 531 q 125 619 103 597 q 181 642 147 642 q 235 619 214 642 q 257 565 257 597 q 235 508 257 531 q 181 486 213 486 m 93 -193 q 175 -112 146 -157 q 204 -10 204 -68 q 168 -21 186 -21 q 113 2 135 -21 q 90 58 90 25 q 113 118 90 94 q 174 142 136 142 q 240 115 217 142 q 264 42 264 88 q 226 -108 264 -44 q 110 -217 188 -171 l 93 -193 z "},"<":{"ha":856,"x_min":42,"x_max":764,"o":"m 42 438 l 42 493 l 764 806 l 764 711 l 193 465 l 764 219 l 764 125 l 42 438 z "},"=":{"ha":915,"x_min":89,"x_max":826,"o":"m 89 626 l 826 626 l 826 540 l 89 540 l 89 626 m 89 376 l 826 376 l 826 290 l 89 290 l 89 376 z "},">":{"ha":856,"x_min":92,"x_max":814,"o":"m 92 219 l 663 465 l 92 711 l 92 806 l 814 493 l 814 438 l 92 125 l 92 219 z "},"?":{"ha":671,"x_min":42,"x_max":628,"o":"m 285 217 q 312 342 288 292 q 383 456 336 393 q 452 564 429 517 q 475 679 475 611 q 426 835 475 782 q 303 888 378 888 q 156 825 218 888 q 72 644 94 763 l 42 644 q 47 762 42 719 q 76 833 53 804 q 190 913 115 881 q 344 944 264 944 q 544 883 460 944 q 628 679 628 822 q 607 576 628 622 q 557 496 586 529 q 479 418 528 463 q 384 317 415 360 q 350 217 353 275 l 285 217 m 318 -18 q 263 4 285 -18 q 240 60 240 26 q 262 115 240 93 q 318 138 283 138 q 374 115 353 138 q 396 60 396 93 q 373 5 396 28 q 318 -18 350 -18 z "},"@":{"ha":1196,"x_min":53,"x_max":1149,"o":"m 601 -250 q 314 -181 438 -250 q 122 22 190 -112 q 53 347 53 156 q 122 673 53 539 q 314 876 190 807 q 601 944 438 944 q 887 877 763 944 q 1080 681 1011 810 q 1149 375 1149 553 q 1080 103 1149 199 q 872 7 1011 7 q 718 83 753 7 l 711 83 q 641 29 688 51 q 526 7 594 7 q 378 55 442 7 q 315 200 315 103 q 675 397 315 397 l 711 397 q 675 581 711 531 q 571 631 639 631 q 475 603 513 631 q 422 510 438 575 l 356 510 q 363 587 356 556 q 394 640 371 618 q 474 676 418 664 q 599 688 531 688 q 784 624 717 688 q 851 396 851 560 l 851 144 q 868 88 851 111 q 917 65 885 65 q 1000 101 963 65 q 1060 206 1038 136 q 1082 375 1082 276 q 1023 653 1082 538 q 856 828 964 768 q 601 888 747 888 q 346 826 454 888 q 178 644 238 765 q 119 347 119 524 q 178 50 119 171 q 346 -132 238 -71 q 601 -193 454 -193 q 840 -162 735 -193 q 1033 -71 946 -132 l 1064 -117 q 601 -250 871 -250 m 583 71 q 711 157 664 71 l 711 339 l 675 339 q 516 302 571 339 q 461 200 461 265 q 495 104 461 138 q 583 71 529 71 z "},"A":{"ha":886,"x_min":25,"x_max":925,"o":"m 867 -7 q 621 174 690 -7 l 586 261 l 203 261 l 90 0 l 25 0 l 419 917 l 467 917 l 774 174 q 838 67 806 99 q 925 31 871 36 l 925 0 q 867 -7 900 -7 m 558 318 l 396 711 l 225 318 l 558 318 z "},"B":{"ha":872,"x_min":22,"x_max":818,"o":"m 143 746 q 124 851 143 817 q 46 885 104 885 l 22 885 l 22 917 l 386 917 q 771 674 771 917 q 725 555 771 608 q 588 472 679 501 q 767 398 715 454 q 818 251 818 342 q 706 55 818 110 q 428 0 594 0 l 143 0 l 143 746 m 407 496 q 560 544 497 496 q 622 681 622 592 q 549 820 622 774 q 382 867 476 867 q 283 853 335 867 l 283 496 l 407 496 m 407 50 q 597 100 531 50 q 664 244 664 150 q 599 388 664 339 q 407 438 533 438 l 283 438 l 283 68 q 407 50 350 50 z "},"C":{"ha":929,"x_min":58,"x_max":883,"o":"m 496 -28 q 265 35 364 -28 q 112 205 165 97 q 58 444 58 313 q 117 697 58 582 q 276 878 175 811 q 496 944 376 944 q 694 913 610 944 q 818 833 778 882 q 847 757 842 804 q 853 624 853 710 l 822 624 q 538 888 771 888 q 301 783 390 888 q 213 444 213 679 q 247 240 213 335 q 354 88 281 146 q 538 29 428 29 q 850 225 733 29 l 883 200 q 724 25 818 78 q 496 -28 631 -28 z "},"D":{"ha":1000,"x_min":22,"x_max":943,"o":"m 143 746 q 124 851 143 817 q 46 885 104 885 l 22 885 l 22 917 l 389 917 q 802 797 661 917 q 943 464 943 678 q 884 222 943 326 q 708 58 825 117 q 425 0 592 0 l 143 0 l 143 746 m 421 50 q 603 100 522 50 q 731 242 685 150 q 776 458 776 335 q 731 672 776 579 q 603 816 685 765 q 418 867 522 867 q 286 847 358 867 l 286 67 q 421 50 360 50 z "},"E":{"ha":824,"x_min":22,"x_max":786,"o":"m 143 746 q 124 851 143 817 q 46 885 104 885 l 22 885 l 22 917 l 619 917 q 738 806 738 917 l 738 697 l 706 697 q 532 860 706 860 l 283 860 l 283 501 l 654 501 l 654 444 l 283 444 l 283 57 l 525 57 q 669 92 615 57 q 756 211 722 128 l 786 203 l 740 76 q 701 19 726 39 q 632 0 676 0 l 143 0 l 143 746 z "},"F":{"ha":736,"x_min":22,"x_max":701,"o":"m 143 746 q 124 851 143 817 q 46 885 104 885 l 22 885 l 22 917 l 583 917 q 701 806 701 917 l 701 697 l 669 697 q 496 860 669 860 l 283 860 l 283 494 l 594 494 l 594 438 l 283 438 l 283 0 l 143 0 l 143 746 z "},"G":{"ha":1006,"x_min":58,"x_max":985,"o":"m 538 -28 q 291 39 400 -28 q 120 219 182 106 q 58 472 58 333 q 113 712 58 604 q 266 882 167 819 q 496 944 365 944 q 703 913 617 944 q 829 833 789 882 q 859 758 853 804 q 865 644 865 713 l 833 644 q 735 828 807 768 q 538 888 663 888 q 353 829 426 888 q 245 676 279 771 q 211 472 211 582 q 300 132 211 236 q 538 28 389 28 q 654 40 606 28 q 746 74 703 51 l 746 317 q 793 435 746 390 q 985 481 840 481 l 985 451 q 906 419 926 451 q 885 319 885 388 l 885 61 q 725 -6 810 15 q 538 -28 640 -28 z "},"H":{"ha":972,"x_min":22,"x_max":950,"o":"m 143 746 q 124 851 143 817 q 46 885 104 885 l 22 885 l 22 917 l 158 917 q 235 903 208 917 q 272 853 261 889 q 283 746 283 817 l 283 501 l 689 501 l 689 917 l 828 917 l 828 171 q 847 66 828 100 q 925 32 867 32 l 950 32 l 950 0 l 814 0 q 738 14 764 0 q 700 64 711 28 q 689 171 689 100 l 689 444 l 283 444 l 283 0 l 143 0 l 143 746 z "},"I":{"ha":403,"x_min":119,"x_max":381,"o":"m 244 0 q 168 14 194 0 q 131 64 142 28 q 119 171 119 100 l 119 917 l 260 917 l 260 171 q 279 66 260 100 q 357 32 299 32 l 381 32 l 381 0 l 244 0 z "},"J":{"ha":368,"x_min":-17,"x_max":254,"o":"m -17 -158 q 115 110 115 -154 l 115 917 l 254 917 l 254 110 q 231 -67 254 -3 q 149 -160 207 -131 q -17 -190 90 -190 l -17 -158 z "},"K":{"ha":946,"x_min":22,"x_max":960,"o":"m 867 -14 q 722 22 794 -14 q 557 153 649 57 l 283 439 l 283 0 l 143 0 l 143 746 q 124 851 143 817 q 46 885 104 885 l 22 885 l 22 917 l 158 917 q 235 903 208 917 q 272 853 261 889 q 283 746 283 817 l 283 478 l 561 771 q 639 851 611 825 q 708 897 667 876 q 800 917 749 917 l 876 917 l 876 878 q 763 857 811 878 q 661 781 714 836 l 407 514 l 728 181 q 848 77 785 119 q 960 28 911 35 l 960 0 q 867 -14 918 -14 z "},"L":{"ha":779,"x_min":22,"x_max":772,"o":"m 143 746 q 124 851 143 817 q 46 885 104 885 l 22 885 l 22 917 l 158 917 q 235 903 208 917 q 272 853 261 889 q 283 746 283 817 l 283 57 l 772 57 l 772 0 l 143 0 l 143 746 z "},"M":{"ha":1192,"x_min":115,"x_max":1171,"o":"m 1171 -62 q 1013 -31 1071 -62 q 931 65 956 0 q 907 236 907 129 l 907 760 l 571 0 l 539 0 l 174 778 l 174 0 l 115 0 l 115 917 l 257 917 l 590 206 l 907 917 l 1046 917 l 1046 236 q 1171 -33 1046 -28 l 1171 -62 z "},"N":{"ha":954,"x_min":11,"x_max":840,"o":"m 207 718 l 207 0 l 149 0 l 149 750 q 120 850 149 815 q 24 885 92 885 l 11 885 l 11 917 l 103 917 q 217 896 171 917 q 297 833 264 875 l 781 242 l 781 917 l 840 917 l 840 -11 l 803 -11 l 207 718 z "},"O":{"ha":996,"x_min":61,"x_max":936,"o":"m 499 -28 q 269 36 368 -28 q 115 211 169 100 q 61 458 61 322 q 115 706 61 594 q 269 881 169 817 q 499 944 368 944 q 728 881 629 944 q 882 706 828 817 q 936 458 936 594 q 882 211 936 322 q 728 36 828 100 q 499 -28 629 -28 m 499 29 q 708 144 632 29 q 783 458 783 258 q 708 773 783 658 q 499 888 632 888 q 290 773 365 888 q 214 458 214 658 q 290 144 214 258 q 499 29 365 29 z "},"P":{"ha":776,"x_min":22,"x_max":743,"o":"m 143 746 q 124 851 143 817 q 46 885 104 885 l 22 885 l 22 917 l 389 917 q 634 860 525 917 q 743 639 743 804 q 687 472 743 531 q 560 393 631 413 q 431 374 489 374 l 283 374 l 283 0 l 143 0 l 143 746 m 382 425 q 476 447 428 425 q 556 518 524 468 q 589 646 589 568 q 556 774 589 724 q 476 845 524 824 q 383 867 429 867 q 283 853 335 867 l 283 425 l 382 425 z "},"Q":{"ha":999,"x_min":63,"x_max":946,"o":"m 946 -285 q 635 -222 779 -285 q 369 -8 490 -158 q 145 162 228 35 q 63 458 63 289 q 117 706 63 594 q 270 881 171 817 q 500 944 369 944 q 730 881 631 944 q 883 706 829 817 q 938 458 938 594 q 851 156 938 283 q 618 -11 765 28 q 695 -134 640 -78 q 818 -222 750 -190 q 946 -254 886 -254 l 946 -285 m 500 29 q 709 144 633 29 q 785 458 785 258 q 709 773 785 658 q 500 888 633 888 q 291 773 367 888 q 215 458 215 658 q 291 144 215 258 q 500 29 367 29 z "},"R":{"ha":833,"x_min":22,"x_max":850,"o":"m 763 -14 q 632 31 689 -14 q 508 188 575 75 l 369 422 l 283 422 l 283 0 l 143 0 l 143 746 q 124 851 143 817 q 46 885 104 885 l 22 885 l 22 917 l 389 917 q 633 865 522 917 q 743 667 743 813 q 681 508 743 561 q 521 431 618 454 l 667 188 q 759 69 718 103 q 850 29 800 35 l 850 0 q 813 -10 838 -6 q 763 -14 789 -14 m 379 474 q 475 494 426 474 q 557 558 524 514 q 590 669 590 603 q 557 781 590 736 q 474 846 524 825 q 379 867 425 867 q 283 853 336 867 l 283 474 l 379 474 z "},"S":{"ha":750,"x_min":72,"x_max":693,"o":"m 389 -24 q 238 -3 311 -24 q 119 56 165 18 q 72 144 72 94 l 72 297 l 101 297 q 192 96 124 158 q 379 33 260 33 q 507 70 456 33 q 558 174 558 107 q 523 274 558 232 q 408 363 488 317 l 238 464 q 110 572 147 517 q 72 706 72 628 q 149 877 72 813 q 353 942 226 942 q 497 922 426 942 q 612 863 567 901 q 657 775 657 825 l 657 622 l 628 622 q 539 823 604 761 q 357 885 474 885 q 243 846 290 885 q 196 746 196 807 q 231 653 196 690 q 347 567 265 617 l 518 465 q 653 359 613 410 q 693 233 693 308 q 612 46 693 115 q 389 -24 531 -24 z "},"T":{"ha":807,"x_min":28,"x_max":793,"o":"m 347 860 l 229 860 q 58 697 58 860 l 28 697 l 28 806 q 146 917 28 917 l 793 917 l 793 860 l 486 860 l 486 0 l 347 0 l 347 860 z "},"U":{"ha":957,"x_min":17,"x_max":853,"o":"m 494 -14 q 217 86 300 -14 q 135 397 135 186 l 135 746 q 116 849 135 815 q 42 885 97 883 l 17 885 l 17 917 l 150 917 q 226 903 200 917 q 264 853 253 889 q 275 746 275 817 l 275 356 q 332 123 275 203 q 514 43 389 43 q 730 126 667 43 q 793 397 793 210 l 793 917 l 853 917 l 853 397 q 821 167 853 256 q 710 32 789 78 q 494 -14 632 -14 z "},"V":{"ha":888,"x_min":-42,"x_max":861,"o":"m 107 754 q 42 864 74 833 q -42 900 11 894 l -42 928 l 8 931 q 149 895 83 931 q 258 754 214 860 l 492 206 l 794 917 l 861 917 l 463 -14 l 429 -14 l 107 754 z "},"W":{"ha":1217,"x_min":-47,"x_max":1176,"o":"m 103 754 q 42 864 74 833 q -47 900 10 894 l -47 928 l 4 931 q 149 896 85 931 q 251 754 213 861 l 438 233 l 579 651 l 543 754 q 481 864 513 833 q 392 900 449 894 l 392 928 q 413 929 399 928 q 440 931 426 931 q 585 896 521 931 q 688 754 649 861 l 876 226 l 1114 917 l 1176 917 l 854 -14 l 819 -14 l 613 561 l 415 -14 l 379 -14 l 103 754 z "},"X":{"ha":919,"x_min":-14,"x_max":940,"o":"m 394 446 l 199 736 q 106 844 153 804 q -14 889 58 885 l -14 917 l 149 917 q 259 875 213 917 q 351 764 306 833 l 486 561 l 761 917 l 836 917 l 522 510 l 743 181 q 940 28 839 36 l 940 0 l 793 0 q 681 43 731 0 q 590 153 632 86 l 431 394 l 124 0 l 49 0 l 394 446 z "},"Y":{"ha":876,"x_min":-37,"x_max":861,"o":"m 399 376 l 160 736 q 67 847 110 808 q -37 889 24 885 l -37 917 l 94 917 q 215 875 165 917 q 308 764 264 833 l 506 458 l 792 917 l 861 917 l 539 393 l 539 0 l 399 0 l 399 376 z "},"Z":{"ha":824,"x_min":36,"x_max":800,"o":"m 36 32 l 597 860 l 272 860 q 101 697 101 860 l 71 697 l 71 806 q 189 917 71 917 l 800 917 l 221 57 l 782 57 l 782 0 l 36 0 l 36 32 z "},"[":{"ha":444,"x_min":101,"x_max":410,"o":"m 101 944 l 410 944 l 410 888 l 226 888 l 226 -221 l 410 -221 l 410 -278 l 101 -278 l 101 944 z "},"\\":{"ha":624,"x_min":31,"x_max":593,"o":"m 31 917 l 147 917 l 593 0 l 476 0 l 31 917 z "},"]":{"ha":444,"x_min":33,"x_max":343,"o":"m 33 -221 l 218 -221 l 218 888 l 33 888 l 33 944 l 343 944 l 343 -278 l 33 -278 l 33 -221 z "},"^":{"ha":689,"x_min":28,"x_max":661,"o":"m 326 944 l 363 944 l 661 458 l 557 458 l 344 804 l 132 458 l 28 458 l 326 944 z "},"_":{"ha":601,"x_min":19,"x_max":582,"o":"m 19 0 l 582 0 l 582 -87 l 19 -87 l 19 0 z "},"`":{"ha":288,"x_min":28,"x_max":260,"o":"m 28 944 l 176 944 l 260 665 l 182 665 l 28 944 z "},"a":{"ha":674,"x_min":50,"x_max":586,"o":"m 261 -14 q 113 34 176 -14 q 50 179 50 82 q 144 330 50 283 q 410 376 239 376 l 446 376 q 410 559 446 508 q 304 610 374 610 q 208 583 244 610 q 156 489 171 556 l 89 489 q 94 565 89 536 q 124 618 100 594 q 205 655 149 643 q 332 667 261 667 q 519 603 451 667 q 586 375 586 539 l 586 0 l 504 0 l 456 63 l 449 63 q 376 8 424 31 q 261 -14 329 -14 m 318 50 q 446 136 399 50 l 446 319 l 410 319 q 252 283 307 319 q 197 179 197 246 q 231 83 197 117 q 318 50 265 50 z "},"b":{"ha":735,"x_min":-26,"x_max":675,"o":"m 414 -14 q 301 8 346 -14 q 233 63 257 31 l 226 63 l 178 0 l 96 0 l 96 746 q 76 851 96 817 q -1 885 57 885 l -26 885 l -26 917 l 110 917 q 186 903 160 917 q 224 853 213 889 q 235 746 235 817 l 235 625 q 401 667 315 667 q 605 572 535 667 q 675 326 675 476 q 607 82 675 178 q 414 -14 539 -14 m 375 43 q 490 121 453 43 q 528 326 528 199 q 488 533 528 456 q 364 610 449 610 q 304 599 333 610 q 235 568 275 588 l 235 129 q 375 43 286 43 z "},"c":{"ha":675,"x_min":60,"x_max":632,"o":"m 372 -14 q 200 31 271 -14 q 94 153 129 76 q 60 326 60 231 q 94 499 60 422 q 200 622 129 576 q 372 667 271 667 q 576 618 528 667 q 606 559 600 594 q 611 433 611 524 l 581 433 q 526 565 575 519 q 399 610 478 610 q 255 533 304 610 q 206 326 206 456 q 254 119 206 196 q 400 43 303 43 q 515 71 469 43 q 600 156 561 99 l 632 132 q 525 23 588 60 q 372 -14 463 -14 z "},"d":{"ha":736,"x_min":61,"x_max":640,"o":"m 322 -14 q 128 82 196 -14 q 61 326 61 178 q 131 572 61 476 q 335 667 201 667 q 501 625 421 667 l 501 746 q 482 851 501 817 q 404 885 463 885 l 379 885 l 379 917 l 515 917 q 592 903 565 917 q 629 853 618 889 q 640 746 640 817 l 640 0 l 558 0 l 510 63 l 503 63 q 434 8 475 29 q 322 -14 393 -14 m 361 43 q 444 65 414 43 q 501 129 474 88 l 501 568 q 432 599 461 589 q 372 610 403 610 q 248 533 288 610 q 208 326 208 456 q 246 121 208 199 q 361 43 283 43 z "},"e":{"ha":685,"x_min":60,"x_max":629,"o":"m 358 -14 q 197 31 264 -14 q 94 153 129 76 q 60 326 60 231 q 95 502 60 425 q 195 623 131 579 q 344 667 260 667 q 556 589 482 667 q 629 368 629 511 l 626 304 l 206 304 q 253 113 206 183 q 385 43 301 43 q 496 72 450 43 q 581 156 542 100 l 611 132 q 506 23 568 60 q 358 -14 444 -14 m 483 363 q 344 610 483 610 q 245 542 285 610 q 206 363 206 475 l 483 363 z "},"f":{"ha":469,"x_min":26,"x_max":540,"o":"m 119 596 l 26 596 l 26 653 l 119 653 l 119 693 q 369 931 119 931 q 490 908 458 931 q 540 847 517 892 l 494 808 q 367 874 453 874 q 258 693 258 874 l 258 653 l 450 653 l 450 596 l 258 596 l 258 0 l 119 0 l 119 596 z "},"g":{"ha":694,"x_min":32,"x_max":661,"o":"m 346 -278 q 117 -227 201 -278 q 32 -62 32 -176 q 78 49 32 3 q 193 118 124 96 q 136 200 136 146 q 149 244 136 228 q 186 274 163 260 q 106 344 138 296 q 74 456 74 392 q 346 667 74 667 l 613 667 l 613 631 l 513 617 q 589 549 558 592 q 619 456 619 506 q 346 246 619 246 q 238 235 274 246 q 203 200 203 225 q 346 154 203 154 q 573 99 485 153 q 661 -62 661 44 q 576 -227 661 -176 q 346 -278 492 -278 m 346 297 q 442 335 406 297 q 478 456 478 374 q 442 576 478 535 q 346 617 406 617 q 251 578 286 617 q 215 456 215 539 q 251 335 215 372 q 346 297 286 297 m 346 -221 q 473 -181 426 -221 q 519 -62 519 -142 q 478 45 519 6 q 360 96 438 85 l 286 103 q 203 41 232 81 q 174 -62 174 1 q 220 -181 174 -142 q 346 -221 267 -221 z "},"h":{"ha":740,"x_min":-26,"x_max":651,"o":"m 96 746 q 76 851 96 817 q -1 885 57 885 l -26 885 l -26 917 l 110 917 q 186 903 160 917 q 224 853 213 889 q 235 746 235 817 l 235 601 q 310 648 265 629 q 408 667 354 667 q 583 610 515 667 q 651 415 651 554 l 651 0 l 513 0 l 513 414 q 471 557 513 511 q 367 603 429 603 q 295 583 329 603 q 235 535 261 564 l 235 0 l 96 0 l 96 746 z "},"i":{"ha":349,"x_min":-3,"x_max":257,"o":"m 181 733 q 119 761 143 733 q 96 828 96 789 q 115 875 96 857 q 163 893 133 893 q 224 866 200 893 q 247 800 247 839 q 229 751 247 769 q 181 733 211 733 m 118 482 q 99 587 118 553 q 21 621 79 621 l -3 621 l -3 653 l 132 653 q 208 639 182 653 q 246 589 235 625 q 257 482 257 553 l 257 0 l 118 0 l 118 482 z "},"j":{"ha":349,"x_min":-11,"x_max":257,"o":"m 181 733 q 119 761 143 733 q 96 828 96 789 q 115 875 96 857 q 163 893 133 893 q 224 866 200 893 q 247 800 247 839 q 229 751 247 769 q 181 733 211 733 m -11 -235 q 118 35 118 -229 l 118 482 q 99 587 118 553 q 21 621 79 621 l -3 621 l -3 653 l 132 653 q 208 639 182 653 q 246 589 235 625 q 257 482 257 553 l 257 35 q 233 -140 257 -76 q 151 -234 208 -204 q -11 -264 93 -264 l -11 -235 z "},"k":{"ha":681,"x_min":-26,"x_max":672,"o":"m 596 -14 q 488 12 539 -14 q 393 97 438 38 l 235 307 l 235 0 l 96 0 l 96 746 q 76 851 96 817 q -1 885 57 885 l -26 885 l -26 917 l 110 917 q 186 903 160 917 q 224 853 213 889 q 235 746 235 817 l 235 340 l 407 558 q 488 630 447 607 q 593 653 528 653 l 631 653 l 631 618 q 497 553 550 618 l 349 367 l 525 139 q 599 61 564 88 q 672 28 633 35 l 672 0 q 638 -10 660 -6 q 596 -14 617 -14 z "},"l":{"ha":342,"x_min":-21,"x_max":240,"o":"m 101 746 q 82 851 101 817 q 4 885 63 885 l -21 885 l -21 917 l 115 917 q 192 903 165 917 q 229 853 218 889 q 240 746 240 817 l 240 0 l 101 0 l 101 746 z "},"m":{"ha":1106,"x_min":-3,"x_max":1015,"o":"m 118 482 q 99 587 118 553 q 21 621 79 621 l -3 621 l -3 653 l 125 653 q 203 640 175 653 q 243 599 231 626 l 250 599 q 326 647 281 628 q 429 667 372 667 q 603 574 557 667 q 691 642 638 617 q 808 667 744 667 q 960 610 906 667 q 1015 415 1015 553 l 1015 0 l 875 0 l 875 415 q 847 559 875 515 q 764 603 818 603 q 687 578 726 603 q 625 522 647 553 q 636 415 636 496 l 636 0 l 497 0 l 497 415 q 469 558 497 514 q 386 603 440 603 q 317 584 350 603 q 258 536 283 565 l 258 0 l 118 0 l 118 482 z "},"n":{"ha":767,"x_min":-3,"x_max":678,"o":"m 118 482 q 99 587 118 553 q 21 621 79 621 l -3 621 l -3 653 l 125 653 q 203 640 175 653 q 243 599 231 626 q 435 667 324 667 q 678 415 678 667 l 678 0 l 539 0 l 539 415 q 497 557 539 511 q 392 603 456 603 q 258 539 319 603 l 258 0 l 118 0 l 118 482 z "},"o":{"ha":744,"x_min":60,"x_max":685,"o":"m 372 -14 q 206 31 276 -14 q 97 153 135 76 q 60 326 60 231 q 97 499 60 422 q 206 622 135 576 q 372 667 276 667 q 539 622 468 667 q 647 499 610 576 q 685 326 685 422 q 647 153 685 231 q 539 31 610 76 q 372 -14 468 -14 m 372 43 q 493 124 447 43 q 539 326 539 204 q 493 529 539 449 q 372 610 447 610 q 251 529 297 610 q 206 326 206 449 q 251 124 206 204 q 372 43 297 43 z "},"p":{"ha":758,"x_min":-3,"x_max":697,"o":"m 118 482 q 99 587 118 553 q 21 621 79 621 l -3 621 l -3 653 l 125 653 q 203 639 176 653 q 243 592 231 625 q 436 667 325 667 q 629 571 561 667 q 697 326 697 475 q 627 81 697 176 q 424 -14 557 -14 q 258 28 336 -14 l 258 -264 l 118 -264 l 118 482 m 386 43 q 510 120 471 43 q 550 326 550 197 q 513 532 550 454 q 399 610 475 610 q 258 535 308 610 l 258 85 q 326 54 296 65 q 386 43 357 43 z "},"q":{"ha":736,"x_min":61,"x_max":640,"o":"m 501 28 q 335 -14 424 -14 q 131 81 201 -14 q 61 326 61 176 q 128 571 61 475 q 322 667 196 667 q 434 644 389 667 q 503 590 479 622 l 510 590 l 558 653 l 640 653 l 640 -264 l 501 -264 l 501 28 m 372 43 q 501 85 421 43 l 501 524 q 442 587 474 564 q 361 610 411 610 q 246 532 283 610 q 208 326 208 454 q 248 120 208 197 q 372 43 288 43 z "},"r":{"ha":558,"x_min":0,"x_max":546,"o":"m 111 482 q 92 587 111 553 q 14 621 72 621 l 0 621 l 0 653 l 118 653 q 197 639 169 653 q 236 593 224 625 q 310 644 265 622 q 410 667 356 667 q 497 644 465 667 q 523 618 513 632 q 546 582 533 604 l 486 536 q 442 569 471 557 q 379 582 414 582 q 303 565 338 582 q 249 519 269 549 q 250 471 250 503 l 250 0 l 111 0 l 111 482 z "},"s":{"ha":628,"x_min":64,"x_max":572,"o":"m 318 -14 q 100 42 158 -14 q 72 97 78 65 q 67 193 67 129 l 100 193 q 159 83 113 122 q 290 43 206 43 q 402 69 365 43 q 439 140 439 96 q 408 208 439 181 q 314 261 378 235 l 233 296 q 106 375 149 331 q 64 485 64 419 q 130 619 64 571 q 303 667 196 667 q 515 611 457 667 q 544 556 539 588 q 550 460 550 525 l 517 460 q 458 570 504 531 q 331 610 411 610 q 232 583 267 610 q 197 513 197 556 q 304 399 197 444 l 388 364 q 528 280 483 324 q 572 168 572 236 q 501 34 572 82 q 318 -14 431 -14 z "},"t":{"ha":475,"x_min":29,"x_max":474,"o":"m 299 -14 q 169 33 217 -14 q 122 172 122 79 l 122 596 l 29 596 l 29 653 l 122 653 l 122 778 l 192 861 l 263 861 l 263 653 l 425 653 l 425 596 l 263 596 l 263 171 q 285 74 263 106 q 353 43 307 43 q 410 51 386 43 q 458 74 433 60 l 474 43 q 299 -14 404 -14 z "},"u":{"ha":754,"x_min":-11,"x_max":658,"o":"m 342 -14 q 100 238 100 -14 l 100 482 q 81 587 100 553 q 3 621 61 621 l -11 621 l -11 653 l 115 653 q 192 639 165 653 q 229 589 218 625 q 240 482 240 553 l 240 238 q 280 94 240 139 q 383 49 319 49 q 519 126 456 49 l 519 653 l 658 653 l 658 0 l 576 0 l 528 57 l 521 57 q 444 6 490 26 q 342 -14 399 -14 z "},"v":{"ha":692,"x_min":-10,"x_max":671,"o":"m 129 493 q 66 602 96 571 q -10 636 36 633 l -10 664 q 11 665 -3 664 q 39 667 25 667 q 178 630 118 667 q 283 493 239 593 l 407 203 l 600 653 l 671 653 l 383 -14 l 350 -14 l 129 493 z "},"w":{"ha":1050,"x_min":-10,"x_max":1026,"o":"m 132 493 q 68 602 99 571 q -10 636 38 633 l -10 664 l 43 667 q 180 628 122 667 q 278 493 238 590 l 396 208 l 508 488 q 442 601 472 569 q 368 636 411 633 l 368 664 l 418 667 q 558 628 499 667 q 657 493 617 590 l 778 204 l 956 653 l 1026 653 l 758 -14 l 722 -14 l 546 406 l 376 -14 l 339 -14 l 132 493 z "},"x":{"ha":681,"x_min":10,"x_max":675,"o":"m 272 307 l 149 514 q 10 625 90 614 l 10 653 l 131 653 q 293 542 228 653 l 375 404 l 556 653 l 631 653 l 406 346 l 531 139 q 675 28 588 39 l 675 0 l 547 0 q 385 111 450 0 l 304 249 l 124 0 l 47 0 l 272 307 z "},"y":{"ha":713,"x_min":-17,"x_max":676,"o":"m 142 -235 q 256 -204 211 -235 q 332 -92 301 -174 l 360 -15 l 131 528 q -17 639 90 628 l -17 667 l 103 667 q 207 638 164 667 q 274 556 250 608 l 432 181 l 606 653 l 676 653 l 403 -90 q 313 -238 363 -199 q 186 -278 264 -278 l 142 -278 l 142 -235 z "},"z":{"ha":657,"x_min":60,"x_max":619,"o":"m 60 31 l 421 596 l 261 596 q 90 468 90 596 l 60 468 l 60 542 q 178 653 60 653 l 619 653 l 239 57 l 613 57 l 613 0 l 60 0 l 60 31 z "},"{":{"ha":425,"x_min":13,"x_max":389,"o":"m 389 -292 q 208 -205 264 -268 q 151 -42 151 -142 l 151 153 q 119 258 151 215 q 13 313 86 301 l 13 354 q 119 408 86 365 q 151 514 151 451 l 151 708 q 208 869 151 807 q 389 958 264 932 l 389 915 q 303 864 326 897 q 281 765 281 831 l 281 528 q 244 401 281 447 q 129 333 207 356 q 244 265 207 311 q 281 139 281 219 l 281 -99 q 303 -198 281 -164 q 389 -249 326 -232 l 389 -292 z "},"|":{"ha":342,"x_min":101,"x_max":240,"o":"m 101 944 l 240 944 l 240 -264 l 101 -264 l 101 944 z "},"}":{"ha":425,"x_min":36,"x_max":413,"o":"m 36 -249 q 122 -198 99 -232 q 144 -99 144 -164 l 144 139 q 181 265 144 219 q 296 333 218 311 q 181 401 218 356 q 144 528 144 447 l 144 765 q 122 864 144 831 q 36 915 99 897 l 36 958 q 217 869 161 932 q 274 708 274 807 l 274 514 q 306 408 274 451 q 413 354 339 365 l 413 313 q 306 258 339 301 q 274 153 274 215 l 274 -42 q 217 -205 274 -142 q 36 -292 161 -268 l 36 -249 z "},"~":{"ha":867,"x_min":81,"x_max":789,"o":"m 622 246 q 526 261 572 246 q 410 307 479 276 q 317 344 354 332 q 247 357 281 357 q 165 331 193 357 q 136 263 136 306 l 81 263 q 127 413 81 363 q 247 463 174 463 q 342 447 296 463 q 458 401 389 432 q 555 363 521 375 q 622 351 589 351 q 704 377 675 351 q 733 446 733 403 l 789 446 q 742 296 789 346 q 622 246 696 246 z "}," ":{"ha":347,"x_min":0,"x_max":0,"o":""},"¡":{"ha":313,"x_min":79,"x_max":233,"o":"m 156 511 q 101 533 124 511 q 79 588 79 556 q 101 644 79 622 q 156 667 124 667 q 211 644 189 667 q 233 588 233 622 q 211 533 233 556 q 156 511 189 511 m 110 432 l 203 432 l 229 -269 l 83 -269 l 110 432 z "},"¢":{"ha":675,"x_min":53,"x_max":625,"o":"m 333 -12 q 125 92 197 -1 q 53 326 53 186 q 125 560 53 467 q 333 665 197 654 l 333 722 l 396 722 l 396 667 q 569 618 521 664 q 599 559 593 594 q 604 433 604 524 l 574 433 q 521 563 568 518 q 396 608 474 607 l 396 43 q 509 72 464 44 q 593 156 554 100 l 625 132 q 529 29 585 65 q 396 -12 474 -7 l 396 -69 l 333 -69 l 333 -12 m 333 600 q 233 506 268 578 q 199 326 199 433 q 233 147 199 219 q 333 53 267 74 l 333 600 z "},"£":{"ha":736,"x_min":46,"x_max":675,"o":"m 46 36 q 131 113 104 53 q 157 306 157 174 l 157 444 l 63 444 l 63 501 l 157 501 l 157 639 q 227 869 157 807 q 411 931 297 931 q 537 919 479 931 q 619 882 594 907 q 649 830 643 858 q 654 753 654 801 l 588 753 q 535 846 572 818 q 439 874 499 874 q 333 822 371 874 q 296 639 296 771 l 296 501 l 488 501 l 488 444 l 296 444 l 296 306 q 214 57 296 129 l 474 57 q 643 219 643 57 l 675 219 l 675 111 q 557 0 675 0 l 46 0 l 46 36 z "},"¤":{"ha":811,"x_min":49,"x_max":767,"o":"m 169 274 l 90 274 l 90 332 l 169 332 l 169 401 l 90 401 l 90 458 l 169 458 l 169 749 q 150 851 169 817 q 72 885 131 885 l 49 885 l 49 917 l 414 917 q 667 856 568 917 q 767 667 767 796 q 667 465 767 528 q 413 401 568 401 l 308 401 l 308 332 l 667 332 l 667 274 l 308 274 l 308 0 l 169 0 l 169 274 m 413 458 q 558 512 501 461 q 614 667 614 563 q 555 816 614 765 q 410 867 496 867 q 308 854 358 867 l 308 458 l 413 458 z "},"¥":{"ha":963,"x_min":32,"x_max":931,"o":"m 468 197 l 340 197 l 340 256 l 468 256 l 468 311 l 340 311 l 340 368 l 468 368 l 229 736 q 136 847 179 808 q 32 889 93 885 l 32 917 l 164 917 q 284 875 233 917 q 378 764 335 833 l 575 458 l 860 917 l 931 917 l 607 393 l 607 368 l 736 368 l 736 311 l 607 311 l 607 256 l 736 256 l 736 197 l 607 197 l 607 0 l 468 0 l 468 197 z "},"¦":{"ha":350,"x_min":106,"x_max":244,"o":"m 106 944 l 244 944 l 244 457 l 106 457 l 106 944 m 106 224 l 244 224 l 244 -264 l 106 -264 l 106 224 z "},"§":{"ha":607,"x_min":67,"x_max":540,"o":"m 296 -278 q 187 -263 236 -278 q 111 -222 138 -249 q 81 -167 86 -197 q 75 -74 75 -137 l 108 -74 q 158 -182 119 -143 q 254 -221 196 -221 q 351 -190 317 -221 q 386 -96 386 -158 q 365 -19 386 -53 q 315 38 344 14 q 232 97 285 63 q 144 160 176 133 q 90 224 113 186 q 67 313 67 263 q 215 514 67 454 q 88 721 88 597 q 150 878 88 825 q 310 931 213 931 q 419 916 371 931 q 494 875 468 901 q 525 820 519 850 q 531 726 531 790 l 499 726 q 449 834 488 794 q 351 874 410 874 q 256 842 290 874 q 221 749 221 811 q 260 646 221 686 q 375 556 299 606 q 462 494 429 521 q 517 428 494 467 q 540 340 540 390 q 501 216 540 265 q 389 139 463 167 q 485 47 450 96 q 519 -68 519 -3 q 456 -225 519 -172 q 296 -278 393 -278 m 336 172 q 424 299 424 199 q 384 396 424 353 q 269 481 344 439 q 206 438 228 467 q 183 354 183 408 q 223 256 183 299 q 336 172 263 213 z "},"¨":{"ha":421,"x_min":21,"x_max":400,"o":"m 92 958 q 40 978 58 958 q 21 1031 21 997 q 40 1082 21 1063 q 92 1101 58 1101 q 144 1082 125 1101 q 164 1031 164 1063 q 144 978 164 999 q 92 958 125 958 m 328 958 q 276 978 294 958 q 257 1031 257 997 q 276 1082 257 1063 q 328 1101 294 1101 q 381 1082 361 1101 q 400 1031 400 1063 q 381 978 400 999 q 328 958 361 958 z "},"©":{"ha":1103,"x_min":53,"x_max":1050,"o":"m 551 -36 q 296 28 410 -36 q 117 204 182 92 q 53 458 53 317 q 117 713 53 600 q 296 889 182 825 q 551 953 410 953 q 807 889 693 953 q 985 713 921 825 q 1050 458 1050 600 q 985 204 1050 317 q 807 28 921 92 q 551 -36 693 -36 m 551 22 q 775 78 676 22 q 928 233 874 133 q 983 458 983 332 q 928 684 983 585 q 775 839 874 783 q 551 894 676 894 q 328 839 426 894 q 174 684 229 783 q 119 458 119 585 q 174 233 119 332 q 328 78 229 133 q 551 22 426 22 m 551 144 q 402 185 467 144 q 303 297 338 226 q 268 454 268 367 q 306 619 268 544 q 410 738 344 694 q 551 782 475 782 q 681 761 625 782 q 763 710 738 740 q 783 657 779 689 q 788 571 788 625 l 763 571 q 701 701 746 658 q 579 743 656 743 q 426 675 485 743 q 368 454 368 607 q 422 263 368 342 q 579 185 475 185 q 694 217 644 185 q 782 313 743 249 l 804 296 q 700 179 761 214 q 551 144 639 144 z "},"ª":{"ha":447,"x_min":68,"x_max":361,"o":"m 181 550 q 101 572 135 550 q 68 647 68 593 q 120 732 68 704 q 260 760 172 760 l 282 760 q 262 858 282 832 q 207 885 242 885 q 153 870 172 885 q 125 819 133 856 l 89 819 q 92 862 89 847 q 108 890 94 876 q 221 917 131 917 q 324 884 286 917 q 361 760 361 851 l 361 557 l 314 557 l 288 592 l 283 592 q 181 550 247 550 m 207 582 q 282 631 249 582 l 282 728 l 260 728 q 178 705 208 728 q 147 647 147 682 q 207 582 147 582 z "},"«":{"ha":536,"x_min":47,"x_max":458,"o":"m 47 313 l 264 583 l 328 583 l 194 313 l 328 42 l 264 42 l 47 313 m 254 313 l 394 514 l 458 514 l 374 313 l 458 111 l 394 111 l 254 313 z "},"¬":{"ha":911,"x_min":90,"x_max":822,"o":"m 728 315 l 90 315 l 90 403 l 822 403 l 822 175 l 728 175 l 728 315 z "},"­":{"ha":540,"x_min":89,"x_max":451,"o":"m 89 421 l 451 421 l 451 315 l 89 315 l 89 421 z "},"®":{"ha":1103,"x_min":53,"x_max":1050,"o":"m 551 -35 q 296 28 410 -35 q 117 204 182 92 q 53 458 53 317 q 117 713 53 600 q 296 888 182 825 q 551 951 410 951 q 807 888 693 951 q 985 713 921 825 q 1050 458 1050 600 q 985 204 1050 317 q 807 28 921 92 q 551 -35 693 -35 m 551 22 q 775 78 676 22 q 928 233 874 133 q 983 458 983 332 q 928 684 983 585 q 775 839 874 783 q 551 894 676 894 q 328 839 426 894 q 174 684 229 783 q 119 458 119 585 q 174 233 119 332 q 328 78 229 133 q 551 22 426 22 m 769 164 q 690 192 724 164 q 610 293 656 219 l 517 447 l 460 447 l 460 174 l 369 174 l 369 660 q 358 726 369 704 q 313 749 346 749 l 292 749 l 292 768 l 528 768 q 688 733 618 768 q 757 603 757 697 q 715 501 757 536 q 614 454 674 465 l 713 294 q 772 218 747 240 q 831 192 797 196 l 831 174 q 769 164 818 164 m 524 481 q 615 513 572 481 q 657 608 657 546 q 615 703 657 671 q 524 735 572 735 q 460 726 496 735 l 460 489 q 524 481 490 481 z "},"¯":{"ha":347,"x_min":0,"x_max":0,"o":""},"°":{"ha":574,"x_min":156,"x_max":419,"o":"m 288 850 q 194 813 232 850 q 156 722 156 775 q 194 632 156 669 q 288 594 232 594 q 381 632 343 594 q 419 722 419 669 q 381 813 419 775 q 288 850 343 850 m 288 772 q 315 758 301 772 q 328 722 328 743 q 315 687 328 701 q 288 672 301 672 q 259 687 272 672 q 246 722 246 701 q 259 758 246 743 q 288 772 272 772 z "},"±":{"ha":800,"x_min":76,"x_max":724,"o":"m 76 168 l 353 168 l 353 415 l 76 415 l 76 501 l 353 501 l 353 778 l 447 778 l 447 501 l 724 501 l 724 415 l 447 415 l 447 168 l 724 168 l 724 82 l 76 82 l 76 168 z "},"²":{"ha":444,"x_min":82,"x_max":364,"o":"m 82 556 l 126 600 q 219 695 190 663 q 265 762 249 728 q 281 836 281 796 q 260 903 281 882 q 207 925 240 925 q 141 899 167 925 q 106 819 115 872 l 88 819 q 90 873 88 853 q 103 907 93 893 q 154 943 121 929 q 225 957 188 957 q 319 931 279 957 q 360 836 360 904 q 342 763 360 796 q 297 701 325 729 q 218 625 269 672 q 143 556 193 603 l 267 556 q 326 570 307 556 q 346 617 346 585 l 364 617 l 364 574 q 310 524 364 524 l 82 524 l 82 556 z "},"³":{"ha":429,"x_min":69,"x_max":367,"o":"m 211 510 q 130 527 163 510 q 69 579 97 544 l 85 592 q 201 542 131 542 q 263 567 239 542 q 288 642 288 593 q 263 710 288 688 q 206 733 239 733 q 136 725 168 733 l 115 760 l 285 913 l 169 913 q 93 850 93 913 l 79 850 l 79 893 q 133 944 79 944 l 344 944 l 344 919 l 167 760 q 222 765 189 765 q 322 735 278 765 q 367 642 367 706 q 317 539 367 568 q 211 510 268 510 z "},"´":{"ha":253,"x_min":28,"x_max":225,"o":"m 85 1157 l 225 1157 l 89 972 l 28 972 l 85 1157 z "},"µ":{"ha":742,"x_min":99,"x_max":669,"o":"m 99 653 l 239 653 l 239 326 q 277 120 239 197 q 390 43 315 43 q 473 67 440 43 q 529 129 506 90 l 529 653 l 669 653 l 669 0 l 586 0 l 538 63 l 531 63 q 467 7 503 28 q 375 -14 432 -14 q 231 49 296 -14 l 231 -264 l 99 -264 l 99 653 z "},"¶":{"ha":847,"x_min":38,"x_max":789,"o":"m 357 396 q 193 428 265 396 q 79 519 121 460 q 38 656 38 578 q 79 794 38 735 q 193 885 121 853 q 357 917 265 917 l 789 917 l 789 860 l 713 860 l 713 -264 l 576 -264 l 576 860 l 493 860 l 493 -264 l 357 -264 l 357 396 z "},"·":{"ha":318,"x_min":82,"x_max":236,"o":"m 158 381 q 104 403 126 381 q 82 460 82 426 q 104 515 82 492 q 158 538 126 538 q 215 515 193 538 q 236 460 236 493 q 214 403 236 426 q 158 381 192 381 z "},"¸":{"ha":257,"x_min":56,"x_max":257,"o":"m 56 -217 l 125 -217 q 166 -205 151 -217 q 181 -172 181 -193 q 166 -138 181 -150 q 125 -126 151 -126 l 63 -126 l 63 0 l 132 0 l 132 -69 q 225 -96 193 -69 q 257 -172 257 -122 q 225 -249 257 -221 q 143 -276 193 -276 l 56 -276 l 56 -217 z "},"¹":{"ha":296,"x_min":50,"x_max":201,"o":"m 121 863 l 67 831 l 50 856 l 142 944 l 201 944 l 201 524 l 121 524 l 121 863 z "},"º":{"ha":467,"x_min":133,"x_max":332,"o":"m 232 850 q 158 817 182 850 q 133 733 133 783 q 158 650 133 683 q 232 617 182 617 q 307 650 282 617 q 332 733 332 683 q 308 817 332 783 q 232 850 283 850 m 232 818 q 253 733 253 818 q 232 649 253 649 q 218 668 224 649 q 213 733 213 688 q 218 799 213 779 q 232 818 224 818 z "},"»":{"ha":536,"x_min":78,"x_max":489,"o":"m 340 313 l 208 583 l 272 583 l 489 313 l 272 42 l 208 42 l 340 313 m 161 313 l 78 514 l 142 514 l 282 313 l 142 111 l 78 111 l 161 313 z "},"¼":{"ha":835,"x_min":39,"x_max":775,"o":"m 150 863 l 96 831 l 78 856 l 169 944 l 229 944 l 229 524 l 150 524 l 150 863 m 671 917 l 772 917 l 140 0 l 39 0 l 671 917 m 642 107 l 433 107 l 433 135 l 649 422 l 721 422 l 721 139 l 775 139 l 775 107 l 721 107 l 721 0 l 642 0 l 642 107 m 642 139 l 642 351 l 482 139 l 642 139 z "},"½":{"ha":858,"x_min":39,"x_max":789,"o":"m 150 863 l 96 831 l 78 856 l 169 944 l 229 944 l 229 524 l 150 524 l 150 863 m 671 917 l 772 917 l 140 0 l 39 0 l 671 917 m 507 32 q 546 71 546 71 q 642 168 611 135 q 689 236 672 201 q 706 313 706 271 q 633 401 706 401 q 567 375 593 401 q 532 296 542 349 l 514 296 q 517 349 514 329 q 529 383 519 369 q 581 419 547 406 q 651 433 614 433 q 745 407 706 433 q 785 313 785 381 q 752 212 785 256 q 643 100 719 168 q 569 32 596 58 l 692 32 q 751 47 732 32 q 771 93 771 61 l 789 93 l 789 50 q 735 0 789 0 l 507 0 l 507 32 z "},"¾":{"ha":857,"x_min":57,"x_max":808,"o":"m 197 510 q 117 527 149 510 q 57 579 85 544 l 72 592 q 188 542 118 542 q 249 567 225 542 q 274 642 274 593 q 249 710 274 688 q 192 733 225 733 q 122 725 154 733 l 101 760 l 271 913 l 157 913 q 99 898 118 913 q 81 850 81 883 l 65 850 l 65 893 q 119 944 65 944 l 331 944 l 331 919 l 153 760 q 208 765 175 765 q 308 735 264 765 q 353 642 353 706 q 303 539 353 568 q 197 510 254 510 m 708 917 l 808 917 l 176 0 l 76 0 l 708 917 m 663 107 l 454 107 l 454 135 l 669 422 l 743 422 l 743 139 l 797 139 l 797 107 l 743 107 l 743 0 l 663 0 l 663 107 m 663 139 l 663 351 l 504 139 l 663 139 z "},"¿":{"ha":664,"x_min":39,"x_max":625,"o":"m 360 513 q 303 535 325 513 q 281 590 281 557 q 303 645 281 622 q 360 668 326 668 q 415 646 393 668 q 438 590 438 624 q 416 535 438 557 q 360 513 394 513 m 322 -294 q 123 -233 207 -294 q 39 -29 39 -172 q 60 75 39 29 q 112 153 82 121 q 193 232 142 186 q 290 331 257 288 q 326 433 324 374 l 393 433 q 365 308 390 358 q 289 194 339 257 q 217 86 240 133 q 193 -29 193 39 q 241 -185 193 -132 q 364 -237 289 -237 q 511 -175 449 -237 q 594 6 574 -112 l 625 6 q 619 -112 625 -69 q 590 -183 614 -154 q 477 -262 551 -231 q 322 -294 403 -294 z "},"À":{"ha":886,"x_min":25,"x_max":925,"o":"m 867 -7 q 621 174 690 -7 l 586 261 l 203 261 l 90 0 l 25 0 l 419 917 l 467 917 l 774 174 q 838 67 806 99 q 925 31 871 36 l 925 0 q 867 -7 900 -7 m 558 318 l 396 711 l 225 318 l 558 318 m 275 1157 l 415 1157 l 472 972 l 411 972 l 275 1157 z "},"Á":{"ha":886,"x_min":25,"x_max":925,"o":"m 867 -7 q 621 174 690 -7 l 586 261 l 203 261 l 90 0 l 25 0 l 419 917 l 467 917 l 774 174 q 838 67 806 99 q 925 31 871 36 l 925 0 q 867 -7 900 -7 m 558 318 l 396 711 l 225 318 l 558 318 m 476 1157 l 617 1157 l 481 972 l 419 972 l 476 1157 z "},"Â":{"ha":886,"x_min":25,"x_max":925,"o":"m 867 -7 q 621 174 690 -7 l 586 261 l 203 261 l 90 0 l 25 0 l 419 917 l 467 917 l 774 174 q 838 67 806 99 q 925 31 871 36 l 925 0 q 867 -7 900 -7 m 558 318 l 396 711 l 225 318 l 558 318 m 363 1115 l 522 1115 l 633 951 l 561 951 l 443 1063 l 325 951 l 251 951 l 363 1115 z "},"Ã":{"ha":886,"x_min":25,"x_max":925,"o":"m 867 -7 q 621 174 690 -7 l 586 261 l 203 261 l 90 0 l 25 0 l 419 917 l 467 917 l 774 174 q 838 67 806 99 q 925 31 871 36 l 925 0 q 867 -7 900 -7 m 558 318 l 396 711 l 225 318 l 558 318 m 290 972 q 312 1076 290 1046 q 376 1106 333 1106 q 415 1098 397 1106 q 454 1075 432 1090 q 490 1056 476 1063 q 518 1050 503 1050 q 548 1069 535 1050 q 561 1106 561 1088 l 607 1106 q 585 1002 607 1032 q 521 972 564 972 q 484 980 500 972 q 444 1001 468 988 q 410 1022 425 1015 q 379 1028 396 1028 q 349 1009 363 1028 q 336 972 336 990 l 290 972 z "},"Ä":{"ha":886,"x_min":25,"x_max":925,"o":"m 867 -7 q 621 174 690 -7 l 586 261 l 203 261 l 90 0 l 25 0 l 419 917 l 467 917 l 774 174 q 838 67 806 99 q 925 31 871 36 l 925 0 q 867 -7 900 -7 m 558 318 l 396 711 l 225 318 l 558 318 m 324 958 q 272 978 290 958 q 253 1031 253 997 q 272 1082 253 1063 q 324 1101 290 1101 q 376 1082 357 1101 q 396 1031 396 1063 q 376 978 396 999 q 324 958 357 958 m 560 958 q 508 978 526 958 q 489 1031 489 997 q 508 1082 489 1063 q 560 1101 526 1101 q 613 1082 593 1101 q 632 1031 632 1063 q 613 978 632 999 q 560 958 593 958 z "},"Å":{"ha":888,"x_min":25,"x_max":925,"o":"m 867 -7 q 621 174 690 -7 l 586 261 l 203 261 l 90 0 l 25 0 l 397 865 q 343 908 365 881 q 321 979 321 936 q 357 1065 321 1029 q 443 1101 393 1101 q 529 1065 493 1101 q 565 979 565 1029 q 542 908 565 936 q 489 865 519 879 l 774 174 q 838 67 806 99 q 925 31 871 36 l 925 0 q 867 -7 900 -7 m 472 917 q 506 979 506 942 q 488 1030 506 1011 q 443 1049 469 1049 q 399 1030 417 1049 q 381 979 381 1011 q 415 917 381 942 l 472 917 m 558 318 l 396 711 l 225 318 l 558 318 z "},"Æ":{"ha":1203,"x_min":-22,"x_max":1165,"o":"m 492 917 l 999 917 q 1117 806 1117 917 l 1117 697 l 1085 697 q 911 860 1085 860 l 663 860 l 663 501 l 1033 501 l 1033 444 l 663 444 l 663 57 l 904 57 q 1049 92 994 57 q 1136 211 1103 128 l 1165 203 l 1119 76 q 1081 19 1106 39 q 1011 0 1056 0 l 522 0 l 522 264 l 197 264 l 51 0 l -22 0 l 492 917 m 522 321 l 522 842 l 232 321 l 522 321 z "},"Ç":{"ha":929,"x_min":58,"x_max":883,"o":"m 883 200 q 735 31 822 83 q 524 -28 647 -22 l 524 -69 q 617 -96 585 -69 q 649 -172 649 -122 q 617 -249 649 -221 q 535 -276 585 -276 l 447 -276 l 447 -217 l 517 -217 q 558 -205 543 -217 q 572 -172 572 -193 q 558 -138 572 -150 q 517 -126 543 -126 l 454 -126 l 454 -26 q 244 48 333 -17 q 106 216 154 113 q 58 444 58 319 q 117 697 58 582 q 276 878 175 811 q 496 944 376 944 q 694 913 610 944 q 818 833 778 882 q 847 757 842 804 q 853 624 853 710 l 822 624 q 538 888 771 888 q 301 783 390 888 q 213 444 213 679 q 247 240 213 335 q 354 88 281 146 q 538 29 428 29 q 850 225 733 29 l 883 200 z "},"È":{"ha":824,"x_min":22,"x_max":786,"o":"m 143 746 q 124 851 143 817 q 46 885 104 885 l 22 885 l 22 917 l 619 917 q 738 806 738 917 l 738 697 l 706 697 q 532 860 706 860 l 283 860 l 283 501 l 654 501 l 654 444 l 283 444 l 283 57 l 525 57 q 669 92 615 57 q 756 211 722 128 l 786 203 l 740 76 q 701 19 726 39 q 632 0 676 0 l 143 0 l 143 746 m 271 1157 l 411 1157 l 468 972 l 407 972 l 271 1157 z "},"É":{"ha":824,"x_min":22,"x_max":786,"o":"m 143 746 q 124 851 143 817 q 46 885 104 885 l 22 885 l 22 917 l 619 917 q 738 806 738 917 l 738 697 l 706 697 q 532 860 706 860 l 283 860 l 283 501 l 654 501 l 654 444 l 283 444 l 283 57 l 525 57 q 669 92 615 57 q 756 211 722 128 l 786 203 l 740 76 q 701 19 726 39 q 632 0 676 0 l 143 0 l 143 746 m 442 1157 l 582 1157 l 446 972 l 385 972 l 442 1157 z "},"Ê":{"ha":824,"x_min":22,"x_max":786,"o":"m 143 746 q 124 851 143 817 q 46 885 104 885 l 22 885 l 22 917 l 619 917 q 738 806 738 917 l 738 697 l 706 697 q 532 860 706 860 l 283 860 l 283 501 l 654 501 l 654 444 l 283 444 l 283 57 l 525 57 q 669 92 615 57 q 756 211 722 128 l 786 203 l 740 76 q 701 19 726 39 q 632 0 676 0 l 143 0 l 143 746 m 339 1165 l 499 1165 l 610 1001 l 538 1001 l 419 1113 l 301 1001 l 228 1001 l 339 1165 z "},"Ë":{"ha":824,"x_min":22,"x_max":786,"o":"m 143 746 q 124 851 143 817 q 46 885 104 885 l 22 885 l 22 917 l 619 917 q 738 806 738 917 l 738 697 l 706 697 q 532 860 706 860 l 283 860 l 283 501 l 654 501 l 654 444 l 283 444 l 283 57 l 525 57 q 669 92 615 57 q 756 211 722 128 l 786 203 l 740 76 q 701 19 726 39 q 632 0 676 0 l 143 0 l 143 746 m 307 1014 q 259 1033 278 1014 q 240 1081 240 1053 q 259 1128 240 1108 q 307 1147 278 1147 q 355 1128 336 1147 q 374 1081 374 1108 q 355 1033 374 1053 q 307 1014 336 1014 m 547 1014 q 499 1033 518 1014 q 481 1081 481 1053 q 499 1128 481 1108 q 547 1147 518 1147 q 594 1128 575 1147 q 614 1081 614 1108 q 594 1033 614 1053 q 547 1014 575 1014 z "},"Ì":{"ha":403,"x_min":38,"x_max":381,"o":"m 244 0 q 168 14 194 0 q 131 64 142 28 q 119 171 119 100 l 119 917 l 260 917 l 260 171 q 279 66 260 100 q 357 32 299 32 l 381 32 l 381 0 l 244 0 m 38 1157 l 178 1157 l 235 972 l 174 972 l 38 1157 z "},"Í":{"ha":403,"x_min":119,"x_max":381,"o":"m 244 0 q 168 14 194 0 q 131 64 142 28 q 119 171 119 100 l 119 917 l 260 917 l 260 171 q 279 66 260 100 q 357 32 299 32 l 381 32 l 381 0 l 244 0 m 210 1157 l 350 1157 l 214 972 l 153 972 l 210 1157 z "},"Î":{"ha":403,"x_min":-1,"x_max":381,"o":"m 244 0 q 168 14 194 0 q 131 64 142 28 q 119 171 119 100 l 119 917 l 260 917 l 260 171 q 279 66 260 100 q 357 32 299 32 l 381 32 l 381 0 l 244 0 m 110 1129 l 269 1129 l 381 965 l 308 965 l 190 1076 l 72 965 l -1 965 l 110 1129 z "},"Ï":{"ha":403,"x_min":8,"x_max":381,"o":"m 81 993 q 28 1013 47 993 q 8 1065 8 1033 q 28 1117 8 1097 q 81 1136 47 1136 q 133 1117 114 1136 q 153 1065 153 1097 q 133 1013 153 1033 q 81 993 114 993 m 299 993 q 247 1013 265 993 q 228 1065 228 1032 q 247 1117 228 1097 q 299 1136 265 1136 q 351 1117 332 1136 q 371 1065 371 1097 q 351 1013 371 1033 q 299 993 332 993 m 244 0 q 168 14 194 0 q 131 64 142 28 q 119 171 119 100 l 119 917 l 260 917 l 260 171 q 279 66 260 100 q 357 32 299 32 l 381 32 l 381 0 l 244 0 z "},"Ð":{"ha":1000,"x_min":22,"x_max":943,"o":"m 143 429 l 40 429 l 40 488 l 143 488 l 143 746 q 124 851 143 817 q 46 885 104 885 l 22 885 l 22 917 l 389 917 q 802 797 661 917 q 943 464 943 678 q 884 222 943 326 q 708 58 825 117 q 425 0 592 0 l 143 0 l 143 429 m 421 50 q 603 100 522 50 q 731 242 685 150 q 776 458 776 335 q 731 672 776 579 q 603 816 685 765 q 418 867 522 867 q 286 847 358 867 l 286 488 l 403 488 l 403 429 l 286 429 l 286 67 q 421 50 360 50 z "},"Ñ":{"ha":954,"x_min":11,"x_max":840,"o":"m 207 718 l 207 0 l 149 0 l 149 750 q 120 850 149 815 q 24 885 92 885 l 11 885 l 11 917 l 103 917 q 217 896 171 917 q 297 833 264 875 l 781 242 l 781 917 l 840 917 l 840 -11 l 803 -11 l 207 718 m 328 964 q 349 1067 328 1038 q 414 1097 371 1097 q 452 1090 435 1097 q 492 1067 469 1082 q 527 1048 514 1054 q 556 1042 540 1042 q 585 1060 572 1042 q 599 1097 599 1079 l 644 1097 q 623 994 644 1024 q 558 964 601 964 q 522 972 538 964 q 482 993 506 979 q 448 1013 463 1007 q 417 1019 433 1019 q 387 1001 400 1019 q 374 964 374 982 l 328 964 z "},"Ò":{"ha":996,"x_min":61,"x_max":936,"o":"m 499 -28 q 269 36 368 -28 q 115 211 169 100 q 61 458 61 322 q 115 706 61 594 q 269 881 169 817 q 499 944 368 944 q 728 881 629 944 q 882 706 828 817 q 936 458 936 594 q 882 211 936 322 q 728 36 828 100 q 499 -28 629 -28 m 499 29 q 708 144 632 29 q 783 458 783 258 q 708 773 783 658 q 499 888 632 888 q 290 773 365 888 q 214 458 214 658 q 290 144 214 258 q 499 29 365 29 m 339 1190 l 479 1190 l 536 1006 l 475 1006 l 339 1190 z "},"Ó":{"ha":996,"x_min":61,"x_max":936,"o":"m 499 -28 q 269 36 368 -28 q 115 211 169 100 q 61 458 61 322 q 115 706 61 594 q 269 881 169 817 q 499 944 368 944 q 728 881 629 944 q 882 706 828 817 q 936 458 936 594 q 882 211 936 322 q 728 36 828 100 q 499 -28 629 -28 m 499 29 q 708 144 632 29 q 783 458 783 258 q 708 773 783 658 q 499 888 632 888 q 290 773 365 888 q 214 458 214 658 q 290 144 214 258 q 499 29 365 29 m 524 1186 l 664 1186 l 528 1001 l 467 1001 l 524 1186 z "},"Ô":{"ha":996,"x_min":61,"x_max":936,"o":"m 499 -28 q 269 36 368 -28 q 115 211 169 100 q 61 458 61 322 q 115 706 61 594 q 269 881 169 817 q 499 944 368 944 q 728 881 629 944 q 882 706 828 817 q 936 458 936 594 q 882 211 936 322 q 728 36 828 100 q 499 -28 629 -28 m 499 29 q 708 144 632 29 q 783 458 783 258 q 708 773 783 658 q 499 888 632 888 q 290 773 365 888 q 214 458 214 658 q 290 144 214 258 q 499 29 365 29 m 413 1168 l 572 1168 l 683 1004 l 611 1004 l 493 1115 l 375 1004 l 301 1004 l 413 1168 z "},"Õ":{"ha":996,"x_min":61,"x_max":936,"o":"m 499 -28 q 269 36 368 -28 q 115 211 169 100 q 61 458 61 322 q 115 706 61 594 q 269 881 169 817 q 499 944 368 944 q 728 881 629 944 q 882 706 828 817 q 936 458 936 594 q 882 211 936 322 q 728 36 828 100 q 499 -28 629 -28 m 499 29 q 708 144 632 29 q 783 458 783 258 q 708 773 783 658 q 499 888 632 888 q 290 773 365 888 q 214 458 214 658 q 290 144 214 258 q 499 29 365 29 m 339 1025 q 360 1128 339 1099 q 425 1158 382 1158 q 463 1151 446 1158 q 503 1128 481 1143 q 538 1109 525 1115 q 567 1103 551 1103 q 597 1122 583 1103 q 610 1158 610 1140 l 656 1158 q 634 1055 656 1085 q 569 1025 613 1025 q 533 1033 549 1025 q 493 1054 517 1040 q 459 1074 474 1068 q 428 1081 444 1081 q 398 1062 411 1081 q 385 1025 385 1043 l 339 1025 z "},"Ö":{"ha":996,"x_min":61,"x_max":936,"o":"m 499 -28 q 269 36 368 -28 q 115 211 169 100 q 61 458 61 322 q 115 706 61 594 q 269 881 169 817 q 499 944 368 944 q 728 881 629 944 q 882 706 828 817 q 936 458 936 594 q 882 211 936 322 q 728 36 828 100 q 499 -28 629 -28 m 499 29 q 708 144 632 29 q 783 458 783 258 q 708 773 783 658 q 499 888 632 888 q 290 773 365 888 q 214 458 214 658 q 290 144 214 258 q 499 29 365 29 m 394 1021 q 347 1040 365 1021 q 328 1088 328 1060 q 347 1135 328 1115 q 394 1154 365 1154 q 442 1135 424 1154 q 461 1088 461 1115 q 442 1040 461 1060 q 394 1021 424 1021 m 635 1021 q 587 1040 606 1021 q 568 1088 568 1060 q 587 1135 568 1115 q 635 1154 606 1154 q 682 1135 663 1154 q 701 1088 701 1115 q 682 1040 701 1060 q 635 1021 663 1021 z "},"×":{"ha":658,"x_min":68,"x_max":592,"o":"m 68 268 l 263 463 l 68 658 l 135 725 l 331 529 l 525 725 l 592 658 l 396 463 l 590 267 l 525 201 l 329 397 l 133 201 l 68 268 z "},"Ø":{"ha":996,"x_min":0,"x_max":0,"o":""},"Ù":{"ha":957,"x_min":17,"x_max":853,"o":"m 494 -14 q 217 86 300 -14 q 135 397 135 186 l 135 746 q 116 849 135 815 q 42 885 97 883 l 17 885 l 17 917 l 150 917 q 226 903 200 917 q 264 853 253 889 q 275 746 275 817 l 275 356 q 332 123 275 203 q 514 43 389 43 q 730 126 667 43 q 793 397 793 210 l 793 917 l 853 917 l 853 397 q 821 167 853 256 q 710 32 789 78 q 494 -14 632 -14 m 371 1129 l 511 1129 l 568 944 l 507 944 l 371 1129 z "},"Ú":{"ha":957,"x_min":17,"x_max":853,"o":"m 494 -14 q 217 86 300 -14 q 135 397 135 186 l 135 746 q 116 849 135 815 q 42 885 97 883 l 17 885 l 17 917 l 150 917 q 226 903 200 917 q 264 853 253 889 q 275 746 275 817 l 275 356 q 332 123 275 203 q 514 43 389 43 q 730 126 667 43 q 793 397 793 210 l 793 917 l 853 917 l 853 397 q 821 167 853 256 q 710 32 789 78 q 494 -14 632 -14 m 517 1129 l 657 1129 l 521 944 l 460 944 l 517 1129 z "},"Û":{"ha":957,"x_min":17,"x_max":853,"o":"m 494 -14 q 217 86 300 -14 q 135 397 135 186 l 135 746 q 116 849 135 815 q 42 885 97 883 l 17 885 l 17 917 l 150 917 q 226 903 200 917 q 264 853 253 889 q 275 746 275 817 l 275 356 q 332 123 275 203 q 514 43 389 43 q 730 126 667 43 q 793 397 793 210 l 793 917 l 853 917 l 853 397 q 821 167 853 256 q 710 32 789 78 q 494 -14 632 -14 m 444 1100 l 604 1100 l 715 936 l 643 936 l 525 1047 l 407 936 l 333 936 l 444 1100 z "},"Ü":{"ha":957,"x_min":17,"x_max":853,"o":"m 494 -14 q 217 86 300 -14 q 135 397 135 186 l 135 746 q 116 849 135 815 q 42 885 97 883 l 17 885 l 17 917 l 150 917 q 226 903 200 917 q 264 853 253 889 q 275 746 275 817 l 275 356 q 332 123 275 203 q 514 43 389 43 q 730 126 667 43 q 793 397 793 210 l 793 917 l 853 917 l 853 397 q 821 167 853 256 q 710 32 789 78 q 494 -14 632 -14 m 400 943 q 352 963 371 943 q 333 1010 333 982 q 352 1057 333 1038 q 400 1076 371 1076 q 448 1057 429 1076 q 467 1010 467 1038 q 448 963 467 982 q 400 943 429 943 m 640 943 q 592 963 611 943 q 574 1010 574 982 q 592 1057 574 1038 q 640 1076 611 1076 q 688 1057 668 1076 q 707 1010 707 1038 q 688 963 707 982 q 640 943 668 943 z "},"Ý":{"ha":876,"x_min":-37,"x_max":861,"o":"m 399 376 l 160 736 q 67 847 110 808 q -37 889 24 885 l -37 917 l 94 917 q 215 875 165 917 q 308 764 264 833 l 506 458 l 792 917 l 861 917 l 539 393 l 539 0 l 399 0 l 399 376 m 496 1115 l 636 1115 l 500 931 l 439 931 l 496 1115 z "},"Þ":{"ha":750,"x_min":25,"x_max":717,"o":"m 147 819 q 126 901 147 876 q 50 926 104 926 l 25 926 l 25 958 l 161 958 q 260 928 233 958 q 286 819 286 899 l 286 764 q 608 681 499 763 q 717 438 717 599 q 608 194 717 276 q 286 111 499 113 l 286 -42 l 147 -42 l 147 819 m 286 168 q 496 242 428 169 q 564 438 564 314 q 496 633 564 561 q 286 706 428 704 l 286 168 z "},"ß":{"ha":776,"x_min":96,"x_max":742,"o":"m 529 -14 q 428 1 475 -14 q 356 42 382 15 q 327 92 333 64 q 321 157 321 119 l 353 157 q 400 78 358 113 q 501 43 442 43 q 581 70 551 43 q 610 139 610 97 q 577 219 610 188 q 479 293 544 251 q 399 347 429 324 q 349 406 369 371 q 328 486 328 440 q 349 572 328 540 q 413 640 371 604 q 467 698 449 672 q 485 764 485 724 q 454 845 485 817 q 367 874 424 874 q 267 833 300 874 q 235 694 235 793 l 235 0 l 96 0 l 96 694 q 169 880 96 829 q 374 931 243 931 q 554 893 492 931 q 617 792 617 856 q 594 705 617 738 q 528 633 572 672 q 472 576 490 600 q 454 514 454 551 q 488 433 454 465 q 588 360 521 401 q 668 306 638 329 q 720 247 699 282 q 742 167 742 213 q 683 31 742 76 q 529 -14 624 -14 z "},"à":{"ha":674,"x_min":50,"x_max":586,"o":"m 261 -14 q 113 34 176 -14 q 50 179 50 82 q 144 330 50 283 q 410 376 239 376 l 446 376 q 410 559 446 508 q 304 610 374 610 q 208 583 244 610 q 156 489 171 556 l 89 489 q 94 565 89 536 q 124 618 100 594 q 205 655 149 643 q 332 667 261 667 q 519 603 451 667 q 586 375 586 539 l 586 0 l 504 0 l 456 63 l 449 63 q 376 8 424 31 q 261 -14 329 -14 m 318 50 q 446 136 399 50 l 446 319 l 410 319 q 252 283 307 319 q 197 179 197 246 q 231 83 197 117 q 318 50 265 50 m 168 914 l 308 914 l 365 729 l 304 729 l 168 914 z "},"á":{"ha":674,"x_min":50,"x_max":586,"o":"m 261 -14 q 113 34 176 -14 q 50 179 50 82 q 144 330 50 283 q 410 376 239 376 l 446 376 q 410 559 446 508 q 304 610 374 610 q 208 583 244 610 q 156 489 171 556 l 89 489 q 94 565 89 536 q 124 618 100 594 q 205 655 149 643 q 332 667 261 667 q 519 603 451 667 q 586 375 586 539 l 586 0 l 504 0 l 456 63 l 449 63 q 376 8 424 31 q 261 -14 329 -14 m 318 50 q 446 136 399 50 l 446 319 l 410 319 q 252 283 307 319 q 197 179 197 246 q 231 83 197 117 q 318 50 265 50 m 336 914 l 476 914 l 340 729 l 279 729 l 336 914 z "},"â":{"ha":674,"x_min":50,"x_max":586,"o":"m 261 -14 q 113 34 176 -14 q 50 179 50 82 q 144 330 50 283 q 410 376 239 376 l 446 376 q 410 559 446 508 q 304 610 374 610 q 208 583 244 610 q 156 489 171 556 l 89 489 q 94 565 89 536 q 124 618 100 594 q 205 655 149 643 q 332 667 261 667 q 519 603 451 667 q 586 375 586 539 l 586 0 l 504 0 l 456 63 l 449 63 q 376 8 424 31 q 261 -14 329 -14 m 318 50 q 446 136 399 50 l 446 319 l 410 319 q 252 283 307 319 q 197 179 197 246 q 231 83 197 117 q 318 50 265 50 m 257 900 l 417 900 l 528 736 l 456 736 l 338 847 l 219 736 l 146 736 l 257 900 z "},"ã":{"ha":674,"x_min":50,"x_max":586,"o":"m 261 -14 q 113 34 176 -14 q 50 179 50 82 q 144 330 50 283 q 410 376 239 376 l 446 376 q 410 559 446 508 q 304 610 374 610 q 208 583 244 610 q 156 489 171 556 l 89 489 q 94 565 89 536 q 124 618 100 594 q 205 655 149 643 q 332 667 261 667 q 519 603 451 667 q 586 375 586 539 l 586 0 l 504 0 l 456 63 l 449 63 q 376 8 424 31 q 261 -14 329 -14 m 318 50 q 446 136 399 50 l 446 319 l 410 319 q 252 283 307 319 q 197 179 197 246 q 231 83 197 117 q 318 50 265 50 m 172 743 q 194 847 172 817 q 258 876 215 876 q 297 869 279 876 q 336 846 314 861 q 372 827 358 833 q 400 821 385 821 q 430 840 417 821 q 443 876 443 858 l 489 876 q 467 773 489 803 q 403 743 446 743 q 366 751 382 743 q 326 772 350 758 q 292 792 307 786 q 261 799 278 799 q 231 780 244 799 q 218 743 218 761 l 172 743 z "},"ä":{"ha":674,"x_min":50,"x_max":586,"o":"m 261 -14 q 113 34 176 -14 q 50 179 50 82 q 144 330 50 283 q 410 376 239 376 l 446 376 q 410 559 446 508 q 304 610 374 610 q 208 583 244 610 q 156 489 171 556 l 89 489 q 94 565 89 536 q 124 618 100 594 q 205 655 149 643 q 332 667 261 667 q 519 603 451 667 q 586 375 586 539 l 586 0 l 504 0 l 456 63 l 449 63 q 376 8 424 31 q 261 -14 329 -14 m 318 50 q 446 136 399 50 l 446 319 l 410 319 q 252 283 307 319 q 197 179 197 246 q 231 83 197 117 q 318 50 265 50 m 215 743 q 167 763 186 743 q 149 810 149 782 q 167 857 149 838 q 215 876 186 876 q 263 857 244 876 q 282 810 282 838 q 263 763 282 782 q 215 743 244 743 m 456 743 q 408 763 426 743 q 389 810 389 782 q 408 857 389 838 q 456 876 426 876 q 503 857 483 876 q 522 810 522 838 q 503 763 522 782 q 456 743 483 743 z "},"å":{"ha":674,"x_min":50,"x_max":586,"o":"m 261 -14 q 113 34 176 -14 q 50 179 50 82 q 144 330 50 283 q 410 376 239 376 l 446 376 q 410 559 446 508 q 304 610 374 610 q 208 583 244 610 q 156 489 171 556 l 89 489 q 94 565 89 536 q 124 618 100 594 q 205 655 149 643 q 332 667 261 667 q 519 603 451 667 q 586 375 586 539 l 586 0 l 504 0 l 456 63 l 449 63 q 376 8 424 31 q 261 -14 329 -14 m 318 50 q 446 136 399 50 l 446 319 l 410 319 q 252 283 307 319 q 197 179 197 246 q 231 83 197 117 q 318 50 265 50 m 329 732 q 243 768 279 732 q 207 854 207 804 q 243 940 207 904 q 329 976 279 976 q 415 940 379 976 q 450 854 450 904 q 415 768 450 804 q 329 732 379 732 m 329 785 q 374 803 356 785 q 392 854 392 822 q 374 905 392 886 q 329 924 356 924 q 285 905 303 924 q 267 854 267 886 q 285 803 267 822 q 329 785 303 785 z "},"æ":{"ha":1067,"x_min":0,"x_max":0,"o":""},"ç":{"ha":675,"x_min":60,"x_max":632,"o":"m 632 132 q 534 28 592 64 q 396 -14 476 -8 l 396 -62 q 489 -89 457 -62 q 521 -165 521 -115 q 489 -242 521 -214 q 407 -269 457 -269 l 319 -269 l 319 -210 l 389 -210 q 430 -198 415 -210 q 444 -165 444 -186 q 430 -131 444 -143 q 389 -119 415 -119 l 326 -119 l 326 -11 q 128 97 196 4 q 60 326 60 190 q 94 499 60 422 q 200 622 129 576 q 372 667 271 667 q 576 618 528 667 q 606 559 600 594 q 611 433 611 524 l 581 433 q 526 565 575 519 q 399 610 478 610 q 255 533 304 610 q 206 326 206 456 q 254 119 206 196 q 400 43 303 43 q 515 71 469 43 q 600 156 561 99 l 632 132 z "},"è":{"ha":685,"x_min":60,"x_max":629,"o":"m 358 -14 q 197 31 264 -14 q 94 153 129 76 q 60 326 60 231 q 95 502 60 425 q 195 623 131 579 q 344 667 260 667 q 556 589 482 667 q 629 368 629 511 l 626 304 l 206 304 q 253 113 206 183 q 385 43 301 43 q 496 72 450 43 q 581 156 542 100 l 611 132 q 506 23 568 60 q 358 -14 444 -14 m 483 363 q 344 610 483 610 q 245 542 285 610 q 206 363 206 475 l 483 363 m 185 914 l 325 914 l 382 729 l 321 729 l 185 914 z "},"é":{"ha":685,"x_min":60,"x_max":629,"o":"m 358 -14 q 197 31 264 -14 q 94 153 129 76 q 60 326 60 231 q 95 502 60 425 q 195 623 131 579 q 344 667 260 667 q 556 589 482 667 q 629 368 629 511 l 626 304 l 206 304 q 253 113 206 183 q 385 43 301 43 q 496 72 450 43 q 581 156 542 100 l 611 132 q 506 23 568 60 q 358 -14 444 -14 m 483 363 q 344 610 483 610 q 245 542 285 610 q 206 363 206 475 l 483 363 m 361 913 l 501 913 l 365 728 l 304 728 l 361 913 z "},"ê":{"ha":685,"x_min":60,"x_max":629,"o":"m 358 -14 q 197 31 264 -14 q 94 153 129 76 q 60 326 60 231 q 95 502 60 425 q 195 623 131 579 q 344 667 260 667 q 556 589 482 667 q 629 368 629 511 l 626 304 l 206 304 q 253 113 206 183 q 385 43 301 43 q 496 72 450 43 q 581 156 542 100 l 611 132 q 506 23 568 60 q 358 -14 444 -14 m 483 363 q 344 610 483 610 q 245 542 285 610 q 206 363 206 475 l 483 363 m 269 899 l 429 899 l 540 736 l 468 736 l 350 847 l 232 736 l 158 736 l 269 899 z "},"ë":{"ha":685,"x_min":60,"x_max":629,"o":"m 358 -14 q 197 31 264 -14 q 94 153 129 76 q 60 326 60 231 q 95 502 60 425 q 195 623 131 579 q 344 667 260 667 q 556 589 482 667 q 629 368 629 511 l 626 304 l 206 304 q 253 113 206 183 q 385 43 301 43 q 496 72 450 43 q 581 156 542 100 l 611 132 q 506 23 568 60 q 358 -14 444 -14 m 483 363 q 344 610 483 610 q 245 542 285 610 q 206 363 206 475 l 483 363 m 218 753 q 170 772 189 753 q 151 819 151 792 q 170 867 151 847 q 218 886 189 886 q 266 867 247 886 q 285 819 285 847 q 266 772 285 792 q 218 753 247 753 m 458 753 q 410 772 429 753 q 392 819 392 792 q 410 867 392 847 q 458 886 429 886 q 506 867 486 886 q 525 819 525 847 q 506 772 525 792 q 458 753 486 753 z "},"ì":{"ha":349,"x_min":-3,"x_max":257,"o":"m 118 482 q 99 587 118 553 q 21 621 79 621 l -3 621 l -3 653 l 132 653 q 208 639 182 653 q 246 589 235 625 q 257 482 257 553 l 257 0 l 118 0 l 118 482 m 26 914 l 167 914 l 224 729 l 163 729 l 26 914 z "},"í":{"ha":349,"x_min":-3,"x_max":328,"o":"m 118 482 q 99 587 118 553 q 21 621 79 621 l -3 621 l -3 653 l 132 653 q 208 639 182 653 q 246 589 235 625 q 257 482 257 553 l 257 0 l 118 0 l 118 482 m 188 914 l 328 914 l 192 729 l 131 729 l 188 914 z "},"î":{"ha":349,"x_min":-15,"x_max":367,"o":"m 118 482 q 99 587 118 553 q 21 621 79 621 l -3 621 l -3 653 l 132 653 q 208 639 182 653 q 246 589 235 625 q 257 482 257 553 l 257 0 l 118 0 l 118 482 m 96 901 l 256 901 l 367 738 l 294 738 l 176 849 l 58 738 l -15 738 l 96 901 z "},"ï":{"ha":349,"x_min":-11,"x_max":365,"o":"m 74 747 q 13 774 36 747 q -11 842 -11 801 q 7 890 -11 872 q 56 907 25 907 q 117 880 93 907 q 140 814 140 853 q 122 765 140 783 q 74 747 103 747 m 299 747 q 238 774 261 747 q 214 842 214 801 q 232 890 214 872 q 281 907 250 907 q 342 880 318 907 q 365 814 365 853 q 347 765 365 783 q 299 747 328 747 m 118 482 q 99 587 118 553 q 21 621 79 621 l -3 621 l -3 653 l 132 653 q 208 639 182 653 q 246 589 235 625 q 257 482 257 553 l 257 0 l 118 0 l 118 482 z "},"ð":{"ha":753,"x_min":58,"x_max":683,"o":"m 371 -14 q 203 31 274 -14 q 95 154 132 76 q 58 326 58 232 q 95 499 58 421 q 202 622 132 576 q 368 667 272 667 q 477 638 429 667 q 551 556 525 608 q 513 683 536 631 q 456 776 490 736 l 397 718 l 353 763 l 411 821 q 344 865 379 851 q 260 878 310 878 q 196 869 218 878 l 182 900 q 308 931 226 931 q 472 876 399 931 l 524 935 l 569 890 l 518 839 q 640 645 596 764 q 683 375 683 526 q 601 91 683 196 q 371 -14 519 -14 m 371 43 q 457 79 419 43 q 516 180 494 115 q 538 326 538 244 q 492 528 538 446 q 371 610 446 610 q 250 528 296 610 q 204 326 204 446 q 226 180 204 244 q 285 79 247 115 q 371 43 322 43 z "},"ñ":{"ha":767,"x_min":-3,"x_max":678,"o":"m 118 482 q 99 587 118 553 q 21 621 79 621 l -3 621 l -3 653 l 125 653 q 203 640 175 653 q 243 599 231 626 q 435 667 324 667 q 678 415 678 667 l 678 0 l 539 0 l 539 415 q 497 557 539 511 q 392 603 456 603 q 258 539 319 603 l 258 0 l 118 0 l 118 482 m 238 756 q 259 859 238 829 q 324 889 281 889 q 362 881 344 889 q 401 858 379 874 q 437 840 424 846 q 465 833 450 833 q 495 852 482 833 q 508 889 508 871 l 554 889 q 533 785 554 815 q 468 756 511 756 q 431 763 447 756 q 392 785 415 771 q 358 805 372 799 q 326 811 343 811 q 297 792 310 811 q 283 756 283 774 l 238 756 z "},"ò":{"ha":744,"x_min":60,"x_max":685,"o":"m 372 -14 q 206 31 276 -14 q 97 153 135 76 q 60 326 60 231 q 97 499 60 422 q 206 622 135 576 q 372 667 276 667 q 539 622 468 667 q 647 499 610 576 q 685 326 685 422 q 647 153 685 231 q 539 31 610 76 q 372 -14 468 -14 m 372 43 q 493 124 447 43 q 539 326 539 204 q 493 529 539 449 q 372 610 447 610 q 251 529 297 610 q 206 326 206 449 q 251 124 206 204 q 372 43 297 43 m 219 914 l 360 914 l 417 729 l 356 729 l 219 914 z "},"ó":{"ha":744,"x_min":60,"x_max":685,"o":"m 372 -14 q 206 31 276 -14 q 97 153 135 76 q 60 326 60 231 q 97 499 60 422 q 206 622 135 576 q 372 667 276 667 q 539 622 468 667 q 647 499 610 576 q 685 326 685 422 q 647 153 685 231 q 539 31 610 76 q 372 -14 468 -14 m 372 43 q 493 124 447 43 q 539 326 539 204 q 493 529 539 449 q 372 610 447 610 q 251 529 297 610 q 206 326 206 449 q 251 124 206 204 q 372 43 297 43 m 381 913 l 521 913 l 385 728 l 324 728 l 381 913 z "},"ô":{"ha":744,"x_min":60,"x_max":685,"o":"m 372 -14 q 206 31 276 -14 q 97 153 135 76 q 60 326 60 231 q 97 499 60 422 q 206 622 135 576 q 372 667 276 667 q 539 622 468 667 q 647 499 610 576 q 685 326 685 422 q 647 153 685 231 q 539 31 610 76 q 372 -14 468 -14 m 372 43 q 493 124 447 43 q 539 326 539 204 q 493 529 539 449 q 372 610 447 610 q 251 529 297 610 q 206 326 206 449 q 251 124 206 204 q 372 43 297 43 m 293 892 l 453 892 l 564 728 l 492 728 l 374 839 l 256 728 l 182 728 l 293 892 z "},"õ":{"ha":744,"x_min":60,"x_max":685,"o":"m 372 -14 q 206 31 276 -14 q 97 153 135 76 q 60 326 60 231 q 97 499 60 422 q 206 622 135 576 q 372 667 276 667 q 539 622 468 667 q 647 499 610 576 q 685 326 685 422 q 647 153 685 231 q 539 31 610 76 q 372 -14 468 -14 m 372 43 q 493 124 447 43 q 539 326 539 204 q 493 529 539 449 q 372 610 447 610 q 251 529 297 610 q 206 326 206 449 q 251 124 206 204 q 372 43 297 43 m 214 743 q 235 847 214 817 q 300 876 257 876 q 338 869 321 876 q 378 846 356 861 q 413 827 400 833 q 442 821 426 821 q 472 840 458 821 q 485 876 485 858 l 531 876 q 509 773 531 803 q 444 743 488 743 q 408 751 424 743 q 368 772 392 758 q 334 792 349 786 q 303 799 319 799 q 273 780 286 799 q 260 743 260 761 l 214 743 z "},"ö":{"ha":744,"x_min":60,"x_max":685,"o":"m 372 -14 q 206 31 276 -14 q 97 153 135 76 q 60 326 60 231 q 97 499 60 422 q 206 622 135 576 q 372 667 276 667 q 539 622 468 667 q 647 499 610 576 q 685 326 685 422 q 647 153 685 231 q 539 31 610 76 q 372 -14 468 -14 m 372 43 q 493 124 447 43 q 539 326 539 204 q 493 529 539 449 q 372 610 447 610 q 251 529 297 610 q 206 326 206 449 q 251 124 206 204 q 372 43 297 43 m 253 743 q 205 763 224 743 q 186 810 186 782 q 205 857 186 838 q 253 876 224 876 q 301 857 282 876 q 319 810 319 838 q 301 763 319 782 q 253 743 282 743 m 493 743 q 445 763 464 743 q 426 810 426 782 q 445 857 426 838 q 493 876 464 876 q 540 857 521 876 q 560 810 560 838 q 540 763 560 782 q 493 743 521 743 z "},"÷":{"ha":778,"x_min":79,"x_max":699,"o":"m 389 590 q 341 610 360 590 q 322 657 322 629 q 341 704 322 685 q 389 724 360 724 q 437 704 418 724 q 456 657 456 685 q 437 610 456 629 q 389 590 418 590 m 79 501 l 699 501 l 699 415 l 79 415 l 79 501 m 389 193 q 341 213 360 193 q 322 260 322 232 q 341 307 322 288 q 389 326 360 326 q 437 307 418 326 q 456 260 456 288 q 437 213 456 232 q 389 193 418 193 z "},"ø":{"ha":744,"x_min":60,"x_max":685,"o":"m 372 -14 q 213 26 286 -14 l 196 0 l 88 0 l 144 82 q 81 190 103 128 q 60 326 60 253 q 97 499 60 422 q 206 622 135 576 q 372 667 276 667 q 531 626 458 667 l 549 653 l 657 653 l 599 571 q 663 462 640 525 q 685 326 685 399 q 647 153 685 231 q 539 31 610 76 q 372 -14 468 -14 m 478 551 q 372 610 432 610 q 251 529 297 610 q 206 326 206 449 q 224 193 206 251 l 478 551 m 372 43 q 493 124 447 43 q 539 326 539 204 q 519 460 539 397 l 267 101 q 372 43 310 43 z "},"ù":{"ha":754,"x_min":-11,"x_max":658,"o":"m 342 -14 q 100 238 100 -14 l 100 482 q 81 587 100 553 q 3 621 61 621 l -11 621 l -11 653 l 115 653 q 192 639 165 653 q 229 589 218 625 q 240 482 240 553 l 240 238 q 280 94 240 139 q 383 49 319 49 q 519 126 456 49 l 519 653 l 658 653 l 658 0 l 576 0 l 528 57 l 521 57 q 444 6 490 26 q 342 -14 399 -14 m 219 879 l 360 879 l 417 694 l 356 694 l 219 879 z "},"ú":{"ha":754,"x_min":-11,"x_max":658,"o":"m 342 -14 q 100 238 100 -14 l 100 482 q 81 587 100 553 q 3 621 61 621 l -11 621 l -11 653 l 115 653 q 192 639 165 653 q 229 589 218 625 q 240 482 240 553 l 240 238 q 280 94 240 139 q 383 49 319 49 q 519 126 456 49 l 519 653 l 658 653 l 658 0 l 576 0 l 528 57 l 521 57 q 444 6 490 26 q 342 -14 399 -14 m 390 879 l 531 879 l 394 694 l 333 694 l 390 879 z "},"û":{"ha":754,"x_min":-11,"x_max":658,"o":"m 342 -14 q 100 238 100 -14 l 100 482 q 81 587 100 553 q 3 621 61 621 l -11 621 l -11 653 l 115 653 q 192 639 165 653 q 229 589 218 625 q 240 482 240 553 l 240 238 q 280 94 240 139 q 383 49 319 49 q 519 126 456 49 l 519 653 l 658 653 l 658 0 l 576 0 l 528 57 l 521 57 q 444 6 490 26 q 342 -14 399 -14 m 289 899 l 449 899 l 560 736 l 488 736 l 369 847 l 251 736 l 178 736 l 289 899 z "},"ü":{"ha":754,"x_min":-11,"x_max":658,"o":"m 342 -14 q 100 238 100 -14 l 100 482 q 81 587 100 553 q 3 621 61 621 l -11 621 l -11 653 l 115 653 q 192 639 165 653 q 229 589 218 625 q 240 482 240 553 l 240 238 q 280 94 240 139 q 383 49 319 49 q 519 126 456 49 l 519 653 l 658 653 l 658 0 l 576 0 l 528 57 l 521 57 q 444 6 490 26 q 342 -14 399 -14 m 244 719 q 197 739 215 719 q 178 786 178 758 q 197 833 178 814 q 244 853 215 853 q 292 833 274 853 q 311 786 311 814 q 292 739 311 758 q 244 719 274 719 m 485 719 q 437 739 456 719 q 418 786 418 758 q 437 833 418 814 q 485 853 456 853 q 532 833 513 853 q 551 786 551 814 q 532 739 551 758 q 485 719 513 719 z "},"ý":{"ha":713,"x_min":-17,"x_max":676,"o":"m 142 -235 q 256 -204 211 -235 q 332 -92 301 -174 l 360 -15 l 131 528 q -17 639 90 628 l -17 667 l 103 667 q 207 638 164 667 q 274 556 250 608 l 432 181 l 606 653 l 676 653 l 403 -90 q 313 -238 363 -199 q 186 -278 264 -278 l 142 -278 l 142 -235 m 417 879 l 557 879 l 421 694 l 360 694 l 417 879 z "},"þ":{"ha":733,"x_min":-21,"x_max":672,"o":"m 96 746 q 76 851 96 817 q -1 885 57 885 l -21 885 l -21 917 l 110 917 q 186 903 160 917 q 224 853 213 889 q 235 746 235 817 l 235 597 q 415 667 296 667 q 606 572 539 667 q 672 326 672 476 q 603 81 672 175 q 401 -14 535 -14 q 235 24 315 -14 l 235 -264 l 96 -264 l 96 746 m 358 43 q 485 120 443 43 q 526 326 526 197 q 487 532 526 454 q 372 610 447 610 q 235 538 288 610 l 235 79 q 303 53 274 63 q 358 43 332 43 z "},"ÿ":{"ha":713,"x_min":-17,"x_max":676,"o":"m 142 -235 q 256 -204 211 -235 q 332 -92 301 -174 l 360 -15 l 131 528 q -17 639 90 628 l -17 667 l 103 667 q 207 638 164 667 q 274 556 250 608 l 432 181 l 606 653 l 676 653 l 403 -90 q 313 -238 363 -199 q 186 -278 264 -278 l 142 -278 l 142 -235 m 281 722 q 233 742 251 722 q 214 789 214 761 q 233 836 214 817 q 281 856 251 856 q 328 836 310 856 q 347 789 347 817 q 328 742 347 761 q 281 722 310 722 m 521 722 q 473 742 492 722 q 454 789 454 761 q 473 836 454 817 q 521 856 492 856 q 568 836 549 856 q 588 789 588 817 q 568 742 588 761 q 521 722 549 722 z "},"Ğ":{"ha":1006,"x_min":58,"x_max":985,"o":"m 538 -28 q 291 39 400 -28 q 120 219 182 106 q 58 472 58 333 q 113 712 58 604 q 266 882 167 819 q 496 944 365 944 q 703 913 617 944 q 829 833 789 882 q 859 758 853 804 q 865 644 865 713 l 833 644 q 735 828 807 768 q 538 888 663 888 q 353 829 426 888 q 245 676 279 771 q 211 472 211 582 q 300 132 211 236 q 538 28 389 28 q 654 40 606 28 q 746 74 703 51 l 746 317 q 793 435 746 390 q 985 481 840 481 l 985 451 q 906 419 926 451 q 885 319 885 388 l 885 61 q 725 -6 810 15 q 538 -28 640 -28 m 506 1014 q 321 1140 378 1014 l 351 1163 q 506 1099 403 1099 q 660 1163 608 1099 l 690 1140 q 506 1014 633 1014 z "},"ğ":{"ha":694,"x_min":32,"x_max":661,"o":"m 346 -278 q 117 -227 201 -278 q 32 -62 32 -176 q 78 49 32 3 q 193 118 124 96 q 136 200 136 146 q 149 244 136 228 q 186 274 163 260 q 106 344 138 296 q 74 456 74 392 q 346 667 74 667 l 613 667 l 613 631 l 513 617 q 589 549 558 592 q 619 456 619 506 q 346 246 619 246 q 238 235 274 246 q 203 200 203 225 q 346 154 203 154 q 573 99 485 153 q 661 -62 661 44 q 576 -227 661 -176 q 346 -278 492 -278 m 346 297 q 442 335 406 297 q 478 456 478 374 q 442 576 478 535 q 346 617 406 617 q 251 578 286 617 q 215 456 215 539 q 251 335 215 372 q 346 297 286 297 m 346 -221 q 473 -181 426 -221 q 519 -62 519 -142 q 478 45 519 6 q 360 96 438 85 l 286 103 q 203 41 232 81 q 174 -62 174 1 q 220 -181 174 -142 q 346 -221 267 -221 m 342 738 q 157 864 214 738 l 188 886 q 342 822 239 822 q 496 886 444 822 l 526 864 q 342 738 469 738 z "},"İ":{"ha":403,"x_min":110,"x_max":381,"o":"m 194 988 q 134 1015 158 988 q 110 1081 110 1042 q 128 1129 110 1111 q 178 1147 147 1147 q 238 1120 214 1147 q 261 1054 261 1093 q 243 1006 261 1024 q 194 988 225 988 m 244 0 q 168 14 194 0 q 131 64 142 28 q 119 171 119 100 l 119 917 l 260 917 l 260 171 q 279 66 260 100 q 357 32 299 32 l 381 32 l 381 0 l 244 0 z "},"ı":{"ha":349,"x_min":-3,"x_max":257,"o":"m 118 482 q 99 587 118 553 q 21 621 79 621 l -3 621 l -3 653 l 132 653 q 208 639 182 653 q 246 589 235 625 q 257 482 257 553 l 257 0 l 118 0 l 118 482 z "},"Œ":{"ha":1317,"x_min":61,"x_max":1281,"o":"m 499 -28 q 269 36 368 -28 q 115 211 169 100 q 61 458 61 322 q 115 706 61 594 q 269 881 169 817 q 499 944 368 944 q 653 917 585 944 l 1113 917 q 1231 806 1231 917 l 1231 697 l 1200 697 q 1026 860 1200 860 l 776 860 l 776 501 l 1147 501 l 1147 444 l 776 444 l 776 57 l 1018 57 q 1163 92 1108 57 q 1250 211 1217 128 l 1281 203 l 1233 76 q 1194 19 1219 39 q 1125 0 1169 0 l 653 0 q 499 -28 588 -28 m 499 29 q 638 71 576 29 l 638 847 q 499 888 576 888 q 290 773 365 888 q 214 458 214 658 q 290 144 214 258 q 499 29 365 29 z "},"œ":{"ha":1125,"x_min":0,"x_max":0,"o":""},"Ş":{"ha":750,"x_min":72,"x_max":693,"o":"m 693 233 q 615 49 693 118 q 400 -24 536 -21 l 400 -60 q 493 -86 461 -60 q 525 -162 525 -112 q 493 -239 525 -211 q 411 -267 461 -267 l 324 -267 l 324 -207 l 393 -207 q 434 -195 419 -207 q 449 -162 449 -183 q 434 -128 449 -140 q 393 -117 419 -117 l 331 -117 l 331 -21 q 149 35 225 -10 q 72 144 72 81 l 72 297 l 101 297 q 192 96 124 158 q 379 33 260 33 q 507 70 456 33 q 558 174 558 107 q 523 274 558 232 q 408 363 488 317 l 238 464 q 110 572 147 517 q 72 706 72 628 q 149 877 72 813 q 353 942 226 942 q 497 922 426 942 q 612 863 567 901 q 657 775 657 825 l 657 622 l 628 622 q 539 823 604 761 q 357 885 474 885 q 243 846 290 885 q 196 746 196 807 q 231 653 196 690 q 347 567 265 617 l 518 465 q 653 359 613 410 q 693 233 693 308 z "},"ş":{"ha":628,"x_min":64,"x_max":572,"o":"m 572 168 q 507 38 572 86 q 336 -14 442 -10 l 336 -42 q 429 -68 397 -42 q 461 -144 461 -94 q 429 -221 461 -193 q 347 -249 397 -249 l 260 -249 l 260 -189 l 329 -189 q 370 -177 356 -189 q 385 -144 385 -165 q 370 -110 385 -122 q 329 -99 356 -99 l 267 -99 l 267 -12 q 100 42 149 -4 q 72 97 78 65 q 67 193 67 129 l 100 193 q 159 83 113 122 q 290 43 206 43 q 402 69 365 43 q 439 140 439 96 q 408 208 439 181 q 314 261 378 235 l 233 296 q 106 375 149 331 q 64 485 64 419 q 130 619 64 571 q 303 667 196 667 q 515 611 457 667 q 544 556 539 588 q 550 460 550 525 l 517 460 q 458 570 504 531 q 331 610 411 610 q 232 583 267 610 q 197 513 197 556 q 304 399 197 444 l 388 364 q 528 280 483 324 q 572 168 572 236 z "},"Š":{"ha":750,"x_min":72,"x_max":693,"o":"m 389 -24 q 238 -3 311 -24 q 119 56 165 18 q 72 144 72 94 l 72 297 l 101 297 q 192 96 124 158 q 379 33 260 33 q 507 70 456 33 q 558 174 558 107 q 523 274 558 232 q 408 363 488 317 l 238 464 q 110 572 147 517 q 72 706 72 628 q 149 877 72 813 q 353 942 226 942 q 497 922 426 942 q 612 863 567 901 q 657 775 657 825 l 657 622 l 628 622 q 539 823 604 761 q 357 885 474 885 q 243 846 290 885 q 196 746 196 807 q 231 653 196 690 q 347 567 265 617 l 518 465 q 653 359 613 410 q 693 233 693 308 q 612 46 693 115 q 389 -24 531 -24 m 167 1164 l 243 1164 l 358 1053 l 472 1164 l 549 1164 l 438 1000 l 278 1000 l 167 1164 z "},"š":{"ha":628,"x_min":64,"x_max":572,"o":"m 318 -14 q 100 42 158 -14 q 72 97 78 65 q 67 193 67 129 l 100 193 q 159 83 113 122 q 290 43 206 43 q 402 69 365 43 q 439 140 439 96 q 408 208 439 181 q 314 261 378 235 l 233 296 q 106 375 149 331 q 64 485 64 419 q 130 619 64 571 q 303 667 196 667 q 515 611 457 667 q 544 556 539 588 q 550 460 550 525 l 517 460 q 458 570 504 531 q 331 610 411 610 q 232 583 267 610 q 197 513 197 556 q 304 399 197 444 l 388 364 q 528 280 483 324 q 572 168 572 236 q 501 34 572 82 q 318 -14 431 -14 m 108 886 l 185 886 l 300 775 l 414 886 l 490 886 l 379 722 l 219 722 l 108 886 z "},"Ÿ":{"ha":876,"x_min":-37,"x_max":861,"o":"m 399 376 l 160 736 q 67 847 110 808 q -37 889 24 885 l -37 917 l 94 917 q 215 875 165 917 q 308 764 264 833 l 506 458 l 792 917 l 861 917 l 539 393 l 539 0 l 399 0 l 399 376 m 369 958 q 317 978 336 958 q 299 1031 299 997 q 317 1082 299 1063 q 369 1101 336 1101 q 422 1082 403 1101 q 442 1031 442 1063 q 422 978 442 999 q 369 958 403 958 m 606 958 q 553 978 572 958 q 535 1031 535 997 q 553 1082 535 1063 q 606 1101 572 1101 q 658 1082 639 1101 q 678 1031 678 1063 q 658 978 678 999 q 606 958 639 958 z "},"Ž":{"ha":824,"x_min":36,"x_max":800,"o":"m 36 32 l 597 860 l 272 860 q 101 697 101 860 l 71 697 l 71 806 q 189 917 71 917 l 800 917 l 221 57 l 782 57 l 782 0 l 36 0 l 36 32 m 239 1150 l 315 1150 l 431 1039 l 544 1150 l 621 1150 l 510 986 l 350 986 l 239 1150 z "},"ž":{"ha":657,"x_min":60,"x_max":619,"o":"m 60 31 l 421 596 l 261 596 q 90 468 90 596 l 60 468 l 60 542 q 178 653 60 653 l 619 653 l 239 57 l 613 57 l 613 0 l 60 0 l 60 31 m 151 886 l 228 886 l 343 775 l 457 886 l 533 886 l 422 722 l 263 722 l 151 886 z "},"ƒ":{"ha":324,"x_min":0,"x_max":0,"o":""},"ˆ":{"ha":438,"x_min":28,"x_max":410,"o":"m 139 1081 l 299 1081 l 410 917 l 338 917 l 219 1028 l 101 917 l 28 917 l 139 1081 z "},"ˇ":{"ha":397,"x_min":7,"x_max":389,"o":"m 7 886 l 83 886 l 199 775 l 313 886 l 389 886 l 278 722 l 118 722 l 7 886 z "},"˘":{"ha":383,"x_min":7,"x_max":376,"o":"m 192 719 q 81 751 128 719 q 7 836 35 782 l 38 858 q 101 815 65 831 q 192 800 136 800 q 283 815 247 800 q 346 858 318 831 l 376 836 q 302 751 349 782 q 192 719 256 719 z "},"˚":{"ha":258,"x_min":7,"x_max":250,"o":"m 129 732 q 43 768 79 732 q 7 854 7 804 q 43 940 7 904 q 129 976 79 976 q 215 940 179 976 q 250 854 250 904 q 215 768 250 804 q 129 732 179 732 m 129 785 q 174 803 156 785 q 192 854 192 822 q 174 905 192 886 q 129 924 156 924 q 85 905 103 924 q 67 854 67 886 q 85 803 67 822 q 129 785 103 785 z "},"˜":{"ha":372,"x_min":28,"x_max":344,"o":"m 28 944 q 49 1048 28 1018 q 114 1078 71 1078 q 152 1070 135 1078 q 192 1047 169 1063 q 227 1028 214 1035 q 256 1022 240 1022 q 285 1041 272 1022 q 299 1078 299 1060 l 344 1078 q 323 974 344 1004 q 258 944 301 944 q 222 952 238 944 q 182 974 206 960 q 148 994 163 988 q 117 1000 133 1000 q 87 981 100 1000 q 74 944 74 963 l 28 944 z "},"Ё":{"ha":824,"x_min":22,"x_max":786,"o":"m 143 746 q 124 851 143 817 q 46 885 104 885 l 22 885 l 22 917 l 619 917 q 738 806 738 917 l 738 697 l 706 697 q 532 860 706 860 l 283 860 l 283 501 l 654 501 l 654 444 l 283 444 l 283 57 l 525 57 q 669 92 615 57 q 756 211 722 128 l 786 203 l 740 76 q 701 19 726 39 q 632 0 676 0 l 143 0 l 143 746 m 285 1014 q 233 1033 251 1014 q 214 1086 214 1053 q 233 1138 214 1118 q 285 1157 251 1157 q 338 1138 318 1157 q 357 1086 357 1118 q 338 1034 357 1054 q 285 1014 318 1014 m 521 1014 q 469 1033 488 1014 q 450 1086 450 1053 q 469 1138 450 1118 q 521 1157 488 1157 q 574 1138 554 1157 q 593 1086 593 1118 q 574 1034 593 1054 q 521 1014 554 1014 z "},"Ђ":{"ha":872,"x_min":-3,"x_max":828,"o":"m 560 -26 q 688 278 688 -26 q 638 476 688 419 q 504 533 588 533 q 401 517 454 533 q 314 479 349 501 l 314 0 l 174 0 l 174 860 l -3 860 l -3 917 l 490 917 l 490 860 l 314 860 l 314 542 q 412 581 349 564 q 542 597 475 597 q 751 529 675 597 q 828 278 828 461 q 801 82 828 154 q 717 -23 775 10 q 560 -56 660 -56 l 560 -26 z "},"Ѓ":{"ha":749,"x_min":22,"x_max":721,"o":"m 143 746 q 124 851 143 817 q 46 885 104 885 l 22 885 l 22 917 l 603 917 q 721 806 721 917 l 721 697 l 690 697 q 517 860 690 860 l 283 860 l 283 0 l 143 0 l 143 746 m 390 1158 l 531 1158 l 394 974 l 333 974 l 390 1158 z "},"Є":{"ha":929,"x_min":58,"x_max":883,"o":"m 496 -28 q 265 35 364 -28 q 112 205 165 97 q 58 444 58 313 q 117 697 58 582 q 276 878 175 811 q 496 944 376 944 q 694 913 610 944 q 818 833 778 882 q 847 757 842 804 q 853 624 853 710 l 822 624 q 538 888 771 888 q 311 792 400 888 q 213 488 222 697 l 664 488 l 664 431 l 213 431 q 251 233 215 324 q 358 85 286 142 q 538 29 431 29 q 850 225 733 29 l 883 200 q 724 25 818 78 q 496 -28 631 -28 z "},"Ѕ":{"ha":750,"x_min":72,"x_max":693,"o":"m 389 -24 q 238 -3 311 -24 q 119 56 165 18 q 72 144 72 94 l 72 297 l 101 297 q 192 96 124 158 q 379 33 260 33 q 507 70 456 33 q 558 174 558 107 q 523 274 558 232 q 408 363 488 317 l 238 464 q 110 572 147 517 q 72 706 72 628 q 149 877 72 813 q 353 942 226 942 q 497 922 426 942 q 612 863 567 901 q 657 775 657 825 l 657 622 l 628 622 q 539 823 604 761 q 357 885 474 885 q 243 846 290 885 q 196 746 196 807 q 231 653 196 690 q 347 567 265 617 l 518 465 q 653 359 613 410 q 693 233 693 308 q 612 46 693 115 q 389 -24 531 -24 z "},"І":{"ha":403,"x_min":119,"x_max":381,"o":"m 244 0 q 168 14 194 0 q 131 64 142 28 q 119 171 119 100 l 119 917 l 260 917 l 260 171 q 279 66 260 100 q 357 32 299 32 l 381 32 l 381 0 l 244 0 z "},"Ї":{"ha":403,"x_min":8,"x_max":381,"o":"m 81 993 q 28 1013 47 993 q 8 1065 8 1033 q 28 1117 8 1097 q 81 1136 47 1136 q 133 1117 114 1136 q 153 1065 153 1097 q 133 1013 153 1033 q 81 993 114 993 m 299 993 q 247 1013 265 993 q 228 1065 228 1032 q 247 1117 228 1097 q 299 1136 265 1136 q 351 1117 332 1136 q 371 1065 371 1097 q 351 1013 371 1033 q 299 993 332 993 m 244 0 q 168 14 194 0 q 131 64 142 28 q 119 171 119 100 l 119 917 l 260 917 l 260 171 q 279 66 260 100 q 357 32 299 32 l 381 32 l 381 0 l 244 0 z "},"Ј":{"ha":368,"x_min":-17,"x_max":254,"o":"m -17 -158 q 115 110 115 -154 l 115 917 l 254 917 l 254 110 q 231 -67 254 -3 q 149 -160 207 -131 q -17 -190 90 -190 l -17 -158 z "},"Љ":{"ha":1347,"x_min":-10,"x_max":1315,"o":"m 64 -15 q -10 -3 28 -15 l -10 33 q 109 97 60 40 q 188 309 158 154 q 218 746 218 464 q 199 851 218 817 q 121 885 179 885 l 107 885 l 107 917 l 794 917 l 794 532 l 940 532 q 1206 473 1097 532 q 1315 265 1315 414 q 1206 58 1315 117 q 940 0 1097 0 l 656 0 l 656 860 l 335 860 l 335 746 q 262 151 335 317 q 64 -15 189 -15 m 919 50 q 1099 105 1036 50 q 1163 265 1163 160 q 1099 426 1163 372 q 919 481 1036 481 q 794 463 850 481 l 794 69 q 919 50 849 50 z "},"Њ":{"ha":1364,"x_min":22,"x_max":1335,"o":"m 143 746 q 124 851 143 817 q 46 885 104 885 l 22 885 l 22 917 l 158 917 q 235 903 208 917 q 272 853 261 889 q 283 746 283 817 l 283 501 l 671 501 l 671 917 l 811 917 l 811 504 l 956 504 q 1224 448 1114 504 q 1335 251 1335 392 q 1224 56 1335 113 q 956 0 1114 0 l 671 0 l 671 444 l 283 444 l 283 0 l 143 0 l 143 746 m 935 50 q 1118 102 1054 50 q 1182 251 1182 154 q 1118 401 1182 350 q 935 453 1054 453 q 811 435 860 453 l 811 69 q 935 50 867 50 z "},"Ћ":{"ha":885,"x_min":-3,"x_max":828,"o":"m 174 860 l -3 860 l -3 917 l 490 917 l 490 860 l 314 860 l 314 542 q 412 581 349 564 q 542 597 475 597 q 828 347 828 597 l 828 0 l 688 0 l 688 347 q 637 489 688 444 q 504 533 586 533 q 401 517 454 533 q 314 479 349 501 l 314 0 l 174 0 l 174 860 z "},"Ќ":{"ha":946,"x_min":22,"x_max":960,"o":"m 867 -14 q 722 22 794 -14 q 557 153 649 57 l 283 439 l 283 0 l 143 0 l 143 746 q 124 851 143 817 q 46 885 104 885 l 22 885 l 22 917 l 158 917 q 235 903 208 917 q 272 853 261 889 q 283 746 283 817 l 283 478 l 561 771 q 639 851 611 825 q 708 897 667 876 q 800 917 749 917 l 876 917 l 876 878 q 763 857 811 878 q 661 781 714 836 l 407 514 l 728 181 q 848 77 785 119 q 960 28 911 35 l 960 0 q 867 -14 918 -14 m 463 1122 l 603 1122 l 467 938 l 406 938 l 463 1122 z "},"Ў":{"ha":847,"x_min":-40,"x_max":825,"o":"m 188 31 q 394 132 354 31 l 408 163 l 143 736 q 74 847 111 808 q -40 889 36 885 l -40 917 l 119 917 q 301 764 235 917 l 490 354 l 739 917 l 825 917 l 479 132 q 393 24 449 63 q 257 -14 338 -14 l 188 -14 l 188 31 m 482 971 q 297 1097 354 971 l 328 1119 q 482 1056 379 1056 q 636 1119 585 1056 l 667 1097 q 482 971 610 971 z "},"Џ":{"ha":939,"x_min":22,"x_max":825,"o":"m 425 0 l 143 0 l 143 746 q 124 851 143 817 q 46 885 104 885 l 22 885 l 22 917 l 158 917 q 235 903 208 917 q 272 853 261 889 q 283 746 283 817 l 283 57 l 685 57 l 685 917 l 825 917 l 825 0 l 543 0 l 522 -243 l 446 -243 l 425 0 z "},"А":{"ha":886,"x_min":25,"x_max":925,"o":"m 867 -7 q 621 174 690 -7 l 586 261 l 203 261 l 90 0 l 25 0 l 419 917 l 467 917 l 774 174 q 838 67 806 99 q 925 31 871 36 l 925 0 q 867 -7 900 -7 m 558 318 l 396 711 l 225 318 l 558 318 z "},"Б":{"ha":854,"x_min":22,"x_max":807,"o":"m 143 746 q 124 851 143 817 q 46 885 104 885 l 22 885 l 22 917 l 613 917 q 731 806 731 917 l 731 697 l 700 697 q 526 860 700 860 l 283 860 l 283 528 l 428 528 q 698 471 589 528 q 807 264 807 414 q 698 57 807 114 q 428 0 589 0 l 143 0 l 143 746 m 407 50 q 591 103 528 50 q 654 264 654 156 q 591 425 654 372 q 407 478 528 478 q 283 460 351 478 l 283 68 q 407 50 350 50 z "},"В":{"ha":872,"x_min":22,"x_max":818,"o":"m 143 746 q 124 851 143 817 q 46 885 104 885 l 22 885 l 22 917 l 386 917 q 771 674 771 917 q 725 555 771 608 q 588 472 679 501 q 767 398 715 454 q 818 251 818 342 q 706 55 818 110 q 428 0 594 0 l 143 0 l 143 746 m 407 496 q 560 544 497 496 q 622 681 622 592 q 549 820 622 774 q 382 867 476 867 q 283 853 335 867 l 283 496 l 407 496 m 407 50 q 597 100 531 50 q 664 244 664 150 q 599 388 664 339 q 407 438 533 438 l 283 438 l 283 68 q 407 50 350 50 z "},"Г":{"ha":749,"x_min":22,"x_max":721,"o":"m 143 746 q 124 851 143 817 q 46 885 104 885 l 22 885 l 22 917 l 603 917 q 721 806 721 917 l 721 697 l 690 697 q 517 860 690 860 l 283 860 l 283 0 l 143 0 l 143 746 z "},"Д":{"ha":957,"x_min":3,"x_max":929,"o":"m 3 8 q 17 43 3 29 q 51 57 31 57 l 106 57 q 197 366 169 196 q 224 746 224 536 q 204 851 224 817 q 126 885 185 885 l 107 885 l 107 917 l 813 917 l 813 57 l 881 57 q 915 43 901 57 q 929 8 929 29 l 929 -251 l 865 -251 q 808 -56 849 -111 q 692 0 768 0 l 240 0 q 124 -56 164 0 q 67 -251 83 -111 l 3 -251 l 3 8 m 672 57 l 672 860 l 326 860 q 301 385 326 572 q 215 57 276 197 l 672 57 z "},"Е":{"ha":824,"x_min":22,"x_max":786,"o":"m 143 746 q 124 851 143 817 q 46 885 104 885 l 22 885 l 22 917 l 619 917 q 738 806 738 917 l 738 697 l 706 697 q 532 860 706 860 l 283 860 l 283 501 l 654 501 l 654 444 l 283 444 l 283 57 l 525 57 q 669 92 615 57 q 756 211 722 128 l 786 203 l 740 76 q 701 19 726 39 q 632 0 676 0 l 143 0 l 143 746 z "},"Ж":{"ha":1332,"x_min":-12,"x_max":1346,"o":"m 76 -14 q -12 0 29 -14 l -12 28 q 94 77 33 35 q 206 181 156 119 l 474 514 l 264 781 q 173 857 219 836 q 63 878 126 878 l 63 917 l 136 917 q 257 878 204 917 q 364 771 310 840 l 597 478 l 597 917 l 735 917 l 735 478 l 968 771 q 1075 878 1021 839 q 1197 917 1129 917 l 1269 917 l 1269 878 q 1159 857 1206 878 q 1068 781 1113 836 l 858 514 l 1126 181 q 1238 76 1178 119 q 1346 28 1299 33 l 1346 0 q 1256 -14 1304 -14 q 957 157 1089 -14 l 735 442 l 735 0 l 597 0 l 597 442 l 376 157 q 76 -14 243 -14 z "},"З":{"ha":796,"x_min":38,"x_max":743,"o":"m 379 -28 q 182 14 265 -28 q 38 150 99 56 l 69 174 q 354 29 178 29 q 526 82 461 29 q 590 229 590 135 q 524 383 590 329 q 333 438 458 438 l 225 438 l 225 494 l 333 494 q 495 547 428 494 q 563 694 563 600 q 533 801 563 757 q 458 866 504 844 q 361 888 413 888 q 196 828 264 888 q 101 663 128 768 l 69 663 q 75 779 69 740 q 104 847 81 818 q 216 917 139 890 q 368 944 293 944 q 609 891 510 944 q 708 692 708 838 q 657 562 708 621 q 508 474 606 503 q 743 236 743 433 q 633 33 743 93 q 379 -28 524 -28 z "},"И":{"ha":967,"x_min":22,"x_max":853,"o":"m 143 746 q 124 851 143 817 q 46 885 104 885 l 22 885 l 22 917 l 158 917 q 235 903 208 917 q 272 853 261 889 q 283 746 283 817 l 283 139 l 717 917 l 853 917 l 853 0 l 713 0 l 713 778 l 279 0 l 143 0 l 143 746 z "},"Й":{"ha":967,"x_min":22,"x_max":853,"o":"m 143 746 q 124 851 143 817 q 46 885 104 885 l 22 885 l 22 917 l 158 917 q 235 903 208 917 q 272 853 261 889 q 283 746 283 817 l 283 139 l 717 917 l 853 917 l 853 0 l 713 0 l 713 778 l 279 0 l 143 0 l 143 746 m 499 983 q 314 1110 371 983 l 344 1132 q 499 1068 396 1068 q 653 1132 601 1068 l 683 1110 q 499 983 626 983 z "},"К":{"ha":946,"x_min":22,"x_max":960,"o":"m 867 -14 q 722 22 794 -14 q 557 153 649 57 l 283 439 l 283 0 l 143 0 l 143 746 q 124 851 143 817 q 46 885 104 885 l 22 885 l 22 917 l 158 917 q 235 903 208 917 q 272 853 261 889 q 283 746 283 817 l 283 478 l 561 771 q 639 851 611 825 q 708 897 667 876 q 800 917 749 917 l 876 917 l 876 878 q 763 857 811 878 q 661 781 714 836 l 407 514 l 728 181 q 848 77 785 119 q 960 28 911 35 l 960 0 q 867 -14 918 -14 z "},"Л":{"ha":924,"x_min":-10,"x_max":808,"o":"m 64 -15 q -10 -3 28 -15 l -10 33 q 109 97 60 40 q 188 309 158 154 q 218 746 218 464 q 199 851 218 817 q 121 885 179 885 l 107 885 l 107 917 l 808 917 l 808 0 l 669 0 l 669 860 l 335 860 l 335 746 q 262 151 335 317 q 64 -15 189 -15 z "},"М":{"ha":1192,"x_min":115,"x_max":1171,"o":"m 1171 -62 q 1013 -31 1071 -62 q 931 65 956 0 q 907 236 907 129 l 907 760 l 571 0 l 539 0 l 174 778 l 174 0 l 115 0 l 115 917 l 257 917 l 590 206 l 907 917 l 1046 917 l 1046 236 q 1171 -33 1046 -28 l 1171 -62 z "},"Н":{"ha":972,"x_min":22,"x_max":950,"o":"m 143 746 q 124 851 143 817 q 46 885 104 885 l 22 885 l 22 917 l 158 917 q 235 903 208 917 q 272 853 261 889 q 283 746 283 817 l 283 501 l 689 501 l 689 917 l 828 917 l 828 171 q 847 66 828 100 q 925 32 867 32 l 950 32 l 950 0 l 814 0 q 738 14 764 0 q 700 64 711 28 q 689 171 689 100 l 689 444 l 283 444 l 283 0 l 143 0 l 143 746 z "},"О":{"ha":996,"x_min":61,"x_max":936,"o":"m 499 -28 q 269 36 368 -28 q 115 211 169 100 q 61 458 61 322 q 115 706 61 594 q 269 881 169 817 q 499 944 368 944 q 728 881 629 944 q 882 706 828 817 q 936 458 936 594 q 882 211 936 322 q 728 36 828 100 q 499 -28 629 -28 m 499 29 q 708 144 632 29 q 783 458 783 258 q 708 773 783 658 q 499 888 632 888 q 290 773 365 888 q 214 458 214 658 q 290 144 214 258 q 499 29 365 29 z "},"П":{"ha":939,"x_min":22,"x_max":825,"o":"m 143 746 q 124 851 143 817 q 46 885 104 885 l 22 885 l 22 917 l 825 917 l 825 0 l 685 0 l 685 860 l 283 860 l 283 0 l 143 0 l 143 746 z "},"Р":{"ha":776,"x_min":22,"x_max":743,"o":"m 143 746 q 124 851 143 817 q 46 885 104 885 l 22 885 l 22 917 l 389 917 q 634 860 525 917 q 743 639 743 804 q 687 472 743 531 q 560 393 631 413 q 431 374 489 374 l 283 374 l 283 0 l 143 0 l 143 746 m 382 425 q 476 447 428 425 q 556 518 524 468 q 589 646 589 568 q 556 774 589 724 q 476 845 524 824 q 383 867 429 867 q 283 853 335 867 l 283 425 l 382 425 z "},"С":{"ha":929,"x_min":58,"x_max":883,"o":"m 496 -28 q 265 35 364 -28 q 112 205 165 97 q 58 444 58 313 q 117 697 58 582 q 276 878 175 811 q 496 944 376 944 q 694 913 610 944 q 818 833 778 882 q 847 757 842 804 q 853 624 853 710 l 822 624 q 538 888 771 888 q 301 783 390 888 q 213 444 213 679 q 247 240 213 335 q 354 88 281 146 q 538 29 428 29 q 850 225 733 29 l 883 200 q 724 25 818 78 q 496 -28 631 -28 z "},"Т":{"ha":807,"x_min":28,"x_max":793,"o":"m 347 860 l 229 860 q 58 697 58 860 l 28 697 l 28 806 q 146 917 28 917 l 793 917 l 793 860 l 486 860 l 486 0 l 347 0 l 347 860 z "},"У":{"ha":847,"x_min":-40,"x_max":825,"o":"m 188 31 q 394 132 354 31 l 408 163 l 143 736 q 74 847 111 808 q -40 889 36 885 l -40 917 l 119 917 q 301 764 235 917 l 490 354 l 739 917 l 825 917 l 479 132 q 393 24 449 63 q 257 -14 338 -14 l 188 -14 l 188 31 z "},"Ф":{"ha":1099,"x_min":46,"x_max":1053,"o":"m 479 49 q 156 152 265 49 q 46 438 46 256 q 156 723 46 619 q 479 826 265 826 q 458 906 479 882 q 382 931 436 931 l 358 931 l 358 963 l 494 963 q 593 933 567 963 q 619 826 619 904 q 943 723 833 826 q 1053 438 1053 619 q 943 152 1053 256 q 619 49 833 49 l 619 -46 l 479 -46 l 479 49 m 479 769 q 265 678 332 769 q 199 438 199 586 q 265 197 199 289 q 479 106 332 106 l 479 769 m 619 106 q 833 197 765 106 q 900 438 900 289 q 833 678 900 586 q 619 769 765 769 l 619 106 z "},"Х":{"ha":919,"x_min":-14,"x_max":940,"o":"m 394 446 l 199 736 q 106 844 153 804 q -14 889 58 885 l -14 917 l 149 917 q 259 875 213 917 q 351 764 306 833 l 486 561 l 761 917 l 836 917 l 522 510 l 743 181 q 940 28 839 36 l 940 0 l 793 0 q 681 43 731 0 q 590 153 632 86 l 431 394 l 124 0 l 49 0 l 394 446 z "},"Ц":{"ha":969,"x_min":22,"x_max":942,"o":"m 878 -251 q 821 -56 861 -111 q 704 0 781 0 l 143 0 l 143 746 q 124 851 143 817 q 46 885 104 885 l 22 885 l 22 917 l 158 917 q 235 903 208 917 q 272 853 261 889 q 283 746 283 817 l 283 57 l 685 57 l 685 917 l 825 917 l 825 57 l 893 57 q 928 43 914 57 q 942 8 942 29 l 942 -251 l 878 -251 z "},"Ч":{"ha":897,"x_min":4,"x_max":782,"o":"m 643 371 q 559 350 611 357 q 457 343 507 343 q 204 408 293 343 q 115 639 115 472 l 115 746 q 96 851 115 817 q 18 885 76 885 l 4 885 l 4 917 l 140 917 q 217 903 190 917 q 254 853 243 889 q 265 746 265 817 l 265 625 q 315 451 265 500 q 469 401 365 401 q 643 429 581 401 l 643 917 l 782 917 l 782 0 l 643 0 l 643 371 z "},"Ш":{"ha":1300,"x_min":22,"x_max":1186,"o":"m 143 746 q 124 851 143 817 q 46 885 104 885 l 22 885 l 22 917 l 158 917 q 235 903 208 917 q 272 853 261 889 q 283 746 283 817 l 283 57 l 594 57 l 594 917 l 735 917 l 735 57 l 1046 57 l 1046 917 l 1186 917 l 1186 0 l 143 0 l 143 746 z "},"Щ":{"ha":1331,"x_min":22,"x_max":1303,"o":"m 1239 -251 q 1182 -56 1222 -111 q 1065 0 1142 0 l 143 0 l 143 746 q 124 851 143 817 q 46 885 104 885 l 22 885 l 22 917 l 158 917 q 235 903 208 917 q 272 853 261 889 q 283 746 283 817 l 283 57 l 594 57 l 594 917 l 735 917 l 735 57 l 1046 57 l 1046 917 l 1186 917 l 1186 57 l 1254 57 q 1289 43 1275 57 q 1303 8 1303 29 l 1303 -251 l 1239 -251 z "},"Ъ":{"ha":985,"x_min":39,"x_max":953,"o":"m 289 860 l 254 860 q 127 813 165 860 q 83 649 89 767 l 39 649 l 39 868 q 53 903 39 889 q 88 917 67 917 l 428 917 l 428 532 l 574 532 q 842 474 732 532 q 953 265 953 415 q 843 58 953 117 q 574 0 733 0 l 289 0 l 289 860 m 553 50 q 735 104 672 50 q 799 265 799 158 q 735 426 799 372 q 553 481 672 481 q 428 463 490 481 l 428 68 q 553 50 497 50 z "},"Ы":{"ha":1178,"x_min":22,"x_max":1156,"o":"m 143 746 q 124 851 143 817 q 46 885 104 885 l 22 885 l 22 917 l 158 917 q 235 903 208 917 q 272 853 261 889 q 283 746 283 817 l 283 532 l 425 532 q 680 473 572 532 q 788 265 788 414 q 680 58 788 117 q 425 0 572 0 l 143 0 l 143 746 m 1021 0 q 944 14 971 0 q 907 64 918 28 q 896 171 896 100 l 896 917 l 1035 917 l 1035 171 q 1054 66 1035 100 q 1132 32 1074 32 l 1156 32 l 1156 0 l 1021 0 m 404 50 q 573 105 511 50 q 635 265 635 160 q 574 426 635 371 q 404 481 513 481 q 283 463 343 481 l 283 68 q 404 50 342 50 z "},"Ь":{"ha":839,"x_min":22,"x_max":807,"o":"m 143 746 q 124 851 143 817 q 46 885 104 885 l 22 885 l 22 917 l 158 917 q 235 903 208 917 q 272 853 261 889 q 283 746 283 817 l 283 532 l 428 532 q 697 474 588 532 q 807 265 807 415 q 697 58 807 115 q 428 0 588 0 l 143 0 l 143 746 m 407 50 q 590 104 526 50 q 654 265 654 158 q 591 426 654 372 q 407 481 528 481 q 283 463 343 481 l 283 68 q 407 50 350 50 z "},"Э":{"ha":929,"x_min":44,"x_max":869,"o":"m 432 -28 q 203 25 297 -28 q 44 200 110 78 l 78 225 q 390 29 194 29 q 569 85 497 29 q 677 233 642 142 q 717 431 713 324 l 264 431 l 264 488 l 715 488 q 617 792 706 697 q 390 888 528 888 q 106 624 157 888 l 75 624 q 81 757 75 710 q 110 833 86 804 q 234 913 150 882 q 432 944 318 944 q 652 878 551 944 q 811 697 753 811 q 869 444 869 582 q 816 205 869 313 q 663 35 763 97 q 432 -28 564 -28 z "},"Ю":{"ha":1228,"x_min":22,"x_max":1167,"o":"m 771 -28 q 571 31 660 -28 q 430 198 482 90 q 375 444 378 306 l 283 444 l 283 0 l 143 0 l 143 746 q 124 851 143 817 q 46 885 104 885 l 22 885 l 22 917 l 158 917 q 235 903 208 917 q 272 853 261 889 q 283 746 283 817 l 283 501 l 376 501 q 438 734 385 633 q 578 890 492 835 q 771 944 664 944 q 972 883 882 944 q 1115 712 1063 822 q 1167 458 1167 601 q 1115 205 1167 315 q 972 33 1063 94 q 771 -28 882 -28 m 771 29 q 895 79 840 29 q 982 226 950 129 q 1014 458 1014 322 q 982 691 1014 594 q 895 838 950 788 q 771 888 840 888 q 647 838 701 888 q 560 691 592 788 q 528 458 528 594 q 560 226 528 322 q 647 79 592 129 q 771 29 701 29 z "},"Я":{"ha":851,"x_min":18,"x_max":821,"o":"m 104 -17 q 18 -1 61 -17 l 18 28 q 102 63 65 33 q 175 150 139 92 l 318 389 q 171 469 232 410 q 110 639 110 529 q 219 858 110 800 q 465 917 329 917 l 821 917 l 821 885 l 807 885 q 729 851 749 885 q 710 746 710 817 l 710 0 l 571 0 l 571 376 l 454 376 l 314 129 q 219 15 268 47 q 104 -17 169 -17 m 472 426 q 571 436 513 426 l 571 853 q 469 867 515 867 q 378 844 425 867 q 297 771 331 821 q 264 646 264 721 q 297 522 264 571 q 378 449 331 472 q 472 426 426 426 z "},"а":{"ha":674,"x_min":50,"x_max":586,"o":"m 261 -14 q 113 34 176 -14 q 50 179 50 82 q 144 330 50 283 q 410 376 239 376 l 446 376 q 410 559 446 508 q 304 610 374 610 q 208 583 244 610 q 156 489 171 556 l 89 489 q 94 565 89 536 q 124 618 100 594 q 205 655 149 643 q 332 667 261 667 q 519 603 451 667 q 586 375 586 539 l 586 0 l 504 0 l 456 63 l 449 63 q 376 8 424 31 q 261 -14 329 -14 m 318 50 q 446 136 399 50 l 446 319 l 410 319 q 252 283 307 319 q 197 179 197 246 q 231 83 197 117 q 318 50 265 50 z "},"б":{"ha":739,"x_min":78,"x_max":676,"o":"m 376 -14 q 159 70 240 -14 q 78 324 78 154 l 78 375 q 100 639 78 544 q 167 776 122 733 q 290 838 213 819 l 494 886 q 576 912 550 899 q 607 950 601 925 l 638 950 l 638 854 q 585 785 638 796 l 346 731 q 243 682 283 714 q 178 588 203 650 q 147 421 154 525 l 154 421 q 242 565 182 519 q 404 611 301 611 q 542 577 481 611 q 640 473 604 543 q 676 299 676 403 q 595 65 676 143 q 376 -14 514 -14 m 376 43 q 486 101 443 43 q 529 299 529 160 q 485 494 529 433 q 376 554 442 554 q 269 494 313 554 q 225 299 225 433 q 268 101 225 160 q 376 43 311 43 z "},"в":{"ha":704,"x_min":1,"x_max":646,"o":"m 111 482 q 92 587 111 553 q 14 621 72 621 l 1 621 l 1 653 l 350 653 q 544 613 469 653 q 618 486 618 572 q 582 390 618 426 q 469 340 546 354 q 599 284 553 325 q 646 181 646 243 q 568 42 646 83 q 350 0 490 0 l 111 0 l 111 482 m 319 369 q 431 400 390 369 q 472 486 472 431 q 433 572 472 542 q 333 603 393 603 q 291 599 315 603 q 250 589 267 594 l 250 369 l 319 369 m 333 50 q 457 83 414 50 q 500 181 500 115 q 454 279 500 246 q 319 313 408 313 l 250 313 l 250 64 q 291 54 267 58 q 333 50 315 50 z "},"г":{"ha":606,"x_min":1,"x_max":569,"o":"m 111 482 q 92 587 111 553 q 14 621 72 621 l 1 621 l 1 653 l 465 653 q 569 542 569 653 l 569 454 l 539 454 q 500 559 539 522 q 396 596 461 596 l 250 596 l 250 0 l 111 0 l 111 482 z "},"д":{"ha":796,"x_min":19,"x_max":769,"o":"m 19 8 q 33 43 19 29 q 68 57 47 57 l 113 57 q 176 267 156 154 q 196 486 196 381 q 176 588 196 554 q 96 621 156 621 l 96 653 l 668 653 l 668 57 l 721 57 q 756 43 742 57 q 769 8 769 29 l 769 -217 l 710 -217 q 664 -49 699 -97 q 561 0 629 0 l 228 0 q 125 -49 160 0 q 79 -217 90 -97 l 19 -217 l 19 8 m 529 57 l 529 596 l 299 596 q 281 288 299 415 q 222 57 264 160 l 529 57 z "},"е":{"ha":685,"x_min":60,"x_max":629,"o":"m 358 -14 q 197 31 264 -14 q 94 153 129 76 q 60 326 60 231 q 95 502 60 425 q 195 623 131 579 q 344 667 260 667 q 556 589 482 667 q 629 368 629 511 l 626 304 l 206 304 q 253 113 206 183 q 385 43 301 43 q 496 72 450 43 q 581 156 542 100 l 611 132 q 506 23 568 60 q 358 -14 444 -14 m 483 363 q 344 610 483 610 q 245 542 285 610 q 206 363 206 475 l 483 363 z "},"ж":{"ha":972,"x_min":8,"x_max":964,"o":"m 85 -14 q 42 -10 64 -14 q 8 0 21 -6 l 8 28 q 88 62 51 35 q 160 139 124 89 l 313 351 l 183 553 q 50 618 142 618 l 50 653 l 83 653 q 194 629 150 653 q 268 558 238 606 l 417 325 l 417 653 l 556 653 l 556 325 l 704 558 q 778 629 735 606 q 889 653 822 653 l 922 653 l 922 618 q 789 553 831 618 l 660 351 l 813 139 q 885 62 849 89 q 964 28 921 35 l 964 0 q 930 -10 951 -6 q 888 -14 908 -14 q 785 13 832 -14 q 694 101 738 40 l 556 294 l 556 0 l 417 0 l 417 294 l 278 101 q 188 13 235 40 q 85 -14 140 -14 z "},"з":{"ha":633,"x_min":47,"x_max":576,"o":"m 294 -14 q 147 16 206 -14 q 47 97 88 46 l 79 122 q 153 65 111 88 q 263 43 196 43 q 386 75 343 43 q 429 174 429 107 q 383 273 429 240 q 242 306 338 306 l 178 306 l 178 363 l 242 363 q 408 486 408 363 q 370 578 408 546 q 274 610 332 610 q 153 569 201 610 q 100 461 104 528 l 68 461 q 74 563 68 531 q 103 618 79 594 q 297 667 151 667 q 483 623 410 667 q 556 486 556 579 q 517 387 556 425 q 408 333 478 349 q 532 277 488 318 q 576 174 576 236 q 500 30 576 74 q 294 -14 424 -14 z "},"и":{"ha":768,"x_min":0,"x_max":674,"o":"m 117 482 q 97 587 117 553 q 19 621 78 621 l 0 621 l 0 653 l 132 653 q 208 639 182 653 q 246 589 235 625 q 257 482 257 553 l 257 138 l 538 653 l 674 653 l 674 0 l 533 0 l 533 515 l 253 0 l 117 0 l 117 482 z "},"й":{"ha":768,"x_min":0,"x_max":674,"o":"m 117 482 q 97 587 117 553 q 19 621 78 621 l 0 621 l 0 653 l 132 653 q 208 639 182 653 q 246 589 235 625 q 257 482 257 553 l 257 138 l 538 653 l 674 653 l 674 0 l 533 0 l 533 515 l 253 0 l 117 0 l 117 482 m 392 719 q 281 751 328 719 q 207 836 235 782 l 238 858 q 301 815 265 831 q 392 800 336 800 q 483 815 447 800 q 546 858 518 831 l 576 836 q 502 751 549 782 q 392 719 456 719 z "},"к":{"ha":700,"x_min":-1,"x_max":692,"o":"m 615 -14 q 413 97 500 -14 l 260 292 l 260 0 l 119 0 l 119 482 q 100 587 119 553 q 22 621 81 621 l -1 621 l -1 653 l 135 653 q 211 639 185 653 q 249 589 238 625 q 260 482 260 553 l 260 325 l 432 558 q 510 629 468 606 q 617 653 551 653 l 650 653 l 650 618 q 522 553 571 618 l 374 351 l 540 139 q 614 62 578 89 q 692 28 650 35 l 692 0 q 658 -10 679 -6 q 615 -14 636 -14 z "},"л":{"ha":765,"x_min":11,"x_max":671,"o":"m 83 -15 q 47 -11 69 -15 q 11 -3 24 -7 l 11 33 q 142 133 93 38 q 190 486 190 229 q 170 588 190 554 q 90 621 150 621 l 90 653 l 671 653 l 671 0 l 531 0 l 531 596 l 299 596 l 299 486 q 240 95 299 206 q 83 -15 182 -15 z "},"м":{"ha":907,"x_min":96,"x_max":889,"o":"m 889 -29 q 702 33 758 -29 q 646 215 646 94 l 646 500 l 425 0 l 393 0 l 154 514 l 154 0 l 96 0 l 96 653 l 238 653 l 444 206 l 646 657 l 786 657 l 786 215 q 814 63 786 125 q 889 0 842 1 l 889 -29 z "},"н":{"ha":778,"x_min":0,"x_max":775,"o":"m 117 482 q 97 587 117 553 q 19 621 78 621 l 0 621 l 0 653 l 132 653 q 208 639 182 653 q 246 589 235 625 q 257 482 257 553 l 257 356 l 519 356 l 519 653 l 660 653 l 660 171 q 679 66 660 100 q 757 32 699 32 l 775 32 l 775 0 l 644 0 q 568 14 594 0 q 531 64 542 28 q 519 171 519 100 l 519 299 l 257 299 l 257 0 l 117 0 l 117 482 z "},"о":{"ha":744,"x_min":60,"x_max":685,"o":"m 372 -14 q 206 31 276 -14 q 97 153 135 76 q 60 326 60 231 q 97 499 60 422 q 206 622 135 576 q 372 667 276 667 q 539 622 468 667 q 647 499 610 576 q 685 326 685 422 q 647 153 685 231 q 539 31 610 76 q 372 -14 468 -14 m 372 43 q 493 124 447 43 q 539 326 539 204 q 493 529 539 449 q 372 610 447 610 q 251 529 297 610 q 206 326 206 449 q 251 124 206 204 q 372 43 297 43 z "},"п":{"ha":749,"x_min":1,"x_max":653,"o":"m 111 482 q 92 587 111 553 q 14 621 72 621 l 1 621 l 1 653 l 653 653 l 653 0 l 514 0 l 514 596 l 250 596 l 250 0 l 111 0 l 111 482 z "},"р":{"ha":758,"x_min":-3,"x_max":697,"o":"m 118 482 q 99 587 118 553 q 21 621 79 621 l -3 621 l -3 653 l 125 653 q 203 639 176 653 q 243 592 231 625 q 436 667 325 667 q 629 571 561 667 q 697 326 697 475 q 627 81 697 176 q 424 -14 557 -14 q 258 28 336 -14 l 258 -264 l 118 -264 l 118 482 m 386 43 q 510 120 471 43 q 550 326 550 197 q 513 532 550 454 q 399 610 475 610 q 258 535 308 610 l 258 85 q 326 54 296 65 q 386 43 357 43 z "},"с":{"ha":675,"x_min":60,"x_max":632,"o":"m 372 -14 q 200 31 271 -14 q 94 153 129 76 q 60 326 60 231 q 94 499 60 422 q 200 622 129 576 q 372 667 271 667 q 576 618 528 667 q 606 559 600 594 q 611 433 611 524 l 581 433 q 526 565 575 519 q 399 610 478 610 q 255 533 304 610 q 206 326 206 456 q 254 119 206 196 q 400 43 303 43 q 515 71 469 43 q 600 156 561 99 l 632 132 q 525 23 588 60 q 372 -14 463 -14 z "},"т":{"ha":656,"x_min":38,"x_max":638,"o":"m 274 596 l 211 596 q 108 560 147 596 q 69 454 69 524 l 38 454 l 38 542 q 142 653 38 653 l 638 653 l 638 596 l 413 596 l 413 0 l 274 0 l 274 596 z "},"у":{"ha":713,"x_min":-17,"x_max":676,"o":"m 142 -235 q 256 -204 211 -235 q 332 -92 301 -174 l 360 -15 l 131 528 q -17 639 90 628 l -17 667 l 103 667 q 207 638 164 667 q 274 556 250 608 l 432 181 l 606 653 l 676 653 l 403 -90 q 313 -238 363 -199 q 186 -278 264 -278 l 142 -278 l 142 -235 z "},"ф":{"ha":935,"x_min":61,"x_max":874,"o":"m 397 -14 q 149 87 236 -7 q 61 326 61 181 q 149 566 61 472 q 397 667 236 660 l 397 746 q 378 851 397 817 q 300 885 358 885 l 282 885 l 282 917 l 413 917 q 489 903 463 917 q 526 853 515 889 q 538 746 538 817 l 538 667 q 786 566 699 660 q 874 326 874 472 q 786 87 874 181 q 538 -14 699 -7 l 538 -264 l 397 -264 l 397 -14 m 400 618 q 257 531 307 607 q 207 326 207 456 q 257 122 207 197 q 400 35 307 46 l 400 618 m 535 35 q 678 122 628 46 q 728 326 728 197 q 678 531 728 456 q 535 618 628 607 l 535 35 z "},"х":{"ha":681,"x_min":10,"x_max":675,"o":"m 272 307 l 149 514 q 10 625 90 614 l 10 653 l 131 653 q 293 542 228 653 l 375 404 l 556 653 l 631 653 l 406 346 l 531 139 q 675 28 588 39 l 675 0 l 547 0 q 385 111 450 0 l 304 249 l 124 0 l 47 0 l 272 307 z "},"ц":{"ha":788,"x_min":0,"x_max":760,"o":"m 703 -217 q 657 -49 692 -97 q 554 0 622 0 l 117 0 l 117 482 q 97 587 117 553 q 19 621 78 621 l 0 621 l 0 653 l 132 653 q 208 639 182 653 q 246 589 235 625 q 257 482 257 553 l 257 57 l 519 57 l 519 653 l 660 653 l 660 57 l 711 57 q 746 43 732 57 q 760 8 760 29 l 760 -217 l 703 -217 z "},"ч":{"ha":747,"x_min":13,"x_max":653,"o":"m 513 263 q 378 238 450 238 q 196 283 268 238 q 124 440 124 329 l 124 482 q 104 587 124 553 q 26 621 85 621 l 13 621 l 13 653 l 143 653 q 219 639 193 653 q 257 589 246 625 q 268 482 268 553 l 268 431 q 303 328 268 361 q 390 294 338 294 q 513 319 457 294 l 513 653 l 653 653 l 653 0 l 513 0 l 513 263 z "},"ш":{"ha":1032,"x_min":0,"x_max":938,"o":"m 117 482 q 97 587 117 553 q 19 621 78 621 l 0 621 l 0 653 l 132 653 q 208 639 182 653 q 246 589 235 625 q 257 482 257 553 l 257 57 l 457 57 l 457 653 l 597 653 l 597 57 l 797 57 l 797 653 l 938 653 l 938 0 l 117 0 l 117 482 z "},"щ":{"ha":1065,"x_min":0,"x_max":1038,"o":"m 981 -217 q 935 -49 969 -97 q 832 0 900 0 l 117 0 l 117 482 q 97 587 117 553 q 19 621 78 621 l 0 621 l 0 653 l 132 653 q 208 639 182 653 q 246 589 235 625 q 257 482 257 553 l 257 57 l 457 57 l 457 653 l 597 653 l 597 57 l 797 57 l 797 653 l 938 653 l 938 57 l 989 57 q 1024 43 1010 57 q 1038 8 1038 29 l 1038 -217 l 981 -217 z "},"ъ":{"ha":817,"x_min":46,"x_max":779,"o":"m 251 596 l 238 596 q 128 551 165 596 q 86 413 92 506 l 46 413 l 46 604 q 60 639 46 625 q 94 653 74 653 l 390 653 l 390 389 l 494 389 q 703 343 626 389 q 779 194 779 297 q 703 46 779 92 q 494 0 626 0 l 251 0 l 251 596 m 474 50 q 633 194 633 50 q 474 339 633 339 q 431 335 456 339 q 390 325 407 331 l 390 64 q 431 54 407 58 q 474 50 456 50 z "},"ы":{"ha":974,"x_min":0,"x_max":972,"o":"m 117 482 q 97 587 117 553 q 19 621 78 621 l 0 621 l 0 653 l 132 653 q 208 639 182 653 q 246 589 235 625 q 257 482 257 553 l 257 389 l 357 389 q 557 342 482 389 q 632 194 632 296 q 557 47 632 93 q 357 0 482 0 l 117 0 l 117 482 m 842 0 q 765 14 792 0 q 728 64 739 28 q 717 171 717 100 l 717 653 l 856 653 l 856 171 q 875 66 856 100 q 953 32 894 32 l 972 32 l 972 0 l 842 0 m 339 50 q 445 85 406 50 q 485 194 485 119 q 445 304 485 269 q 339 339 406 339 q 298 335 322 339 q 257 325 274 331 l 257 64 q 298 54 274 58 q 339 50 322 50 z "},"ь":{"ha":682,"x_min":0,"x_max":646,"o":"m 117 482 q 97 587 117 553 q 19 621 78 621 l 0 621 l 0 653 l 132 653 q 208 639 182 653 q 246 589 235 625 q 257 482 257 553 l 257 389 l 361 389 q 569 343 493 389 q 646 194 646 297 q 569 46 646 92 q 361 0 493 0 l 117 0 l 117 482 m 339 50 q 458 84 417 50 q 499 194 499 118 q 458 305 499 271 q 339 339 417 339 q 298 335 322 339 q 257 325 274 331 l 257 64 q 298 54 274 58 q 339 50 322 50 z "},"э":{"ha":683,"x_min":51,"x_max":624,"o":"m 311 -14 q 158 23 221 -14 q 51 132 96 60 l 83 156 q 169 71 124 99 q 283 43 214 43 q 422 110 372 43 q 478 292 472 176 l 193 292 l 193 349 l 478 349 q 423 538 472 467 q 286 610 374 610 q 158 565 207 610 q 103 433 108 519 l 72 433 q 78 559 72 524 q 107 618 83 594 q 311 667 156 667 q 483 622 413 667 q 589 499 554 576 q 624 326 624 422 q 589 153 624 231 q 483 31 554 76 q 311 -14 413 -14 z "},"ю":{"ha":975,"x_min":0,"x_max":917,"o":"m 625 -14 q 476 25 542 -14 q 374 135 411 64 q 332 299 336 206 l 257 299 l 257 0 l 117 0 l 117 482 q 97 587 117 553 q 19 621 78 621 l 0 621 l 0 653 l 132 653 q 208 639 182 653 q 246 589 235 625 q 257 482 257 553 l 257 356 l 333 356 q 375 518 338 447 q 477 628 413 589 q 625 667 542 667 q 778 623 713 667 q 881 502 844 579 q 917 326 917 425 q 881 151 917 228 q 778 30 844 74 q 625 -14 713 -14 m 625 43 q 731 117 692 43 q 769 326 769 192 q 731 535 769 461 q 625 610 692 610 q 518 535 557 610 q 479 326 479 461 q 518 117 479 192 q 625 43 557 43 z "},"я":{"ha":715,"x_min":22,"x_max":696,"o":"m 103 -15 q 22 -1 64 -15 l 22 28 q 93 61 64 32 q 151 138 122 90 l 235 282 q 120 342 165 294 q 75 461 75 389 q 360 653 75 653 l 696 653 l 696 621 l 689 621 q 615 585 633 619 q 596 482 596 551 l 596 0 l 457 0 l 457 275 l 361 275 l 278 110 q 204 15 244 44 q 103 -15 164 -15 m 374 326 q 457 339 411 326 l 457 589 q 419 598 443 593 q 374 603 394 603 q 262 569 303 603 q 221 465 221 536 q 261 360 221 394 q 374 326 301 326 z "},"ё":{"ha":685,"x_min":60,"x_max":629,"o":"m 358 -14 q 197 31 264 -14 q 94 153 129 76 q 60 326 60 231 q 95 502 60 425 q 195 623 131 579 q 344 667 260 667 q 556 589 482 667 q 629 368 629 511 l 626 304 l 206 304 q 253 113 206 183 q 385 43 301 43 q 496 72 450 43 q 581 156 542 100 l 611 132 q 506 23 568 60 q 358 -14 444 -14 m 483 363 q 344 610 483 610 q 245 542 285 610 q 206 363 206 475 l 483 363 m 228 743 q 180 763 199 743 q 161 810 161 782 q 180 857 161 838 q 228 876 199 876 q 276 857 257 876 q 294 810 294 838 q 276 763 294 782 q 228 743 257 743 m 468 743 q 420 763 439 743 q 401 810 401 782 q 420 857 401 838 q 468 876 439 876 q 515 857 496 876 q 535 810 535 838 q 515 763 535 782 q 468 743 496 743 z "},"ђ":{"ha":742,"x_min":-1,"x_max":651,"o":"m 385 -165 q 513 97 513 -160 l 513 347 q 472 489 513 444 q 371 533 432 533 q 299 513 333 533 q 235 461 264 493 l 235 0 l 96 0 l 96 693 l -1 693 l -1 750 l 96 750 l 96 833 l 165 917 l 235 917 l 235 750 l 394 750 l 394 693 l 235 693 l 235 528 q 311 578 265 558 q 413 597 357 597 q 651 347 651 597 l 651 97 q 626 -70 651 -7 q 543 -164 601 -133 q 385 -194 485 -194 l 385 -165 z "},"ѓ":{"ha":606,"x_min":1,"x_max":569,"o":"m 111 482 q 92 587 111 553 q 14 621 72 621 l 1 621 l 1 653 l 465 653 q 569 542 569 653 l 569 454 l 539 454 q 500 559 539 522 q 396 596 461 596 l 250 596 l 250 0 l 111 0 l 111 482 m 317 893 l 457 893 l 321 708 l 260 708 l 317 893 z "},"є":{"ha":683,"x_min":60,"x_max":632,"o":"m 372 -14 q 200 31 271 -14 q 94 153 129 76 q 60 326 60 231 q 94 499 60 422 q 200 622 129 576 q 372 667 271 667 q 576 618 528 667 q 606 559 600 594 q 611 433 611 524 l 581 433 q 526 565 575 519 q 399 610 478 610 q 260 538 310 610 q 206 349 211 467 l 490 349 l 490 292 l 206 292 q 261 110 211 176 q 400 43 311 43 q 515 71 469 43 q 600 156 561 99 l 632 132 q 525 23 588 60 q 372 -14 463 -14 z "},"ѕ":{"ha":628,"x_min":64,"x_max":572,"o":"m 318 -14 q 100 42 158 -14 q 72 97 78 65 q 67 193 67 129 l 100 193 q 159 83 113 122 q 290 43 206 43 q 402 69 365 43 q 439 140 439 96 q 408 208 439 181 q 314 261 378 235 l 233 296 q 106 375 149 331 q 64 485 64 419 q 130 619 64 571 q 303 667 196 667 q 515 611 457 667 q 544 556 539 588 q 550 460 550 525 l 517 460 q 458 570 504 531 q 331 610 411 610 q 232 583 267 610 q 197 513 197 556 q 304 399 197 444 l 388 364 q 528 280 483 324 q 572 168 572 236 q 501 34 572 82 q 318 -14 431 -14 z "},"і":{"ha":349,"x_min":-3,"x_max":257,"o":"m 181 733 q 119 761 143 733 q 96 828 96 789 q 115 875 96 857 q 163 893 133 893 q 224 866 200 893 q 247 800 247 839 q 229 751 247 769 q 181 733 211 733 m 118 482 q 99 587 118 553 q 21 621 79 621 l -3 621 l -3 653 l 132 653 q 208 639 182 653 q 246 589 235 625 q 257 482 257 553 l 257 0 l 118 0 l 118 482 z "},"ї":{"ha":349,"x_min":-11,"x_max":365,"o":"m 74 747 q 13 774 36 747 q -11 842 -11 801 q 7 890 -11 872 q 56 907 25 907 q 117 880 93 907 q 140 814 140 853 q 122 765 140 783 q 74 747 103 747 m 299 747 q 238 774 261 747 q 214 842 214 801 q 232 890 214 872 q 281 907 250 907 q 342 880 318 907 q 365 814 365 853 q 347 765 365 783 q 299 747 328 747 m 118 482 q 99 587 118 553 q 21 621 79 621 l -3 621 l -3 653 l 132 653 q 208 639 182 653 q 246 589 235 625 q 257 482 257 553 l 257 0 l 118 0 l 118 482 z "},"ј":{"ha":349,"x_min":-11,"x_max":257,"o":"m 181 733 q 119 761 143 733 q 96 828 96 789 q 115 875 96 857 q 163 893 133 893 q 224 866 200 893 q 247 800 247 839 q 229 751 247 769 q 181 733 211 733 m -11 -235 q 118 35 118 -229 l 118 482 q 99 587 118 553 q 21 621 79 621 l -3 621 l -3 653 l 132 653 q 208 639 182 653 q 246 589 235 625 q 257 482 257 553 l 257 35 q 233 -140 257 -76 q 151 -234 208 -204 q -11 -264 93 -264 l -11 -235 z "},"љ":{"ha":1081,"x_min":11,"x_max":1043,"o":"m 83 -15 q 47 -11 69 -15 q 11 -3 24 -7 l 11 33 q 142 133 93 38 q 190 486 190 229 q 170 588 190 554 q 90 621 150 621 l 90 653 l 654 653 l 654 389 l 758 389 q 967 343 890 389 q 1043 194 1043 297 q 967 46 1043 92 q 758 0 890 0 l 515 0 l 515 596 l 299 596 l 299 486 q 240 95 299 206 q 83 -15 182 -15 m 738 50 q 856 84 815 50 q 897 194 897 118 q 856 305 897 271 q 738 339 815 339 q 695 335 719 339 q 654 325 671 331 l 654 64 q 695 54 671 58 q 738 50 719 50 z "},"њ":{"ha":1069,"x_min":0,"x_max":1035,"o":"m 117 482 q 97 587 117 553 q 19 621 78 621 l 0 621 l 0 653 l 132 653 q 208 639 182 653 q 246 589 235 625 q 257 482 257 553 l 257 365 l 506 365 l 506 653 l 646 653 l 646 365 l 750 365 q 958 321 881 365 q 1035 182 1035 276 q 958 43 1035 86 q 750 0 882 0 l 506 0 l 506 307 l 257 307 l 257 0 l 117 0 l 117 482 m 728 50 q 846 83 804 50 q 888 182 888 115 q 728 314 888 314 q 685 310 710 314 q 646 301 661 307 l 646 64 q 687 54 663 58 q 728 50 711 50 z "},"ћ":{"ha":742,"x_min":-1,"x_max":651,"o":"m 96 693 l -1 693 l -1 750 l 96 750 l 96 833 l 165 917 l 235 917 l 235 750 l 394 750 l 394 693 l 235 693 l 235 528 q 311 578 265 558 q 413 597 357 597 q 651 347 651 597 l 651 0 l 513 0 l 513 347 q 472 489 513 444 q 371 533 432 533 q 299 513 333 533 q 235 461 264 493 l 235 0 l 96 0 l 96 693 z "},"ќ":{"ha":700,"x_min":-1,"x_max":692,"o":"m 615 -14 q 413 97 500 -14 l 260 292 l 260 0 l 119 0 l 119 482 q 100 587 119 553 q 22 621 81 621 l -1 621 l -1 653 l 135 653 q 211 639 185 653 q 249 589 238 625 q 260 482 260 553 l 260 325 l 432 558 q 510 629 468 606 q 617 653 551 653 l 650 653 l 650 618 q 522 553 571 618 l 374 351 l 540 139 q 614 62 578 89 q 692 28 650 35 l 692 0 q 658 -10 679 -6 q 615 -14 636 -14 m 354 858 l 494 858 l 358 674 l 297 674 l 354 858 z "},"ў":{"ha":713,"x_min":-17,"x_max":676,"o":"m 142 -235 q 256 -204 211 -235 q 332 -92 301 -174 l 360 -15 l 131 528 q -17 639 90 628 l -17 667 l 103 667 q 207 638 164 667 q 274 556 250 608 l 432 181 l 606 653 l 676 653 l 403 -90 q 313 -238 363 -199 q 186 -278 264 -278 l 142 -278 l 142 -235 m 414 704 q 303 735 350 704 q 229 821 257 767 l 260 843 q 323 800 288 815 q 414 785 358 785 q 505 800 469 785 q 568 843 540 815 l 599 821 q 524 735 571 767 q 414 704 478 704 z "},"џ":{"ha":754,"x_min":0,"x_max":660,"o":"m 336 0 l 117 0 l 117 482 q 97 587 117 553 q 19 621 78 621 l 0 621 l 0 653 l 132 653 q 208 639 182 653 q 246 589 235 625 q 257 482 257 553 l 257 57 l 519 57 l 519 653 l 660 653 l 660 0 l 440 0 l 419 -208 l 357 -208 l 336 0 z "},"Ґ":{"ha":744,"x_min":22,"x_max":721,"o":"m 143 746 q 124 851 143 817 q 46 885 104 885 l 22 885 l 22 917 l 517 917 q 647 956 603 917 q 690 1078 690 994 l 721 1078 l 721 935 q 701 881 721 903 q 644 860 681 860 l 283 860 l 283 0 l 143 0 l 143 746 z "},"ґ":{"ha":600,"x_min":1,"x_max":569,"o":"m 111 482 q 92 587 111 553 q 14 621 72 621 l 1 621 l 1 653 l 396 653 q 500 689 461 653 q 539 793 539 725 l 569 793 l 569 665 q 501 596 569 596 l 250 596 l 250 0 l 111 0 l 111 482 z "},"–":{"ha":851,"x_min":94,"x_max":757,"o":"m 94 404 l 757 404 l 757 318 l 94 318 l 94 404 z "},"—":{"ha":1218,"x_min":90,"x_max":1128,"o":"m 90 404 l 1128 404 l 1128 318 l 90 318 l 90 404 z "},"‘":{"ha":310,"x_min":68,"x_max":242,"o":"m 158 589 q 92 616 115 589 q 68 689 68 643 q 106 838 68 774 q 222 947 144 901 l 239 924 q 157 842 186 888 q 128 739 128 797 l 164 751 q 219 728 197 751 q 242 672 242 706 q 219 613 242 636 q 158 589 196 589 z "},"’":{"ha":313,"x_min":78,"x_max":253,"o":"m 81 610 q 164 690 135 646 q 193 793 193 735 l 157 782 q 100 804 122 782 q 78 861 78 826 q 101 921 78 897 q 161 944 124 944 q 228 917 204 944 q 253 844 253 890 q 215 695 253 758 q 97 586 176 632 l 81 610 z "},"‚":{"ha":326,"x_min":76,"x_max":250,"o":"m 79 -193 q 161 -112 132 -157 q 190 -10 190 -68 l 154 -21 q 99 2 121 -21 q 76 58 76 25 q 99 118 76 94 q 160 142 122 142 q 226 115 203 142 q 250 42 250 88 q 212 -108 250 -44 q 96 -217 174 -171 l 79 -193 z "},"“":{"ha":561,"x_min":68,"x_max":493,"o":"m 158 589 q 92 616 115 589 q 68 689 68 643 q 106 838 68 774 q 222 947 144 901 l 239 924 q 157 842 186 888 q 128 739 128 797 l 164 751 q 219 728 197 751 q 242 672 242 706 q 219 613 242 636 q 158 589 196 589 m 410 589 q 342 616 367 589 q 318 689 318 643 q 356 838 318 774 q 474 947 394 901 l 490 924 q 408 842 438 888 q 378 739 378 797 l 414 751 q 471 728 449 751 q 493 672 493 706 q 470 613 493 636 q 410 589 447 589 z "},"”":{"ha":564,"x_min":78,"x_max":503,"o":"m 81 610 q 164 690 135 646 q 193 793 193 735 l 157 782 q 100 804 122 782 q 78 861 78 826 q 101 921 78 897 q 161 944 124 944 q 228 917 204 944 q 253 844 253 890 q 215 695 253 758 q 97 586 176 632 l 81 610 m 332 610 q 414 690 385 646 q 443 793 443 735 l 407 782 q 351 804 372 782 q 329 861 329 826 q 352 921 329 897 q 413 944 375 944 q 479 917 456 944 q 503 844 503 890 q 465 695 503 758 q 349 586 426 632 l 332 610 z "},"„":{"ha":576,"x_min":76,"x_max":501,"o":"m 79 -193 q 161 -112 132 -157 q 190 -10 190 -68 l 154 -21 q 99 2 121 -21 q 76 58 76 25 q 99 118 76 94 q 160 142 122 142 q 226 115 203 142 q 250 42 250 88 q 212 -108 250 -44 q 96 -217 174 -171 l 79 -193 m 329 -193 q 413 -112 383 -157 q 442 -10 442 -68 l 406 -21 q 349 2 371 -21 q 326 58 326 25 q 349 118 326 94 q 410 142 372 142 q 477 115 453 142 q 501 42 501 88 q 463 -108 501 -44 q 346 -217 425 -171 l 329 -193 z "},"†":{"ha":732,"x_min":36,"x_max":696,"o":"m 296 568 l 36 568 l 36 654 l 296 654 l 296 944 l 435 944 l 435 654 l 696 654 l 696 568 l 435 568 l 435 -264 l 296 -264 l 296 568 z "},"‡":{"ha":774,"x_min":57,"x_max":715,"o":"m 317 26 l 57 26 l 57 113 l 317 113 l 317 568 l 57 568 l 57 654 l 317 654 l 317 944 l 456 944 l 456 654 l 715 654 l 715 568 l 456 568 l 456 113 l 715 113 l 715 26 l 456 26 l 456 -264 l 317 -264 l 317 26 z "},"•":{"ha":476,"x_min":65,"x_max":410,"o":"m 238 290 q 113 338 161 290 q 65 458 65 385 q 113 579 65 532 q 238 626 161 626 q 362 579 314 626 q 410 458 410 532 q 362 338 410 385 q 238 290 314 290 z "},"…":{"ha":890,"x_min":76,"x_max":814,"o":"m 154 -19 q 99 3 121 -19 q 76 60 76 25 q 99 114 76 92 q 154 136 121 136 q 209 114 188 136 q 231 60 231 92 q 208 3 231 25 q 154 -19 186 -19 m 446 -19 q 390 3 413 -19 q 368 60 368 25 q 390 114 368 92 q 446 136 413 136 q 501 114 479 136 q 522 60 522 92 q 500 3 522 25 q 446 -19 478 -19 m 738 -19 q 682 3 704 -19 q 660 60 660 25 q 682 114 660 92 q 738 136 704 136 q 792 114 771 136 q 814 60 814 92 q 792 3 814 25 q 738 -19 769 -19 z "},"‰":{"ha":1421,"x_min":50,"x_max":1381,"o":"m 257 546 q 105 596 160 546 q 50 735 50 646 q 105 874 50 824 q 257 924 160 924 q 408 874 353 924 q 463 735 463 824 q 408 596 463 646 q 257 546 353 546 m 753 917 l 868 917 l 225 0 l 110 0 l 753 917 m 257 597 q 372 735 372 597 q 256 874 372 874 q 140 735 140 874 q 257 597 140 597 m 715 -7 q 563 43 617 -7 q 508 182 508 93 q 563 321 508 271 q 715 371 617 371 q 866 321 811 371 q 921 182 921 271 q 866 43 921 93 q 715 -7 811 -7 m 1175 -7 q 1022 43 1076 -7 q 968 182 968 93 q 1022 321 968 271 q 1175 371 1076 371 q 1326 321 1271 371 q 1381 182 1381 271 q 1326 43 1381 93 q 1175 -7 1271 -7 m 714 43 q 831 182 831 43 q 714 319 831 319 q 599 182 599 319 q 714 43 599 43 m 1175 43 q 1290 182 1290 43 q 1174 319 1290 319 q 1058 182 1058 319 q 1175 43 1058 43 z "},"‹":{"ha":417,"x_min":46,"x_max":347,"o":"m 46 313 l 283 583 l 347 583 l 199 313 l 347 42 l 283 42 l 46 313 z "},"›":{"ha":417,"x_min":69,"x_max":371,"o":"m 218 313 l 69 583 l 133 583 l 371 313 l 133 42 l 69 42 l 218 313 z "},"€":{"ha":1015,"x_min":38,"x_max":956,"o":"m 569 -28 q 362 21 453 -28 q 214 156 271 69 q 139 353 157 242 l 38 353 l 53 410 l 132 410 l 132 493 l 58 493 l 74 550 l 142 550 q 224 752 163 663 q 375 893 285 842 q 569 944 465 944 q 767 913 683 944 q 892 833 851 882 q 921 756 915 804 q 926 624 926 707 l 896 624 q 611 888 844 888 q 397 808 482 888 q 290 550 311 729 l 568 550 l 553 493 l 285 493 l 285 410 l 547 410 l 532 353 l 290 353 q 392 119 313 210 q 611 29 471 29 q 924 225 807 29 l 956 200 q 798 25 892 78 q 569 -28 704 -28 z "},"№":{"ha":1383,"x_min":18,"x_max":1338,"o":"m 1128 542 q 972 594 1028 542 q 917 738 917 647 q 972 881 917 828 q 1128 935 1028 935 q 1282 881 1226 935 q 1338 738 1338 828 q 1282 594 1338 647 q 1128 542 1226 542 m 214 718 l 214 0 l 154 0 l 154 750 q 126 850 154 815 q 29 885 99 885 l 18 885 l 18 917 l 110 917 q 224 896 178 917 q 303 833 269 875 l 788 242 l 788 917 l 846 917 l 846 -11 l 808 -11 l 214 718 m 1128 596 q 1217 632 1186 596 q 1247 738 1247 668 q 1217 844 1247 808 q 1128 881 1186 881 q 1039 844 1069 881 q 1008 738 1008 808 q 1039 631 1008 667 q 1128 596 1069 596 m 946 472 l 1308 472 l 1308 408 l 946 408 l 946 472 z "},"™":{"ha":1249,"x_min":72,"x_max":1185,"o":"m 257 874 l 201 874 q 124 846 153 874 q 94 767 94 818 l 72 767 l 72 831 q 157 917 72 917 l 539 917 l 539 874 l 361 874 l 361 422 l 257 422 l 257 874 m 1185 404 q 1045 450 1088 404 q 1003 590 1003 496 l 1003 799 l 835 422 l 810 422 l 626 813 l 626 422 l 582 422 l 582 917 l 688 917 l 849 574 l 1003 917 l 1106 917 l 1106 590 q 1127 473 1106 519 q 1185 425 1149 426 l 1185 404 z "},"":{"ha":383,"x_min":7,"x_max":376,"o":"m 192 904 q 7 1031 64 904 l 38 1053 q 192 989 89 989 q 346 1053 294 989 l 376 1031 q 192 904 319 904 z "},"ء":{"ha":657,"x_min":69,"x_max":588,"o":"m 533 156 q 574 140 561 156 q 588 103 588 125 q 578 67 588 82 q 557 51 569 51 q 264 18 419 40 q 90 -19 108 -4 q 69 36 69 10 q 95 90 69 68 q 160 111 121 111 q 190 107 174 111 q 125 189 154 133 q 96 310 96 244 q 128 428 96 374 q 221 514 160 482 q 368 546 282 546 q 492 514 457 546 q 526 438 526 482 q 503 376 526 396 q 450 356 481 356 q 410 367 428 356 q 382 440 411 410 q 315 472 353 469 q 258 424 283 463 q 233 324 233 386 q 293 187 233 229 q 439 144 353 144 q 533 156 489 144 z "},"ا":{"ha":351,"x_min":69,"x_max":282,"o":"m 211 0 q 156 24 169 0 q 143 90 143 47 l 143 711 q 121 810 143 772 q 69 867 99 849 q 103 899 76 882 q 167 917 131 917 q 249 878 217 917 q 282 760 282 840 l 282 90 q 268 24 282 47 q 211 0 254 0 z "},"ﺎ":{"ha":439,"x_min":69,"x_max":439,"o":"m 347 0 q 201 67 257 0 q 143 257 144 133 l 143 711 q 121 810 143 772 q 69 867 99 849 q 103 899 76 882 q 167 917 131 917 q 249 878 217 917 q 282 760 282 840 l 282 254 q 310 153 282 196 q 389 110 338 110 l 439 110 l 439 0 l 347 0 z "},"أ":{"ha":351,"x_min":25,"x_max":310,"o":"m 211 0 q 156 24 169 0 q 143 90 143 47 l 143 626 q 121 726 143 688 q 69 782 99 764 q 103 815 76 797 q 167 832 131 832 q 249 794 217 832 q 282 675 282 756 l 282 90 q 268 24 282 47 q 211 0 254 0 m 40 886 q 25 919 25 901 q 38 948 25 936 q 71 960 50 960 q 88 958 82 960 q 54 1005 69 975 q 39 1069 39 1035 q 78 1163 39 1125 q 188 1200 118 1200 q 276 1142 276 1200 q 264 1107 276 1118 q 235 1096 251 1096 q 213 1103 222 1096 q 198 1141 214 1125 q 161 1160 182 1157 q 135 1133 147 1154 q 122 1081 122 1113 q 155 1002 122 1025 q 231 979 188 979 q 279 985 246 979 q 302 976 294 985 q 310 956 310 968 q 305 936 310 944 q 293 928 300 928 q 40 886 50 907 z "},"ﺄ":{"ha":439,"x_min":25,"x_max":439,"o":"m 346 0 q 200 67 257 0 q 143 258 143 133 l 143 626 q 121 726 143 688 q 69 782 99 764 q 103 815 76 797 q 167 832 131 832 q 249 794 217 832 q 282 675 282 756 l 282 254 q 310 153 282 196 q 389 110 338 110 l 439 110 l 439 0 l 346 0 m 40 886 q 25 919 25 901 q 38 948 25 936 q 71 960 50 960 q 88 958 82 960 q 54 1005 69 975 q 39 1069 39 1035 q 78 1163 39 1125 q 188 1200 118 1200 q 276 1142 276 1200 q 264 1107 276 1118 q 235 1096 251 1096 q 213 1103 222 1096 q 198 1141 214 1125 q 161 1160 182 1157 q 135 1133 147 1154 q 122 1081 122 1113 q 155 1002 122 1025 q 231 979 188 979 q 279 985 246 979 q 302 976 294 985 q 310 956 310 968 q 305 936 310 944 q 293 928 300 928 q 40 886 50 907 z "},"إ":{"ha":351,"x_min":68,"x_max":354,"o":"m 211 0 q 156 24 169 0 q 143 90 143 47 l 143 711 q 121 810 143 772 q 69 867 99 849 q 103 899 76 882 q 167 917 131 917 q 249 878 217 917 q 282 760 282 840 l 282 90 q 268 24 282 47 q 211 0 254 0 m 85 -383 q 68 -349 68 -367 q 81 -322 68 -333 q 114 -311 93 -311 q 131 -312 125 -311 q 97 -265 111 -294 q 82 -201 82 -236 q 122 -108 82 -146 q 232 -69 161 -69 q 301 -87 282 -69 q 321 -129 321 -104 q 308 -163 321 -153 q 278 -174 296 -174 q 256 -168 263 -174 q 242 -128 257 -144 q 206 -110 226 -112 q 178 -136 190 -115 q 167 -189 167 -157 q 199 -267 167 -244 q 275 -290 231 -290 q 324 -285 290 -290 q 347 -293 339 -285 q 354 -314 354 -301 q 349 -333 354 -325 q 336 -342 343 -342 q 85 -383 94 -362 z "},"ﺈ":{"ha":439,"x_min":69,"x_max":439,"o":"m 347 0 q 201 67 257 0 q 143 257 144 133 l 143 711 q 121 810 143 772 q 69 867 99 849 q 103 899 76 882 q 167 917 131 917 q 249 878 217 917 q 282 760 282 840 l 282 254 q 310 153 282 196 q 389 110 338 110 l 439 110 l 439 0 l 347 0 m 94 -383 q 78 -349 78 -367 q 90 -322 78 -333 q 124 -311 103 -311 q 140 -312 135 -311 q 106 -265 121 -294 q 92 -201 92 -236 q 131 -108 92 -146 q 242 -69 171 -69 q 311 -87 292 -69 q 331 -129 331 -104 q 318 -163 331 -153 q 288 -174 306 -174 q 265 -168 272 -174 q 251 -128 267 -144 q 215 -110 236 -112 q 188 -136 200 -115 q 176 -189 176 -157 q 208 -267 176 -244 q 285 -290 240 -290 q 333 -285 300 -290 q 356 -293 349 -285 q 364 -314 364 -301 q 358 -333 364 -325 q 346 -342 353 -342 q 94 -383 104 -362 z "},"آ":{"ha":351,"x_min":-42,"x_max":378,"o":"m 211 0 q 156 24 169 0 q 143 90 143 47 l 143 626 q 121 726 143 688 q 69 782 99 764 q 103 815 76 797 q 167 832 131 832 q 249 794 217 832 q 282 675 282 756 l 282 90 q 268 24 282 47 q 211 0 254 0 m 251 889 q 193 897 219 889 q 129 922 167 906 q 76 943 96 936 q 33 950 56 950 q -10 939 8 950 q -35 928 -28 928 q -42 939 -42 928 q -29 975 -42 954 q 10 1011 -17 996 q 75 1026 36 1026 q 128 1019 103 1026 q 188 999 154 1013 q 289 972 251 972 q 320 976 308 972 q 346 989 332 981 q 369 997 360 997 q 369 967 378 996 q 333 913 361 938 q 251 889 304 889 z "},"ﺂ":{"ha":439,"x_min":-42,"x_max":439,"o":"m 346 0 q 200 67 257 0 q 143 258 143 133 l 143 626 q 121 726 143 688 q 69 782 99 764 q 103 815 76 797 q 167 832 131 832 q 249 794 217 832 q 282 675 282 756 l 282 254 q 310 153 282 196 q 389 110 338 110 l 439 110 l 439 0 l 346 0 m 251 889 q 193 897 219 889 q 129 922 167 906 q 76 943 96 936 q 33 950 56 950 q -10 939 8 950 q -35 928 -28 928 q -42 939 -42 928 q -29 975 -42 954 q 10 1011 -17 996 q 75 1026 36 1026 q 128 1019 103 1026 q 188 999 154 1013 q 289 972 251 972 q 320 976 308 972 q 346 989 332 981 q 369 997 360 997 q 369 967 378 996 q 333 913 361 938 q 251 889 304 889 z "},"ٱ":{"ha":351,"x_min":15,"x_max":318,"o":"m 211 0 q 156 24 169 0 q 143 90 143 47 l 143 626 q 121 726 143 688 q 69 782 99 764 q 103 815 76 797 q 167 832 131 832 q 249 794 217 832 q 282 675 282 756 l 282 90 q 268 24 282 47 q 211 0 254 0 m 26 885 q 15 913 15 885 q 26 940 15 940 l 60 940 q 76 986 60 953 q 125 1049 92 1019 q 211 1078 158 1078 q 290 1048 261 1078 q 318 969 318 1018 q 299 907 318 929 q 249 885 279 885 l 26 885 m 217 940 q 246 978 246 940 q 233 1014 246 1000 q 193 1028 219 1028 q 142 1013 165 1028 q 104 978 118 999 q 90 940 90 957 l 217 940 z "},"ﭑ":{"ha":439,"x_min":15,"x_max":439,"o":"m 346 0 q 200 67 257 0 q 143 258 143 133 l 143 626 q 121 726 143 688 q 69 782 99 764 q 103 815 76 797 q 167 832 131 832 q 249 794 217 832 q 282 675 282 756 l 282 254 q 310 153 282 196 q 389 110 338 110 l 439 110 l 439 0 l 346 0 m 26 885 q 15 913 15 885 q 26 940 15 940 l 60 940 q 76 986 60 953 q 125 1049 92 1019 q 211 1078 158 1078 q 290 1048 261 1078 q 318 969 318 1018 q 299 907 318 929 q 249 885 279 885 l 26 885 m 217 940 q 246 978 246 940 q 233 1014 246 1000 q 193 1028 219 1028 q 142 1013 165 1028 q 104 978 118 999 q 90 940 90 957 l 217 940 z "},"ٮ":{"ha":1064,"x_min":90,"x_max":974,"o":"m 271 0 q 134 53 178 0 q 90 194 90 107 l 90 528 q 109 578 90 560 q 160 596 128 596 q 211 578 193 596 q 229 525 229 560 l 229 236 q 251 138 229 167 q 331 110 274 110 l 696 110 q 805 185 776 110 q 833 340 833 261 q 810 499 833 429 q 722 624 788 569 q 753 653 732 640 q 808 667 774 667 q 933 584 893 667 q 974 381 974 501 q 907 113 974 225 q 689 0 840 0 l 271 0 z "},"ب":{"ha":1064,"x_min":90,"x_max":974,"o":"m 271 0 q 134 53 178 0 q 90 194 90 107 l 90 528 q 109 578 90 560 q 160 596 128 596 q 211 578 193 596 q 229 525 229 560 l 229 236 q 251 138 229 167 q 331 110 274 110 l 696 110 q 805 185 776 110 q 833 340 833 261 q 810 499 833 429 q 722 624 788 569 q 753 653 732 640 q 808 667 774 667 q 933 584 893 667 q 974 381 974 501 q 907 113 974 225 q 689 0 840 0 l 271 0 m 511 -282 q 449 -257 475 -282 q 424 -197 424 -232 q 449 -136 424 -161 q 511 -111 475 -111 q 571 -137 546 -111 q 596 -197 596 -162 q 571 -257 596 -232 q 511 -282 546 -282 z "},"ﺐ":{"ha":1132,"x_min":90,"x_max":1132,"o":"m 1132 110 l 1132 0 l 967 0 q 891 10 922 0 q 833 39 860 19 q 689 0 772 0 l 271 0 q 134 53 178 0 q 90 194 90 107 l 90 528 q 109 578 90 560 q 160 596 128 596 q 211 578 193 596 q 229 525 229 560 l 229 236 q 251 138 229 167 q 331 110 274 110 l 696 110 q 805 185 776 110 q 833 340 833 261 q 810 499 833 429 q 722 624 788 569 q 753 653 732 640 q 808 667 774 667 q 933 584 893 667 q 974 381 974 501 q 957 233 974 304 q 904 110 940 163 l 1132 110 m 501 -282 q 440 -257 465 -282 q 414 -197 414 -232 q 440 -136 414 -161 q 501 -111 465 -111 q 561 -137 536 -111 q 586 -197 586 -162 q 561 -257 586 -232 q 501 -282 536 -282 z "},"ﺒ":{"ha":469,"x_min":0,"x_max":469,"o":"m 469 110 l 469 0 l 321 0 q 189 39 242 0 q 71 0 135 4 l 0 0 l 0 110 l 71 110 q 160 133 118 111 l 160 596 q 229 667 160 667 q 281 649 263 667 q 299 596 299 631 l 299 218 q 342 110 299 110 l 469 110 m 231 -282 q 169 -257 194 -282 q 143 -197 143 -232 q 169 -136 143 -161 q 231 -111 194 -111 q 290 -137 265 -111 q 315 -197 315 -162 q 290 -257 315 -232 q 231 -282 265 -282 z "},"ﺑ":{"ha":469,"x_min":0,"x_max":379,"o":"m 0 110 l 103 110 q 212 182 183 110 q 240 340 240 254 q 217 499 240 428 q 128 624 193 569 q 214 667 157 667 q 339 584 299 667 q 379 381 379 501 q 313 113 379 225 q 96 0 246 0 l 0 0 l 0 110 m 214 -282 q 152 -257 178 -282 q 126 -197 126 -232 q 152 -136 126 -161 q 214 -111 178 -111 q 274 -137 249 -111 q 299 -197 299 -162 q 274 -257 299 -232 q 214 -282 249 -282 z "},"پ":{"ha":1064,"x_min":90,"x_max":974,"o":"m 271 0 q 134 53 178 0 q 90 194 90 107 l 90 528 q 109 578 90 560 q 160 596 128 596 q 211 578 193 596 q 229 525 229 560 l 229 236 q 251 138 229 167 q 331 110 274 110 l 696 110 q 805 185 776 110 q 833 340 833 261 q 810 499 833 429 q 722 624 788 569 q 753 653 732 640 q 808 667 774 667 q 933 584 893 667 q 974 381 974 501 q 907 113 974 225 q 689 0 840 0 l 271 0 m 406 -276 q 348 -252 372 -276 q 324 -194 324 -228 q 348 -135 324 -160 q 406 -111 372 -111 q 464 -135 440 -111 q 488 -194 488 -160 q 464 -252 488 -228 q 406 -276 440 -276 m 614 -276 q 556 -252 581 -276 q 532 -194 532 -228 q 556 -135 532 -160 q 614 -111 581 -111 q 672 -135 649 -111 q 696 -194 696 -160 q 672 -252 696 -228 q 614 -276 649 -276 m 510 -449 q 456 -426 478 -449 q 433 -372 433 -404 q 456 -318 433 -340 q 510 -296 478 -296 q 564 -319 542 -296 q 586 -372 586 -342 q 564 -426 586 -404 q 510 -449 542 -449 z "},"ﭗ":{"ha":1132,"x_min":90,"x_max":1132,"o":"m 1132 110 l 1132 0 l 967 0 q 891 10 922 0 q 833 39 860 19 q 689 0 772 0 l 271 0 q 134 53 178 0 q 90 194 90 107 l 90 528 q 109 578 90 560 q 160 596 128 596 q 211 578 193 596 q 229 525 229 560 l 229 236 q 251 138 229 167 q 331 110 274 110 l 696 110 q 805 185 776 110 q 833 340 833 261 q 810 499 833 429 q 722 624 788 569 q 753 653 732 640 q 808 667 774 667 q 933 584 893 667 q 974 381 974 501 q 957 233 974 304 q 904 110 940 163 l 1132 110 m 394 -276 q 337 -252 361 -276 q 313 -194 313 -228 q 337 -135 313 -160 q 394 -111 361 -111 q 453 -135 429 -111 q 476 -194 476 -160 q 453 -252 476 -228 q 394 -276 429 -276 m 603 -276 q 545 -252 569 -276 q 521 -194 521 -228 q 545 -135 521 -160 q 603 -111 569 -111 q 661 -135 638 -111 q 685 -194 685 -160 q 661 -252 685 -228 q 603 -276 638 -276 m 499 -449 q 444 -426 467 -449 q 422 -372 422 -404 q 444 -318 422 -340 q 499 -296 467 -296 q 553 -319 531 -296 q 575 -372 575 -342 q 553 -426 575 -404 q 499 -449 531 -449 z "},"ﭙ":{"ha":469,"x_min":0,"x_max":469,"o":"m 469 110 l 469 0 l 321 0 q 189 39 242 0 q 71 0 135 4 l 0 0 l 0 110 l 71 110 q 160 133 118 111 l 160 596 q 229 667 160 667 q 281 649 263 667 q 299 596 299 631 l 299 218 q 342 110 299 110 l 469 110 m 125 -276 q 67 -252 92 -276 q 43 -194 43 -228 q 67 -135 43 -160 q 125 -111 92 -111 q 183 -135 160 -111 q 207 -194 207 -160 q 183 -252 207 -228 q 125 -276 160 -276 m 333 -276 q 276 -252 300 -276 q 251 -194 251 -228 q 276 -135 251 -160 q 333 -111 300 -111 q 392 -135 368 -111 q 415 -194 415 -160 q 392 -252 415 -228 q 333 -276 368 -276 m 229 -449 q 175 -426 197 -449 q 153 -372 153 -404 q 175 -318 153 -340 q 229 -296 197 -296 q 283 -319 261 -296 q 306 -372 306 -342 q 283 -426 306 -404 q 229 -449 261 -449 z "},"ﭘ":{"ha":469,"x_min":0,"x_max":399,"o":"m 0 110 l 103 110 q 212 182 183 110 q 240 340 240 254 q 217 499 240 428 q 128 624 193 569 q 214 667 157 667 q 339 584 299 667 q 379 381 379 501 q 313 113 379 225 q 96 0 246 0 l 0 0 l 0 110 m 108 -276 q 51 -252 75 -276 q 26 -194 26 -228 q 51 -135 26 -160 q 108 -111 75 -111 q 167 -135 143 -111 q 190 -194 190 -160 q 167 -252 190 -228 q 108 -276 143 -276 m 317 -276 q 259 -252 283 -276 q 235 -194 235 -228 q 259 -135 235 -160 q 317 -111 283 -111 q 375 -135 351 -111 q 399 -194 399 -160 q 375 -252 399 -228 q 317 -276 351 -276 m 213 -449 q 158 -426 181 -449 q 136 -372 136 -404 q 158 -318 136 -340 q 213 -296 181 -296 q 267 -319 244 -296 q 289 -372 289 -342 q 267 -426 289 -404 q 213 -449 244 -449 z "},"ﯩ":{"ha":469,"x_min":0,"x_max":469,"o":"m 469 110 l 469 0 l 321 0 q 189 39 242 0 q 71 0 135 4 l 0 0 l 0 110 l 71 110 q 160 133 118 111 l 160 596 q 229 667 160 667 q 281 649 263 667 q 299 596 299 631 l 299 218 q 342 110 299 110 l 469 110 z "},"ﯨ":{"ha":469,"x_min":0,"x_max":379,"o":"m 0 110 l 103 110 q 212 182 183 110 q 240 340 240 254 q 217 499 240 428 q 128 624 193 569 q 214 667 157 667 q 339 584 299 667 q 379 381 379 501 q 313 113 379 225 q 96 0 246 0 l 0 0 l 0 110 z "},"ت":{"ha":1064,"x_min":90,"x_max":974,"o":"m 271 0 q 134 53 178 0 q 90 194 90 107 l 90 528 q 109 578 90 560 q 160 596 128 596 q 211 578 193 596 q 229 525 229 560 l 229 236 q 251 138 229 167 q 331 110 274 110 l 696 110 q 805 185 776 110 q 833 340 833 261 q 810 499 833 429 q 722 624 788 569 q 753 653 732 640 q 808 667 774 667 q 933 584 893 667 q 974 381 974 501 q 907 113 974 225 q 689 0 840 0 l 271 0 m 407 696 q 349 720 374 696 q 325 778 325 744 q 349 837 325 813 q 407 861 374 861 q 465 837 442 861 q 489 778 489 813 q 465 720 489 744 q 407 696 442 696 m 615 696 q 558 720 582 696 q 533 778 533 744 q 558 837 533 813 q 615 861 582 861 q 674 837 650 861 q 697 778 697 813 q 674 720 697 744 q 615 696 650 696 z "},"ﺖ":{"ha":1132,"x_min":90,"x_max":1132,"o":"m 1132 110 l 1132 0 l 967 0 q 891 10 922 0 q 833 39 860 19 q 689 0 772 0 l 271 0 q 134 53 178 0 q 90 194 90 107 l 90 528 q 109 578 90 560 q 160 596 128 596 q 211 578 193 596 q 229 525 229 560 l 229 236 q 251 138 229 167 q 331 110 274 110 l 696 110 q 805 185 776 110 q 833 340 833 261 q 810 499 833 429 q 722 624 788 569 q 753 653 732 640 q 808 667 774 667 q 933 584 893 667 q 974 381 974 501 q 957 233 974 304 q 904 110 940 163 l 1132 110 m 396 696 q 338 720 363 696 q 314 778 314 744 q 338 837 314 813 q 396 861 363 861 q 454 837 431 861 q 478 778 478 813 q 454 720 478 744 q 396 696 431 696 m 604 696 q 547 720 571 696 q 522 778 522 744 q 547 837 522 813 q 604 861 571 861 q 663 837 639 861 q 686 778 686 813 q 663 720 686 744 q 604 696 639 696 z "},"ﺘ":{"ha":469,"x_min":0,"x_max":469,"o":"m 469 110 l 469 0 l 321 0 q 189 39 242 0 q 71 0 135 4 l 0 0 l 0 110 l 71 110 q 160 133 118 111 l 160 596 q 229 667 160 667 q 281 649 263 667 q 299 596 299 631 l 299 218 q 342 110 299 110 l 469 110 m 126 758 q 69 783 93 758 q 44 840 44 807 q 69 899 44 875 q 126 924 93 924 q 185 899 161 924 q 208 840 208 875 q 185 783 208 807 q 126 758 161 758 m 335 758 q 277 783 301 758 q 253 840 253 807 q 277 899 253 875 q 335 924 301 924 q 393 899 369 924 q 417 840 417 875 q 393 783 417 807 q 335 758 369 758 z "},"ﺗ":{"ha":469,"x_min":0,"x_max":401,"o":"m 0 110 l 103 110 q 212 182 183 110 q 240 340 240 254 q 217 499 240 428 q 128 624 193 569 q 214 667 157 667 q 339 584 299 667 q 379 381 379 501 q 313 113 379 225 q 96 0 246 0 l 0 0 l 0 110 m 111 758 q 53 783 78 758 q 29 840 29 807 q 53 899 29 875 q 111 924 78 924 q 169 899 146 924 q 193 840 193 875 q 169 783 193 807 q 111 758 146 758 m 319 758 q 262 783 286 758 q 238 840 238 807 q 262 899 238 875 q 319 924 286 924 q 378 899 354 924 q 401 840 401 875 q 378 783 401 807 q 319 758 354 758 z "},"ث":{"ha":1064,"x_min":90,"x_max":974,"o":"m 271 0 q 134 53 178 0 q 90 194 90 107 l 90 528 q 109 578 90 560 q 160 596 128 596 q 211 578 193 596 q 229 525 229 560 l 229 236 q 251 138 229 167 q 331 110 274 110 l 696 110 q 805 185 776 110 q 833 340 833 261 q 810 499 833 429 q 722 624 788 569 q 753 653 732 640 q 808 667 774 667 q 933 584 893 667 q 974 381 974 501 q 907 113 974 225 q 689 0 840 0 l 271 0 m 510 1032 q 564 1010 542 1032 q 586 956 586 988 q 564 902 586 925 q 510 879 542 879 q 456 901 478 879 q 433 956 433 924 q 456 1010 433 988 q 510 1032 478 1032 m 406 860 q 464 835 440 860 q 488 778 488 811 q 464 719 488 743 q 406 694 440 694 q 348 719 372 694 q 324 778 324 743 q 348 835 324 811 q 406 860 372 860 m 614 860 q 672 835 649 860 q 696 778 696 811 q 672 719 696 743 q 614 694 649 694 q 556 719 581 694 q 532 778 532 743 q 556 835 532 811 q 614 860 581 860 z "},"ﺚ":{"ha":1132,"x_min":90,"x_max":1132,"o":"m 1132 110 l 1132 0 l 967 0 q 891 10 922 0 q 833 39 860 19 q 689 0 772 0 l 271 0 q 134 53 178 0 q 90 194 90 107 l 90 528 q 109 578 90 560 q 160 596 128 596 q 211 578 193 596 q 229 525 229 560 l 229 236 q 251 138 229 167 q 331 110 274 110 l 696 110 q 805 185 776 110 q 833 340 833 261 q 810 499 833 429 q 722 624 788 569 q 753 653 732 640 q 808 667 774 667 q 933 584 893 667 q 974 381 974 501 q 957 233 974 304 q 904 110 940 163 l 1132 110 m 499 1032 q 553 1010 531 1032 q 575 956 575 988 q 553 902 575 925 q 499 879 531 879 q 444 901 467 879 q 422 956 422 924 q 444 1010 422 988 q 499 1032 467 1032 m 394 860 q 453 835 429 860 q 476 778 476 811 q 453 719 476 743 q 394 694 429 694 q 337 719 361 694 q 313 778 313 743 q 337 835 313 811 q 394 860 361 860 m 603 860 q 661 835 638 860 q 685 778 685 811 q 661 719 685 743 q 603 694 638 694 q 545 719 569 694 q 521 778 521 743 q 545 835 521 811 q 603 860 569 860 z "},"ﺜ":{"ha":469,"x_min":0,"x_max":469,"o":"m 469 110 l 469 0 l 321 0 q 189 39 242 0 q 71 0 135 4 l 0 0 l 0 110 l 71 110 q 160 133 118 111 l 160 596 q 229 667 160 667 q 281 649 263 667 q 299 596 299 631 l 299 218 q 342 110 299 110 l 469 110 m 229 1094 q 283 1072 261 1094 q 306 1018 306 1050 q 283 965 306 988 q 229 942 261 942 q 175 964 197 942 q 153 1018 153 986 q 175 1072 153 1050 q 229 1094 197 1094 m 125 922 q 183 898 160 922 q 207 840 207 874 q 183 781 207 806 q 125 757 160 757 q 67 781 92 757 q 43 840 43 806 q 67 898 43 874 q 125 922 92 922 m 333 922 q 392 898 368 922 q 415 840 415 874 q 392 781 415 806 q 333 757 368 757 q 276 781 300 757 q 251 840 251 806 q 276 898 251 874 q 333 922 300 922 z "},"ﺛ":{"ha":469,"x_min":0,"x_max":400,"o":"m 0 110 l 103 110 q 212 182 183 110 q 240 340 240 254 q 217 499 240 428 q 128 624 193 569 q 214 667 157 667 q 339 584 299 667 q 379 381 379 501 q 313 113 379 225 q 96 0 246 0 l 0 0 l 0 110 m 214 1094 q 268 1072 246 1094 q 290 1018 290 1050 q 268 965 290 988 q 214 942 246 942 q 160 964 182 942 q 138 1018 138 986 q 160 1072 138 1050 q 214 1094 182 1094 m 110 922 q 168 898 144 922 q 192 840 192 874 q 168 781 192 806 q 110 757 144 757 q 52 781 76 757 q 28 840 28 806 q 52 898 28 874 q 110 922 76 922 m 318 922 q 376 898 353 922 q 400 840 400 874 q 376 781 400 806 q 318 757 353 757 q 260 781 285 757 q 236 840 236 806 q 260 898 236 874 q 318 922 285 922 z "},"ٹ":{"ha":1064,"x_min":90,"x_max":974,"o":"m 271 0 q 134 53 178 0 q 90 194 90 107 l 90 528 q 109 578 90 560 q 160 596 128 596 q 211 578 193 596 q 229 525 229 560 l 229 236 q 251 138 229 167 q 331 110 274 110 l 696 110 q 805 185 776 110 q 833 340 833 261 q 810 499 833 429 q 722 624 788 569 q 753 653 732 640 q 808 667 774 667 q 933 584 893 667 q 974 381 974 501 q 907 113 974 225 q 689 0 840 0 l 271 0 m 372 694 q 361 722 361 694 q 372 749 361 749 l 393 749 l 393 925 q 386 950 393 939 q 375 964 379 961 q 384 972 376 968 q 400 976 392 976 q 425 966 415 976 q 435 935 435 956 l 435 819 q 551 888 479 888 q 631 858 601 888 q 660 779 660 828 q 640 717 660 739 q 590 694 621 694 l 372 694 m 558 749 q 581 760 574 749 q 589 788 589 771 q 575 823 589 808 q 535 838 561 838 q 483 823 507 838 q 446 787 460 808 q 432 749 432 765 l 558 749 z "},"ﭧ":{"ha":1132,"x_min":90,"x_max":1132,"o":"m 1132 110 l 1132 0 l 967 0 q 891 10 922 0 q 833 39 860 19 q 689 0 772 0 l 271 0 q 134 53 178 0 q 90 194 90 107 l 90 528 q 109 578 90 560 q 160 596 128 596 q 211 578 193 596 q 229 525 229 560 l 229 236 q 251 138 229 167 q 331 110 274 110 l 696 110 q 805 185 776 110 q 833 340 833 261 q 810 499 833 429 q 722 624 788 569 q 753 653 732 640 q 808 667 774 667 q 933 584 893 667 q 974 381 974 501 q 957 233 974 304 q 904 110 940 163 l 1132 110 m 361 694 q 350 722 350 694 q 361 749 350 749 l 382 749 l 382 925 q 375 950 382 939 q 364 964 368 961 q 373 972 365 968 q 389 976 381 976 q 414 966 404 976 q 424 935 424 956 l 424 819 q 540 888 468 888 q 619 858 590 888 q 649 779 649 828 q 629 717 649 739 q 579 694 610 694 l 361 694 m 547 749 q 570 760 563 749 q 578 788 578 771 q 564 823 578 808 q 524 838 550 838 q 472 823 496 838 q 435 787 449 808 q 421 749 421 765 l 547 749 z "},"ﭩ":{"ha":469,"x_min":0,"x_max":469,"o":"m 469 110 l 469 0 l 321 0 q 189 39 242 0 q 71 0 135 4 l 0 0 l 0 110 l 71 110 q 160 133 118 111 l 160 596 q 229 667 160 667 q 281 649 263 667 q 299 596 299 631 l 299 218 q 342 110 299 110 l 469 110 m 92 757 q 81 785 81 757 q 92 811 81 811 l 113 811 l 113 988 q 106 1013 113 1001 q 94 1026 99 1024 q 103 1035 96 1031 q 119 1039 111 1039 q 144 1028 135 1039 q 154 997 154 1018 l 154 882 q 271 950 199 950 q 350 920 321 950 q 379 842 379 890 q 360 779 379 801 q 310 757 340 757 l 92 757 m 278 811 q 301 822 293 811 q 308 850 308 833 q 294 885 308 871 q 254 900 281 900 q 203 885 226 900 q 165 849 179 871 q 151 811 151 828 l 278 811 z "},"ﭨ":{"ha":469,"x_min":0,"x_max":379,"o":"m 0 110 l 103 110 q 212 182 183 110 q 240 340 240 254 q 217 499 240 428 q 128 624 193 569 q 214 667 157 667 q 339 584 299 667 q 379 381 379 501 q 313 113 379 225 q 96 0 246 0 l 0 0 l 0 110 m 76 757 q 65 785 65 757 q 76 811 65 811 l 97 811 l 97 988 q 90 1013 97 1001 q 79 1026 83 1024 q 88 1035 81 1031 q 104 1039 96 1039 q 129 1028 119 1039 q 139 997 139 1018 l 139 882 q 256 950 183 950 q 335 920 306 950 q 364 842 364 890 q 344 779 364 801 q 294 757 325 757 l 76 757 m 263 811 q 285 822 278 811 q 293 850 293 833 q 279 885 293 871 q 239 900 265 900 q 188 885 211 900 q 150 849 164 871 q 136 811 136 828 l 263 811 z "},"ج":{"ha":846,"x_min":75,"x_max":771,"o":"m 390 667 q 672 578 574 667 q 771 326 771 489 q 700 93 771 186 q 486 0 629 0 l 207 0 q 234 -203 206 -117 q 322 -337 263 -290 q 288 -359 313 -349 q 238 -369 264 -369 q 141 -320 178 -369 q 90 -206 104 -271 q 75 -86 75 -140 q 117 60 75 10 q 240 110 158 110 l 417 110 q 519 123 474 110 q 598 183 564 136 q 632 324 632 231 q 561 499 632 440 q 336 557 490 557 l 242 556 q 172 584 197 556 q 139 647 146 613 q 136 671 136 664 q 143 700 136 693 q 185 673 157 685 q 254 661 213 661 l 306 664 q 390 667 358 667 m 440 -242 q 378 -217 404 -242 q 353 -157 353 -192 q 378 -96 353 -121 q 440 -71 404 -71 q 500 -97 475 -71 q 525 -157 525 -122 q 500 -217 525 -192 q 440 -242 475 -242 z "},"ﺞ":{"ha":821,"x_min":75,"x_max":821,"o":"m 821 110 l 821 0 l 774 0 q 639 39 690 0 l 640 40 q 486 0 574 0 l 207 0 q 234 -203 206 -117 q 322 -337 263 -290 q 288 -359 313 -349 q 238 -369 264 -369 q 141 -320 178 -369 q 90 -206 104 -271 q 75 -86 75 -140 q 117 60 75 10 q 240 110 158 110 l 417 110 q 519 123 474 110 q 598 183 564 136 q 632 324 632 231 q 561 499 632 440 q 336 557 490 557 l 242 556 q 172 584 197 556 q 139 647 146 613 q 136 671 136 664 q 143 700 136 693 q 185 673 157 685 q 254 661 213 661 l 306 664 q 390 667 358 667 q 672 578 574 667 q 771 326 771 489 q 713 110 771 196 l 821 110 m 440 -71 q 500 -97 475 -71 q 525 -157 525 -122 q 500 -217 525 -192 q 440 -242 475 -242 q 378 -217 404 -242 q 353 -157 353 -192 q 378 -96 353 -121 q 440 -71 404 -71 z "},"ﺠ":{"ha":744,"x_min":0,"x_max":744,"o":"m 744 110 l 744 0 l 685 0 q 550 39 601 0 l 550 40 q 397 0 485 0 l 0 0 l 0 110 l 328 110 q 429 122 383 110 q 509 182 475 135 q 543 322 543 229 q 473 500 543 443 q 247 557 403 557 l 151 556 q 49 650 61 556 q 47 669 47 657 q 53 700 47 694 q 165 661 92 661 l 217 664 q 301 667 269 667 q 583 578 485 667 q 682 326 682 489 q 624 110 682 196 l 744 110 m 378 -282 q 316 -257 342 -282 q 290 -197 290 -232 q 316 -136 290 -161 q 378 -111 342 -111 q 438 -137 413 -111 q 463 -197 463 -162 q 438 -257 463 -232 q 378 -282 413 -282 z "},"ﺟ":{"ha":757,"x_min":0,"x_max":682,"o":"m 0 110 l 328 110 q 429 122 383 110 q 509 182 475 135 q 543 322 543 229 q 473 500 543 443 q 247 557 403 557 l 151 556 q 49 650 61 556 q 47 669 47 657 q 53 700 47 694 q 165 661 92 661 l 217 664 q 301 667 269 667 q 583 578 485 667 q 682 326 682 489 q 611 93 682 186 q 397 0 540 0 l 0 0 l 0 110 m 378 -282 q 316 -257 342 -282 q 290 -197 290 -232 q 316 -136 290 -161 q 378 -111 342 -111 q 438 -137 413 -111 q 463 -197 463 -162 q 438 -257 463 -232 q 378 -282 413 -282 z "},"چ":{"ha":846,"x_min":75,"x_max":771,"o":"m 390 667 q 672 578 574 667 q 771 326 771 489 q 700 93 771 186 q 486 0 629 0 l 207 0 q 234 -203 206 -117 q 322 -337 263 -290 q 288 -359 313 -349 q 238 -369 264 -369 q 141 -320 178 -369 q 90 -206 104 -271 q 75 -86 75 -140 q 117 60 75 10 q 240 110 158 110 l 417 110 q 519 123 474 110 q 598 183 564 136 q 632 324 632 231 q 561 499 632 440 q 336 557 490 557 l 242 556 q 172 584 197 556 q 139 647 146 613 q 136 671 136 664 q 143 700 136 693 q 185 673 157 685 q 254 661 213 661 l 306 664 q 390 667 358 667 m 411 -244 q 353 -220 378 -244 q 329 -162 329 -196 q 353 -103 329 -128 q 411 -79 378 -79 q 469 -103 446 -79 q 493 -162 493 -128 q 469 -220 493 -196 q 411 -244 446 -244 m 619 -244 q 562 -220 586 -244 q 538 -162 538 -196 q 562 -103 538 -128 q 619 -79 586 -79 q 678 -103 654 -79 q 701 -162 701 -128 q 678 -220 701 -196 q 619 -244 654 -244 m 515 -417 q 461 -394 483 -417 q 439 -340 439 -372 q 461 -286 439 -308 q 515 -264 483 -264 q 569 -287 547 -264 q 592 -340 592 -310 q 569 -394 592 -372 q 515 -417 547 -417 z "},"ﭻ":{"ha":821,"x_min":75,"x_max":821,"o":"m 821 110 l 821 0 l 774 0 q 639 39 690 0 l 640 40 q 486 0 574 0 l 207 0 q 234 -203 206 -117 q 322 -337 263 -290 q 288 -359 313 -349 q 238 -369 264 -369 q 141 -320 178 -369 q 90 -206 104 -271 q 75 -86 75 -140 q 117 60 75 10 q 240 110 158 110 l 417 110 q 519 123 474 110 q 598 183 564 136 q 632 324 632 231 q 561 499 632 440 q 336 557 490 557 l 242 556 q 172 584 197 556 q 139 647 146 613 q 136 671 136 664 q 143 700 136 693 q 185 673 157 685 q 254 661 213 661 l 306 664 q 390 667 358 667 q 672 578 574 667 q 771 326 771 489 q 713 110 771 196 l 821 110 m 493 -162 q 469 -221 493 -197 q 411 -244 446 -244 q 353 -221 378 -244 q 329 -162 329 -197 q 353 -103 329 -128 q 411 -79 378 -79 q 469 -103 446 -79 q 493 -162 493 -128 m 619 -79 q 678 -103 654 -79 q 701 -162 701 -128 q 678 -221 701 -197 q 619 -244 654 -244 q 562 -221 586 -244 q 538 -162 538 -197 q 562 -103 538 -128 q 619 -79 586 -79 m 515 -265 q 569 -288 547 -265 q 592 -342 592 -311 q 569 -396 592 -374 q 515 -418 547 -418 q 461 -396 483 -418 q 439 -342 439 -374 q 461 -287 439 -310 q 515 -265 483 -265 z "},"ﭽ":{"ha":744,"x_min":0,"x_max":744,"o":"m 744 110 l 744 0 l 685 0 q 550 39 601 0 l 550 40 q 397 0 485 0 l 0 0 l 0 110 l 328 110 q 429 122 383 110 q 509 182 475 135 q 543 322 543 229 q 473 500 543 443 q 247 557 403 557 l 151 556 q 49 650 61 556 q 47 669 47 657 q 53 700 47 694 q 165 661 92 661 l 217 664 q 301 667 269 667 q 583 578 485 667 q 682 326 682 489 q 624 110 682 196 l 744 110 m 272 -276 q 215 -252 239 -276 q 190 -194 190 -228 q 215 -135 190 -160 q 272 -111 239 -111 q 331 -135 307 -111 q 354 -194 354 -160 q 331 -252 354 -228 q 272 -276 307 -276 m 481 -276 q 423 -252 447 -276 q 399 -194 399 -228 q 423 -135 399 -160 q 481 -111 447 -111 q 539 -135 515 -111 q 563 -194 563 -160 q 539 -252 563 -228 q 481 -276 515 -276 m 376 -449 q 322 -426 344 -449 q 300 -372 300 -404 q 322 -318 300 -340 q 376 -296 344 -296 q 431 -319 408 -296 q 453 -372 453 -342 q 431 -426 453 -404 q 376 -449 408 -449 z "},"ﭼ":{"ha":757,"x_min":0,"x_max":682,"o":"m 0 110 l 328 110 q 429 122 383 110 q 509 182 475 135 q 543 322 543 229 q 473 500 543 443 q 247 557 403 557 l 151 556 q 49 650 61 556 q 47 669 47 657 q 53 700 47 694 q 165 661 92 661 l 217 664 q 301 667 269 667 q 583 578 485 667 q 682 326 682 489 q 611 93 682 186 q 397 0 540 0 l 0 0 l 0 110 m 272 -276 q 215 -252 239 -276 q 190 -194 190 -228 q 215 -135 190 -160 q 272 -111 239 -111 q 331 -135 307 -111 q 354 -194 354 -160 q 331 -252 354 -228 q 272 -276 307 -276 m 481 -276 q 423 -252 447 -276 q 399 -194 399 -228 q 423 -135 399 -160 q 481 -111 447 -111 q 539 -135 515 -111 q 563 -194 563 -160 q 539 -252 563 -228 q 481 -276 515 -276 m 376 -449 q 322 -426 344 -449 q 300 -372 300 -404 q 322 -318 300 -340 q 376 -296 344 -296 q 431 -319 408 -296 q 453 -372 453 -342 q 431 -426 453 -404 q 376 -449 408 -449 z "},"ح":{"ha":846,"x_min":75,"x_max":771,"o":"m 390 667 q 672 578 574 667 q 771 326 771 489 q 700 93 771 186 q 486 0 629 0 l 207 0 q 234 -203 206 -117 q 322 -337 263 -290 q 288 -359 313 -349 q 238 -369 264 -369 q 141 -320 178 -369 q 90 -206 104 -271 q 75 -86 75 -140 q 117 60 75 10 q 240 110 158 110 l 417 110 q 519 123 474 110 q 598 183 564 136 q 632 324 632 231 q 561 499 632 440 q 336 557 490 557 l 242 556 q 172 584 197 556 q 139 647 146 613 q 136 671 136 664 q 143 700 136 693 q 185 673 157 685 q 254 661 213 661 l 306 664 q 390 667 358 667 z "},"ﺢ":{"ha":821,"x_min":75,"x_max":821,"o":"m 821 110 l 821 0 l 774 0 q 639 39 690 0 l 640 40 q 486 0 574 0 l 207 0 q 234 -203 206 -117 q 322 -337 263 -290 q 288 -359 313 -349 q 238 -369 264 -369 q 141 -320 178 -369 q 90 -206 104 -271 q 75 -86 75 -140 q 117 60 75 10 q 240 110 158 110 l 417 110 q 519 123 474 110 q 598 183 564 136 q 632 324 632 231 q 561 499 632 440 q 336 557 490 557 l 242 556 q 172 584 197 556 q 139 647 146 613 q 136 671 136 664 q 143 700 136 693 q 185 673 157 685 q 254 661 213 661 l 306 664 q 390 667 358 667 q 672 578 574 667 q 771 326 771 489 q 713 110 771 196 l 821 110 z "},"ﺤ":{"ha":744,"x_min":0,"x_max":744,"o":"m 744 110 l 744 0 l 685 0 q 550 39 601 0 l 550 40 q 397 0 485 0 l 0 0 l 0 110 l 328 110 q 429 122 383 110 q 509 182 475 135 q 543 322 543 229 q 473 500 543 443 q 247 557 403 557 l 151 556 q 49 650 61 556 q 47 669 47 657 q 53 700 47 694 q 165 661 92 661 l 217 664 q 301 667 269 667 q 583 578 485 667 q 682 326 682 489 q 624 110 682 196 l 744 110 z "},"ﺣ":{"ha":757,"x_min":0,"x_max":682,"o":"m 0 110 l 328 110 q 429 122 383 110 q 509 182 475 135 q 543 322 543 229 q 473 500 543 443 q 247 557 403 557 l 151 556 q 49 650 61 556 q 47 669 47 657 q 53 700 47 694 q 165 661 92 661 l 217 664 q 301 667 269 667 q 583 578 485 667 q 682 326 682 489 q 611 93 682 186 q 397 0 540 0 l 0 0 l 0 110 z "},"خ":{"ha":846,"x_min":75,"x_max":771,"o":"m 390 667 q 672 578 574 667 q 771 326 771 489 q 700 93 771 186 q 486 0 629 0 l 207 0 q 234 -203 206 -117 q 322 -337 263 -290 q 288 -359 313 -349 q 238 -369 264 -369 q 141 -320 178 -369 q 90 -206 104 -271 q 75 -86 75 -140 q 117 60 75 10 q 240 110 158 110 l 417 110 q 519 123 474 110 q 598 183 564 136 q 632 324 632 231 q 561 499 632 440 q 336 557 490 557 l 242 556 q 172 584 197 556 q 139 647 146 613 q 136 671 136 664 q 143 700 136 693 q 185 673 157 685 q 254 661 213 661 l 306 664 q 390 667 358 667 m 425 757 q 363 782 389 757 q 338 842 338 807 q 363 903 338 878 q 425 928 389 928 q 485 902 460 928 q 510 842 510 876 q 485 782 510 807 q 425 757 460 757 z "},"ﺦ":{"ha":821,"x_min":75,"x_max":821,"o":"m 821 110 l 821 0 l 774 0 q 639 39 690 0 l 640 40 q 486 0 574 0 l 207 0 q 234 -203 206 -117 q 322 -337 263 -290 q 288 -359 313 -349 q 238 -369 264 -369 q 141 -320 178 -369 q 90 -206 104 -271 q 75 -86 75 -140 q 117 60 75 10 q 240 110 158 110 l 417 110 q 519 123 474 110 q 598 183 564 136 q 632 324 632 231 q 561 499 632 440 q 336 557 490 557 l 242 556 q 172 584 197 556 q 139 647 146 613 q 136 671 136 664 q 143 700 136 693 q 185 673 157 685 q 254 661 213 661 l 306 664 q 390 667 358 667 q 672 578 574 667 q 771 326 771 489 q 713 110 771 196 l 821 110 m 425 757 q 363 782 389 757 q 338 842 338 807 q 363 903 338 878 q 425 928 389 928 q 485 902 460 928 q 510 842 510 876 q 485 782 510 807 q 425 757 460 757 z "},"ﺨ":{"ha":744,"x_min":0,"x_max":744,"o":"m 744 110 l 744 0 l 685 0 q 550 39 601 0 l 550 40 q 397 0 485 0 l 0 0 l 0 110 l 328 110 q 429 122 383 110 q 509 182 475 135 q 543 322 543 229 q 473 500 543 443 q 247 557 403 557 l 151 556 q 49 650 61 556 q 47 669 47 657 q 53 700 47 694 q 165 661 92 661 l 217 664 q 301 667 269 667 q 583 578 485 667 q 682 326 682 489 q 624 110 682 196 l 744 110 m 378 757 q 316 782 342 757 q 290 842 290 807 q 316 903 290 878 q 378 928 342 928 q 438 902 413 928 q 463 842 463 876 q 438 782 463 807 q 378 757 413 757 z "},"ﺧ":{"ha":757,"x_min":0,"x_max":682,"o":"m 0 110 l 328 110 q 429 122 383 110 q 509 182 475 135 q 543 322 543 229 q 473 500 543 443 q 247 557 403 557 l 151 556 q 49 650 61 556 q 47 669 47 657 q 53 700 47 694 q 165 661 92 661 l 217 664 q 301 667 269 667 q 583 578 485 667 q 682 326 682 489 q 611 93 682 186 q 397 0 540 0 l 0 0 l 0 110 m 378 757 q 316 782 342 757 q 290 842 290 807 q 316 903 290 878 q 378 928 342 928 q 438 902 413 928 q 463 842 463 876 q 438 782 463 807 q 378 757 413 757 z "},"د":{"ha":685,"x_min":75,"x_max":610,"o":"m 314 667 q 469 622 401 667 q 573 506 536 578 q 610 356 610 435 q 581 201 610 283 q 488 59 553 118 q 324 0 424 0 l 118 0 q 85 17 94 0 q 75 53 75 33 q 88 92 75 75 q 129 110 100 110 l 206 110 q 406 179 342 110 q 469 351 469 249 q 425 499 469 442 q 311 560 381 557 q 219 426 219 531 q 188 424 203 424 q 150 429 165 424 q 107 456 124 435 q 90 511 90 476 q 158 624 90 582 q 314 667 225 667 m 351 568 q 344 567 347 568 l 351 568 z "},"ﺪ":{"ha":749,"x_min":75,"x_max":749,"o":"m 749 110 l 749 0 l 590 0 q 458 38 511 0 q 324 0 399 0 l 118 0 q 85 17 94 0 q 75 53 75 33 q 88 92 75 75 q 129 110 100 110 l 206 110 q 406 179 342 110 q 469 351 469 249 q 425 499 469 442 q 311 560 381 557 q 219 426 219 531 q 188 424 203 424 q 150 429 165 424 q 107 456 124 435 q 90 511 90 476 q 158 624 90 582 q 314 667 225 667 q 469 622 401 667 q 573 506 536 578 q 610 356 610 435 q 591 231 610 299 q 533 110 572 164 l 749 110 m 351 568 q 344 567 347 568 l 351 568 z "},"ذ":{"ha":685,"x_min":75,"x_max":610,"o":"m 314 667 q 469 622 401 667 q 573 506 536 578 q 610 356 610 435 q 581 201 610 283 q 488 59 553 118 q 324 0 424 0 l 118 0 q 85 17 94 0 q 75 53 75 33 q 88 92 75 75 q 129 110 100 110 l 206 110 q 406 179 342 110 q 469 351 469 249 q 425 499 469 442 q 311 560 381 557 q 219 426 219 531 q 188 424 203 424 q 150 429 165 424 q 107 456 124 435 q 90 511 90 476 q 158 624 90 582 q 314 667 225 667 m 351 568 q 344 567 347 568 l 351 568 m 344 757 q 283 782 308 757 q 257 842 257 807 q 283 903 257 878 q 344 928 308 928 q 404 902 379 928 q 429 842 429 876 q 404 782 429 807 q 344 757 379 757 z "},"ﺬ":{"ha":749,"x_min":75,"x_max":749,"o":"m 749 110 l 749 0 l 590 0 q 458 38 511 0 q 324 0 399 0 l 118 0 q 85 17 94 0 q 75 53 75 33 q 88 92 75 75 q 129 110 100 110 l 206 110 q 406 179 342 110 q 469 351 469 249 q 425 499 469 442 q 311 560 381 557 q 219 426 219 531 q 188 424 203 424 q 150 429 165 424 q 107 456 124 435 q 90 511 90 476 q 158 624 90 582 q 314 667 225 667 q 469 622 401 667 q 573 506 536 578 q 610 356 610 435 q 591 231 610 299 q 533 110 572 164 l 749 110 m 351 568 q 344 567 347 568 l 351 568 m 344 757 q 283 782 308 757 q 257 842 257 807 q 283 903 257 878 q 344 928 308 928 q 404 902 379 928 q 429 842 429 876 q 404 782 429 807 q 344 757 379 757 z "},"ڈ":{"ha":685,"x_min":75,"x_max":610,"o":"m 314 667 q 469 622 401 667 q 573 506 536 578 q 610 356 610 435 q 581 201 610 283 q 488 59 553 118 q 324 0 424 0 l 118 0 q 85 17 94 0 q 75 53 75 33 q 88 92 75 75 q 129 110 100 110 l 206 110 q 406 179 342 110 q 469 351 469 249 q 425 499 469 442 q 311 560 381 557 q 219 426 219 531 q 188 424 203 424 q 150 429 165 424 q 107 456 124 435 q 90 511 90 476 q 158 624 90 582 q 314 667 225 667 m 351 568 q 344 567 347 568 l 351 568 m 206 757 q 194 785 194 757 q 206 811 194 811 l 226 811 l 226 988 q 219 1013 226 1001 q 208 1026 213 1024 q 217 1035 210 1031 q 233 1039 225 1039 q 258 1028 249 1039 q 268 997 268 1018 l 268 882 q 385 950 313 950 q 464 920 435 950 q 493 842 493 890 q 474 779 493 801 q 424 757 454 757 l 206 757 m 392 811 q 415 822 407 811 q 422 850 422 833 q 408 885 422 871 q 368 900 394 900 q 317 885 340 900 q 279 849 293 871 q 265 811 265 828 l 392 811 z "},"ﮉ":{"ha":749,"x_min":75,"x_max":749,"o":"m 749 110 l 749 0 l 590 0 q 458 38 511 0 q 324 0 399 0 l 118 0 q 85 17 94 0 q 75 53 75 33 q 88 92 75 75 q 129 110 100 110 l 206 110 q 406 179 342 110 q 469 351 469 249 q 425 499 469 442 q 311 560 381 557 q 219 426 219 531 q 188 424 203 424 q 150 429 165 424 q 107 456 124 435 q 90 511 90 476 q 158 624 90 582 q 314 667 225 667 q 469 622 401 667 q 573 506 536 578 q 610 356 610 435 q 591 231 610 299 q 533 110 572 164 l 749 110 m 351 568 q 344 567 347 568 l 351 568 m 204 757 q 193 785 193 757 q 204 811 193 811 l 225 811 l 225 988 q 218 1013 225 1001 q 207 1026 211 1024 q 216 1035 208 1031 q 232 1039 224 1039 q 257 1028 247 1039 q 267 997 267 1018 l 267 882 q 383 950 311 950 q 463 920 433 950 q 492 842 492 890 q 472 779 492 801 q 422 757 453 757 l 204 757 m 390 811 q 413 822 406 811 q 421 850 421 833 q 407 885 421 871 q 367 900 393 900 q 315 885 339 900 q 278 849 292 871 q 264 811 264 828 l 390 811 z "},"ر":{"ha":396,"x_min":-62,"x_max":325,"o":"m 110 -318 q 14 -299 53 -318 q -43 -256 -25 -281 q -62 -215 -61 -232 q -10 -231 -39 -225 q 42 -237 18 -237 q 149 -199 111 -237 q 188 -114 188 -161 l 186 601 q 206 651 186 635 q 256 667 225 667 q 306 650 286 667 q 325 601 325 633 l 325 -93 q 307 -189 325 -137 q 241 -279 289 -240 q 110 -318 193 -318 z "},"ﺮ":{"ha":463,"x_min":-62,"x_max":463,"o":"m 463 0 l 325 0 l 325 -93 q 307 -189 325 -137 q 241 -279 289 -240 q 110 -318 193 -318 q 14 -299 53 -318 q -43 -256 -25 -281 q -62 -215 -61 -232 q -10 -231 -39 -225 q 42 -237 18 -237 q 149 -199 111 -237 q 188 -114 188 -161 l 186 601 q 206 651 186 635 q 256 667 225 667 q 306 650 286 667 q 325 601 325 633 l 325 110 l 463 110 l 463 0 z "},"ز":{"ha":396,"x_min":-64,"x_max":343,"o":"m 108 -318 q 13 -299 51 -318 q -44 -256 -26 -281 q -64 -215 -62 -232 q -12 -231 -40 -225 q 40 -237 17 -237 q 148 -199 110 -237 q 186 -114 186 -161 l 185 601 q 204 651 185 635 q 254 667 224 667 q 304 650 285 667 q 324 601 324 633 l 324 -93 q 306 -189 324 -137 q 240 -279 288 -240 q 108 -318 192 -318 m 258 757 q 197 782 222 757 q 171 842 171 807 q 197 903 171 878 q 258 928 222 928 q 318 902 293 928 q 343 842 343 876 q 318 782 343 807 q 258 757 293 757 z "},"ﺰ":{"ha":463,"x_min":-62,"x_max":463,"o":"m 463 0 l 325 0 l 325 -93 q 307 -189 325 -137 q 241 -279 289 -240 q 110 -318 193 -318 q 14 -299 53 -318 q -43 -256 -25 -281 q -62 -215 -61 -232 q -10 -231 -39 -225 q 42 -237 18 -237 q 149 -199 111 -237 q 188 -114 188 -161 l 186 601 q 206 651 186 635 q 256 667 225 667 q 306 650 286 667 q 325 601 325 633 l 325 110 l 463 110 l 463 0 m 258 757 q 197 782 222 757 q 171 842 171 807 q 197 903 171 878 q 258 928 222 928 q 318 902 293 928 q 343 842 343 876 q 318 782 343 807 q 258 757 293 757 z "},"ڑ":{"ha":396,"x_min":-64,"x_max":406,"o":"m 108 -318 q 13 -299 51 -318 q -44 -256 -26 -281 q -64 -215 -62 -232 q -12 -231 -40 -225 q 40 -237 17 -237 q 148 -199 110 -237 q 186 -114 186 -161 l 185 601 q 204 651 185 635 q 254 667 224 667 q 304 650 285 667 q 324 601 324 633 l 324 -93 q 306 -189 324 -137 q 240 -279 288 -240 q 108 -318 192 -318 m 118 757 q 107 785 107 757 q 118 811 107 811 l 139 811 l 139 988 q 132 1013 139 1001 q 121 1026 125 1024 q 130 1035 122 1031 q 146 1039 138 1039 q 171 1028 161 1039 q 181 997 181 1018 l 181 882 q 297 950 225 950 q 376 920 347 950 q 406 842 406 890 q 386 779 406 801 q 336 757 367 757 l 118 757 m 304 811 q 327 822 319 811 q 335 850 335 833 q 321 885 335 871 q 281 900 307 900 q 229 885 253 900 q 192 849 206 871 q 178 811 178 828 l 304 811 z "},"ﮍ":{"ha":463,"x_min":-62,"x_max":463,"o":"m 463 0 l 325 0 l 325 -93 q 307 -189 325 -137 q 241 -279 289 -240 q 110 -318 193 -318 q 14 -299 53 -318 q -43 -256 -25 -281 q -62 -215 -61 -232 q -10 -231 -39 -225 q 42 -237 18 -237 q 149 -199 111 -237 q 188 -114 188 -161 l 186 601 q 206 651 186 635 q 256 667 225 667 q 306 650 286 667 q 325 601 325 633 l 325 110 l 463 110 l 463 0 m 118 757 q 107 785 107 757 q 118 811 107 811 l 139 811 l 139 988 q 132 1013 139 1001 q 121 1026 125 1024 q 130 1035 122 1031 q 146 1039 138 1039 q 171 1028 161 1039 q 181 997 181 1018 l 181 882 q 297 950 225 950 q 376 920 347 950 q 406 842 406 890 q 386 779 406 801 q 336 757 367 757 l 118 757 m 304 811 q 327 822 319 811 q 335 850 335 833 q 321 885 335 871 q 281 900 307 900 q 229 885 253 900 q 192 849 206 871 q 178 811 178 828 l 304 811 z "},"ژ":{"ha":396,"x_min":-64,"x_max":443,"o":"m 108 -318 q 13 -299 51 -318 q -44 -256 -26 -281 q -64 -215 -62 -232 q -12 -231 -40 -225 q 40 -237 17 -237 q 148 -199 110 -237 q 186 -114 186 -161 l 185 601 q 204 651 185 635 q 254 667 224 667 q 304 650 285 667 q 324 601 324 633 l 324 -93 q 306 -189 324 -137 q 240 -279 288 -240 q 108 -318 192 -318 m 257 1094 q 311 1072 289 1094 q 333 1018 333 1050 q 311 965 333 988 q 257 942 289 942 q 203 964 225 942 q 181 1018 181 986 q 203 1072 181 1050 q 257 1094 225 1094 m 153 922 q 211 898 188 922 q 235 840 235 874 q 211 781 235 806 q 153 757 188 757 q 95 781 119 757 q 71 840 71 806 q 95 898 71 874 q 153 922 119 922 m 361 922 q 419 898 396 922 q 443 840 443 874 q 419 781 443 806 q 361 757 396 757 q 303 781 328 757 q 279 840 279 806 q 303 898 279 874 q 361 922 328 922 z "},"ﮋ":{"ha":463,"x_min":-62,"x_max":463,"o":"m 463 0 l 325 0 l 325 -93 q 307 -189 325 -137 q 241 -279 289 -240 q 110 -318 193 -318 q 14 -299 53 -318 q -43 -256 -25 -281 q -62 -215 -61 -232 q -10 -231 -39 -225 q 42 -237 18 -237 q 149 -199 111 -237 q 188 -114 188 -161 l 186 601 q 206 651 186 635 q 256 667 225 667 q 306 650 286 667 q 325 601 325 633 l 325 110 l 463 110 l 463 0 m 257 1094 q 311 1072 289 1094 q 333 1018 333 1050 q 311 965 333 988 q 257 942 289 942 q 203 964 225 942 q 181 1018 181 986 q 203 1072 181 1050 q 257 1094 225 1094 m 153 922 q 211 898 188 922 q 235 840 235 874 q 211 781 235 806 q 153 757 188 757 q 95 781 119 757 q 71 840 71 806 q 95 898 71 874 q 153 922 119 922 m 361 922 q 419 898 396 922 q 443 840 443 874 q 419 781 443 806 q 361 757 396 757 q 303 781 328 757 q 279 840 279 806 q 303 898 279 874 q 361 922 328 922 z "},"س":{"ha":1799,"x_min":90,"x_max":1708,"o":"m 1539 667 q 1667 583 1625 667 q 1708 372 1708 499 q 1645 113 1708 226 q 1421 0 1582 0 l 1403 0 q 1281 18 1329 0 q 1189 81 1232 36 q 1126 24 1165 49 q 1043 0 1088 0 l 928 0 q 819 32 871 0 q 776 -197 817 -112 q 658 -317 735 -281 q 463 -353 581 -353 q 193 -265 296 -353 q 90 50 90 -178 q 121 251 90 179 q 192 348 151 324 q 269 372 232 372 q 320 360 297 372 q 354 335 343 349 q 266 206 306 296 q 226 4 226 117 q 291 -199 226 -143 q 463 -257 356 -256 q 601 -218 553 -257 q 665 -112 649 -179 q 681 54 681 -46 l 681 517 q 750 590 681 590 q 803 572 786 590 q 819 517 819 554 l 819 244 q 831 144 819 176 q 878 110 842 111 l 994 110 q 1081 139 1057 110 q 1104 215 1104 168 l 1104 549 q 1122 605 1104 586 q 1172 624 1140 624 q 1224 605 1206 624 q 1243 549 1243 586 l 1243 274 q 1262 160 1243 210 q 1331 110 1281 110 l 1431 110 q 1539 187 1510 110 q 1568 342 1568 264 q 1542 501 1568 426 q 1454 625 1515 576 q 1539 667 1478 667 z "},"ﺲ":{"ha":1903,"x_min":90,"x_max":1903,"o":"m 1903 110 l 1903 0 l 1700 0 q 1567 38 1619 0 q 1421 0 1507 0 l 1403 0 q 1281 18 1329 0 q 1189 81 1232 36 q 1126 24 1165 49 q 1043 0 1088 0 l 928 0 q 819 32 871 0 q 776 -197 817 -112 q 658 -317 735 -281 q 463 -353 581 -353 q 193 -265 296 -353 q 90 50 90 -178 q 121 251 90 179 q 192 348 151 324 q 269 372 232 372 q 320 360 297 372 q 354 335 343 349 q 266 206 306 296 q 226 4 226 117 q 291 -199 226 -143 q 463 -257 356 -256 q 601 -218 553 -257 q 665 -112 649 -179 q 681 54 681 -46 l 681 517 q 750 590 681 590 q 803 572 786 590 q 819 517 819 554 l 819 244 q 831 144 819 176 q 878 110 842 111 l 994 110 q 1081 139 1057 110 q 1104 215 1104 168 l 1104 549 q 1122 605 1104 586 q 1172 624 1140 624 q 1224 605 1206 624 q 1243 549 1243 586 l 1243 274 q 1262 160 1243 210 q 1331 110 1281 110 l 1431 110 q 1539 187 1510 110 q 1568 342 1568 264 q 1542 501 1568 426 q 1454 625 1515 576 q 1539 667 1478 667 q 1667 583 1625 667 q 1708 372 1708 499 q 1693 232 1708 301 q 1642 110 1678 163 l 1903 110 z "},"ﺴ":{"ha":1397,"x_min":0,"x_max":1397,"o":"m 1397 110 l 1397 0 l 1189 0 q 1056 38 1108 0 q 908 0 994 0 l 892 0 q 769 18 818 0 q 678 81 721 36 q 615 24 654 49 q 532 0 576 0 l 381 0 q 233 50 296 0 q 171 13 203 25 q 100 0 139 0 l 0 0 l 0 110 l 60 110 q 147 140 125 110 q 168 222 168 169 l 168 517 q 238 590 168 590 q 292 572 275 590 q 308 517 308 554 l 308 244 q 319 143 308 175 q 367 110 331 111 l 482 110 q 568 139 544 110 q 592 215 592 168 l 592 549 q 612 605 592 586 q 665 624 632 624 q 732 549 732 624 l 732 274 q 750 160 732 210 q 818 110 768 110 l 918 110 q 1027 185 999 110 q 1056 335 1056 260 q 942 625 1056 536 q 1026 667 965 667 q 1154 583 1113 667 q 1196 372 1196 499 q 1181 232 1196 301 q 1129 110 1165 163 l 1397 110 z "},"ﺳ":{"ha":1286,"x_min":0,"x_max":1196,"o":"m 1026 667 q 1154 583 1113 667 q 1196 372 1196 499 q 1133 113 1196 226 q 908 0 1069 0 l 892 0 q 769 18 818 0 q 678 81 721 36 q 615 24 654 49 q 532 0 576 0 l 381 0 q 233 50 296 0 q 171 13 203 25 q 100 0 139 0 l 0 0 l 0 110 l 60 110 q 147 140 125 110 q 168 222 168 169 l 168 517 q 238 590 168 590 q 292 572 275 590 q 308 517 308 554 l 308 244 q 319 143 308 175 q 367 110 331 111 l 482 110 q 568 139 544 110 q 592 215 592 168 l 592 549 q 612 605 592 586 q 665 624 632 624 q 732 549 732 624 l 732 274 q 750 160 732 210 q 818 110 768 110 l 918 110 q 1027 185 999 110 q 1056 335 1056 260 q 942 625 1056 536 q 1026 667 965 667 z "},"ش":{"ha":1799,"x_min":90,"x_max":1708,"o":"m 1539 667 q 1667 583 1625 667 q 1708 372 1708 499 q 1645 113 1708 226 q 1421 0 1582 0 l 1403 0 q 1281 18 1329 0 q 1189 81 1232 36 q 1126 24 1165 49 q 1043 0 1088 0 l 928 0 q 819 32 871 0 q 776 -197 817 -112 q 658 -317 735 -281 q 463 -353 581 -353 q 193 -265 296 -353 q 90 50 90 -178 q 121 251 90 179 q 192 348 151 324 q 269 372 232 372 q 320 360 297 372 q 354 335 343 349 q 266 206 306 296 q 226 4 226 117 q 291 -199 226 -143 q 463 -257 356 -256 q 601 -218 553 -257 q 665 -112 649 -179 q 681 54 681 -46 l 681 517 q 750 590 681 590 q 803 572 786 590 q 819 517 819 554 l 819 244 q 831 144 819 176 q 878 110 842 111 l 994 110 q 1081 139 1057 110 q 1104 215 1104 168 l 1104 549 q 1122 605 1104 586 q 1172 624 1140 624 q 1224 605 1206 624 q 1243 549 1243 586 l 1243 274 q 1262 160 1243 210 q 1331 110 1281 110 l 1431 110 q 1539 187 1510 110 q 1568 342 1568 264 q 1542 501 1568 426 q 1454 625 1515 576 q 1539 667 1478 667 m 1171 1094 q 1225 1072 1203 1094 q 1247 1018 1247 1050 q 1225 965 1247 988 q 1171 942 1203 942 q 1117 964 1139 942 q 1094 1018 1094 986 q 1117 1072 1094 1050 q 1171 1094 1139 1094 m 1067 922 q 1125 898 1101 922 q 1149 840 1149 874 q 1125 781 1149 806 q 1067 757 1101 757 q 1009 781 1033 757 q 985 840 985 806 q 1009 898 985 874 q 1067 922 1033 922 m 1275 922 q 1333 898 1310 922 q 1357 840 1357 874 q 1333 781 1357 806 q 1275 757 1310 757 q 1217 781 1242 757 q 1193 840 1193 806 q 1217 898 1193 874 q 1275 922 1242 922 z "},"ﺶ":{"ha":1903,"x_min":90,"x_max":1903,"o":"m 1903 110 l 1903 0 l 1700 0 q 1567 38 1619 0 q 1421 0 1507 0 l 1403 0 q 1281 18 1329 0 q 1189 81 1232 36 q 1126 24 1165 49 q 1043 0 1088 0 l 928 0 q 819 32 871 0 q 776 -197 817 -112 q 658 -317 735 -281 q 463 -353 581 -353 q 193 -265 296 -353 q 90 50 90 -178 q 121 251 90 179 q 192 348 151 324 q 269 372 232 372 q 320 360 297 372 q 354 335 343 349 q 266 206 306 296 q 226 4 226 117 q 291 -199 226 -143 q 463 -257 356 -256 q 601 -218 553 -257 q 665 -112 649 -179 q 681 54 681 -46 l 681 517 q 750 590 681 590 q 803 572 786 590 q 819 517 819 554 l 819 244 q 831 144 819 176 q 878 110 842 111 l 994 110 q 1081 139 1057 110 q 1104 215 1104 168 l 1104 549 q 1122 605 1104 586 q 1172 624 1140 624 q 1224 605 1206 624 q 1243 549 1243 586 l 1243 274 q 1262 160 1243 210 q 1331 110 1281 110 l 1431 110 q 1539 187 1510 110 q 1568 342 1568 264 q 1542 501 1568 426 q 1454 625 1515 576 q 1539 667 1478 667 q 1667 583 1625 667 q 1708 372 1708 499 q 1693 232 1708 301 q 1642 110 1678 163 l 1903 110 m 1171 1094 q 1225 1072 1203 1094 q 1247 1018 1247 1050 q 1225 965 1247 988 q 1171 942 1203 942 q 1117 964 1139 942 q 1094 1018 1094 986 q 1117 1072 1094 1050 q 1171 1094 1139 1094 m 1067 922 q 1125 898 1101 922 q 1149 840 1149 874 q 1125 781 1149 806 q 1067 757 1101 757 q 1009 781 1033 757 q 985 840 985 806 q 1009 898 985 874 q 1067 922 1033 922 m 1275 922 q 1333 898 1310 922 q 1357 840 1357 874 q 1333 781 1357 806 q 1275 757 1310 757 q 1217 781 1242 757 q 1193 840 1193 806 q 1217 898 1193 874 q 1275 922 1242 922 z "},"ﺸ":{"ha":1397,"x_min":0,"x_max":1397,"o":"m 1397 110 l 1397 0 l 1189 0 q 1056 38 1108 0 q 908 0 994 0 l 892 0 q 769 18 818 0 q 678 81 721 36 q 615 24 654 49 q 532 0 576 0 l 381 0 q 233 50 296 0 q 171 13 203 25 q 100 0 139 0 l 0 0 l 0 110 l 60 110 q 147 140 125 110 q 168 222 168 169 l 168 517 q 238 590 168 590 q 292 572 275 590 q 308 517 308 554 l 308 244 q 319 143 308 175 q 367 110 331 111 l 482 110 q 568 139 544 110 q 592 215 592 168 l 592 549 q 612 605 592 586 q 665 624 632 624 q 732 549 732 624 l 732 274 q 750 160 732 210 q 818 110 768 110 l 918 110 q 1027 185 999 110 q 1056 335 1056 260 q 942 625 1056 536 q 1026 667 965 667 q 1154 583 1113 667 q 1196 372 1196 499 q 1181 232 1196 301 q 1129 110 1165 163 l 1397 110 m 663 1094 q 717 1072 694 1094 q 739 1018 739 1050 q 717 965 739 988 q 663 942 694 942 q 608 964 631 942 q 586 1018 586 986 q 608 1072 586 1050 q 663 1094 631 1094 m 558 922 q 617 898 593 922 q 640 840 640 874 q 617 781 640 806 q 558 757 593 757 q 501 781 525 757 q 476 840 476 806 q 501 898 476 874 q 558 922 525 922 m 767 922 q 825 898 801 922 q 849 840 849 874 q 825 781 849 806 q 767 757 801 757 q 709 781 733 757 q 685 840 685 806 q 709 898 685 874 q 767 922 733 922 z "},"ﺷ":{"ha":1286,"x_min":0,"x_max":1196,"o":"m 1026 667 q 1154 583 1113 667 q 1196 372 1196 499 q 1133 113 1196 226 q 908 0 1069 0 l 892 0 q 769 18 818 0 q 678 81 721 36 q 615 24 654 49 q 532 0 576 0 l 381 0 q 233 50 296 0 q 171 13 203 25 q 100 0 139 0 l 0 0 l 0 110 l 60 110 q 147 140 125 110 q 168 222 168 169 l 168 517 q 238 590 168 590 q 292 572 275 590 q 308 517 308 554 l 308 244 q 319 143 308 175 q 367 110 331 111 l 482 110 q 568 139 544 110 q 592 215 592 168 l 592 549 q 612 605 592 586 q 665 624 632 624 q 732 549 732 624 l 732 274 q 750 160 732 210 q 818 110 768 110 l 918 110 q 1027 185 999 110 q 1056 335 1056 260 q 942 625 1056 536 q 1026 667 965 667 m 665 1094 q 719 1072 697 1094 q 742 1018 742 1050 q 719 965 742 988 q 665 942 697 942 q 611 964 633 942 q 589 1018 589 986 q 611 1072 589 1050 q 665 1094 633 1094 m 561 922 q 619 898 596 922 q 643 840 643 874 q 619 781 643 806 q 561 757 596 757 q 503 781 528 757 q 479 840 479 806 q 503 898 479 874 q 561 922 528 922 m 769 922 q 828 898 804 922 q 851 840 851 874 q 828 781 851 806 q 769 757 804 757 q 712 781 736 757 q 688 840 688 806 q 712 898 688 874 q 769 922 736 922 z "},"ص":{"ha":1568,"x_min":90,"x_max":1478,"o":"m 1104 667 q 1279 635 1194 667 q 1421 526 1364 603 q 1478 326 1478 450 q 1419 105 1478 210 q 1193 0 1360 0 l 818 0 q 721 -273 808 -193 q 463 -353 633 -353 q 193 -265 296 -353 q 90 50 90 -178 q 121 251 90 179 q 192 348 151 324 q 269 372 232 372 q 320 360 297 372 q 354 335 343 349 q 266 206 306 296 q 226 4 226 117 q 291 -199 226 -143 q 463 -257 356 -256 q 601 -218 553 -257 q 665 -112 649 -179 q 681 54 681 -46 l 681 433 q 660 503 681 469 q 614 553 639 536 q 650 583 625 569 q 706 596 675 596 q 796 546 765 596 q 918 630 836 593 q 1104 667 1000 667 m 1156 110 q 1298 178 1257 110 q 1339 322 1339 247 q 1299 458 1339 406 q 1199 534 1258 511 q 1076 557 1139 557 q 920 522 993 557 q 819 442 847 486 l 819 110 l 1156 110 z "},"ﺺ":{"ha":1576,"x_min":90,"x_max":1576,"o":"m 1576 110 l 1576 0 l 1458 0 q 1335 31 1383 0 q 1193 0 1276 0 l 818 0 q 721 -273 808 -193 q 463 -353 633 -353 q 193 -265 296 -353 q 90 50 90 -178 q 121 251 90 179 q 192 348 151 324 q 269 372 232 372 q 320 360 297 372 q 354 335 343 349 q 266 206 306 296 q 226 4 226 117 q 291 -199 226 -143 q 463 -257 356 -256 q 601 -218 553 -257 q 665 -112 649 -179 q 681 54 681 -46 l 681 433 q 660 503 681 469 q 614 553 639 536 q 650 583 625 569 q 706 596 675 596 q 796 546 765 596 q 918 630 836 593 q 1104 667 1000 667 q 1279 635 1194 667 q 1421 526 1364 603 q 1478 326 1478 450 q 1422 110 1478 194 l 1576 110 m 1156 110 q 1298 178 1257 110 q 1339 322 1339 247 q 1299 458 1339 406 q 1199 534 1258 511 q 1076 557 1139 557 q 920 522 993 557 q 819 442 847 486 l 819 110 l 1156 110 z "},"ﺼ":{"ha":1083,"x_min":0,"x_max":1083,"o":"m 1083 110 l 1083 0 l 932 0 q 800 36 851 0 q 650 0 739 0 l 0 0 l 0 110 l 138 110 l 138 433 q 117 503 138 469 q 71 553 96 536 q 107 583 82 569 q 163 596 132 596 q 253 546 222 596 q 375 630 293 593 q 561 667 457 667 q 736 635 651 667 q 878 526 821 603 q 935 326 935 450 q 879 110 935 194 l 1083 110 m 613 110 q 755 178 714 110 q 796 322 796 247 q 756 458 796 406 q 656 534 715 511 q 533 557 596 557 q 376 522 450 557 q 276 442 303 486 l 276 110 l 613 110 z "},"ﺻ":{"ha":1025,"x_min":0,"x_max":935,"o":"m 561 667 q 736 635 651 667 q 878 526 821 603 q 935 326 935 450 q 876 105 935 210 q 650 0 817 0 l 0 0 l 0 110 l 138 110 l 138 433 q 117 503 138 469 q 71 553 96 536 q 107 583 82 569 q 163 596 132 596 q 253 546 222 596 q 375 630 293 593 q 561 667 457 667 m 613 110 q 755 178 714 110 q 796 322 796 247 q 756 458 796 406 q 656 534 715 511 q 533 557 596 557 q 376 522 450 557 q 276 442 303 486 l 276 110 l 613 110 z "},"ض":{"ha":1568,"x_min":90,"x_max":1478,"o":"m 1104 667 q 1279 635 1194 667 q 1421 526 1364 603 q 1478 326 1478 450 q 1419 105 1478 210 q 1193 0 1360 0 l 818 0 q 721 -273 808 -193 q 463 -353 633 -353 q 193 -265 296 -353 q 90 50 90 -178 q 121 251 90 179 q 192 348 151 324 q 269 372 232 372 q 320 360 297 372 q 354 335 343 349 q 266 206 306 296 q 226 4 226 117 q 291 -199 226 -143 q 463 -257 356 -256 q 601 -218 553 -257 q 665 -112 649 -179 q 681 54 681 -46 l 681 433 q 660 503 681 469 q 614 553 639 536 q 650 583 625 569 q 706 596 675 596 q 796 546 765 596 q 918 630 836 593 q 1104 667 1000 667 m 1156 110 q 1298 178 1257 110 q 1339 322 1339 247 q 1299 458 1339 406 q 1199 534 1258 511 q 1076 557 1139 557 q 920 522 993 557 q 819 442 847 486 l 819 110 l 1156 110 m 1103 757 q 1041 782 1067 757 q 1015 842 1015 807 q 1041 903 1015 878 q 1103 928 1067 928 q 1163 902 1138 928 q 1188 842 1188 876 q 1163 782 1188 807 q 1103 757 1138 757 z "},"ﺾ":{"ha":1576,"x_min":90,"x_max":1576,"o":"m 1576 110 l 1576 0 l 1458 0 q 1335 31 1383 0 q 1193 0 1276 0 l 818 0 q 721 -273 808 -193 q 463 -353 633 -353 q 193 -265 296 -353 q 90 50 90 -178 q 121 251 90 179 q 192 348 151 324 q 269 372 232 372 q 320 360 297 372 q 354 335 343 349 q 266 206 306 296 q 226 4 226 117 q 291 -199 226 -143 q 463 -257 356 -256 q 601 -218 553 -257 q 665 -112 649 -179 q 681 54 681 -46 l 681 433 q 660 503 681 469 q 614 553 639 536 q 650 583 625 569 q 706 596 675 596 q 796 546 765 596 q 918 630 836 593 q 1104 667 1000 667 q 1279 635 1194 667 q 1421 526 1364 603 q 1478 326 1478 450 q 1422 110 1478 194 l 1576 110 m 1156 110 q 1298 178 1257 110 q 1339 322 1339 247 q 1299 458 1339 406 q 1199 534 1258 511 q 1076 557 1139 557 q 920 522 993 557 q 819 442 847 486 l 819 110 l 1156 110 m 1057 757 q 995 782 1021 757 q 969 842 969 807 q 995 903 969 878 q 1057 928 1021 928 q 1117 902 1092 928 q 1142 842 1142 876 q 1117 782 1142 807 q 1057 757 1092 757 z "},"ﻀ":{"ha":1083,"x_min":0,"x_max":1083,"o":"m 1083 110 l 1083 0 l 932 0 q 800 36 851 0 q 650 0 739 0 l 0 0 l 0 110 l 138 110 l 138 433 q 117 503 138 469 q 71 553 96 536 q 107 583 82 569 q 163 596 132 596 q 253 546 222 596 q 375 630 293 593 q 561 667 457 667 q 736 635 651 667 q 878 526 821 603 q 935 326 935 450 q 879 110 935 194 l 1083 110 m 613 110 q 755 178 714 110 q 796 322 796 247 q 756 458 796 406 q 656 534 715 511 q 533 557 596 557 q 376 522 450 557 q 276 442 303 486 l 276 110 l 613 110 m 560 757 q 498 782 524 757 q 472 842 472 807 q 498 903 472 878 q 560 928 524 928 q 619 902 594 928 q 644 842 644 876 q 619 782 644 807 q 560 757 594 757 z "},"ﺿ":{"ha":1025,"x_min":0,"x_max":935,"o":"m 561 667 q 736 635 651 667 q 878 526 821 603 q 935 326 935 450 q 876 105 935 210 q 650 0 817 0 l 0 0 l 0 110 l 138 110 l 138 433 q 117 503 138 469 q 71 553 96 536 q 107 583 82 569 q 163 596 132 596 q 253 546 222 596 q 375 630 293 593 q 561 667 457 667 m 613 110 q 755 178 714 110 q 796 322 796 247 q 756 458 796 406 q 656 534 715 511 q 533 557 596 557 q 376 522 450 557 q 276 442 303 486 l 276 110 l 613 110 m 560 757 q 498 782 524 757 q 472 842 472 807 q 498 903 472 878 q 560 928 524 928 q 619 902 594 928 q 644 842 644 876 q 619 782 644 807 q 560 757 594 757 z "},"ط":{"ha":1136,"x_min":28,"x_max":1046,"o":"m 678 667 q 853 627 769 667 q 992 506 938 588 q 1046 304 1046 424 q 978 88 1046 175 q 754 0 910 0 l 67 0 q 38 18 47 0 q 28 56 28 36 q 38 92 28 75 q 67 110 47 110 l 161 110 l 161 711 q 139 810 161 772 q 88 867 117 849 q 122 899 94 882 q 185 917 149 917 q 267 878 235 917 q 300 760 300 840 l 300 414 q 379 532 326 474 q 508 628 432 590 q 678 667 585 667 m 700 110 q 856 169 806 110 q 907 313 907 228 q 869 447 907 392 q 769 530 831 503 q 643 557 708 557 q 433 472 521 557 q 300 288 344 386 l 300 110 l 700 110 z "},"ﻂ":{"ha":1211,"x_min":28,"x_max":1211,"o":"m 1211 110 l 1211 0 l 1043 0 q 913 36 964 0 q 754 0 851 0 l 67 0 q 38 18 47 0 q 28 56 28 36 q 38 92 28 75 q 67 110 47 110 l 161 110 l 161 711 q 139 810 161 772 q 88 867 117 849 q 122 899 94 882 q 185 917 149 917 q 267 878 235 917 q 300 760 300 840 l 300 414 q 379 532 326 474 q 508 628 432 590 q 678 667 585 667 q 853 627 769 667 q 992 506 938 588 q 1046 304 1046 424 q 994 110 1046 186 l 1211 110 m 700 110 q 856 169 806 110 q 907 313 907 228 q 869 447 907 392 q 769 530 831 503 q 643 557 708 557 q 433 472 521 557 q 300 288 344 386 l 300 110 l 700 110 z "},"ﻄ":{"ha":1215,"x_min":0,"x_max":1215,"o":"m 1215 110 l 1215 0 l 1046 0 q 914 38 967 0 q 751 0 847 0 l 0 0 l 0 110 l 158 110 l 158 711 q 136 810 158 772 q 85 867 114 849 q 119 899 92 882 q 181 917 146 917 q 264 878 231 917 q 297 760 297 840 l 297 414 q 376 532 324 474 q 505 628 428 590 q 674 667 582 667 q 850 627 765 667 q 989 506 935 588 q 1043 304 1043 425 q 992 110 1043 186 l 1215 110 m 697 110 q 853 169 803 110 q 904 313 904 228 q 866 447 904 392 q 767 530 828 503 q 640 557 706 557 q 430 472 518 557 q 297 288 342 386 l 297 110 l 697 110 z "},"ﻃ":{"ha":1133,"x_min":0,"x_max":1043,"o":"m 674 667 q 850 627 765 667 q 989 506 935 588 q 1043 304 1043 425 q 975 88 1043 175 q 751 0 907 0 l 0 0 l 0 110 l 158 110 l 158 711 q 136 810 158 772 q 85 867 114 849 q 119 899 92 882 q 181 917 146 917 q 264 878 231 917 q 297 760 297 840 l 297 414 q 376 532 324 474 q 505 628 428 590 q 674 667 582 667 m 697 110 q 853 169 803 110 q 904 313 904 228 q 866 447 904 392 q 767 530 828 503 q 640 557 706 557 q 430 472 518 557 q 297 288 342 386 l 297 110 l 697 110 z "},"ظ":{"ha":1136,"x_min":28,"x_max":1046,"o":"m 678 667 q 853 627 769 667 q 992 506 938 588 q 1046 304 1046 424 q 978 88 1046 175 q 754 0 910 0 l 67 0 q 38 18 47 0 q 28 56 28 36 q 38 92 28 75 q 67 110 47 110 l 161 110 l 161 711 q 139 810 161 772 q 88 867 117 849 q 122 899 94 882 q 185 917 149 917 q 267 878 235 917 q 300 760 300 840 l 300 414 q 379 532 326 474 q 508 628 432 590 q 678 667 585 667 m 700 110 q 856 169 806 110 q 907 313 907 228 q 869 447 907 392 q 769 530 831 503 q 643 557 708 557 q 433 472 521 557 q 300 288 344 386 l 300 110 l 700 110 m 581 757 q 519 782 544 757 q 493 842 493 807 q 519 903 493 878 q 581 928 544 928 q 640 902 615 928 q 665 842 665 876 q 640 782 665 807 q 581 757 615 757 z "},"ﻆ":{"ha":1211,"x_min":28,"x_max":1211,"o":"m 1211 110 l 1211 0 l 1043 0 q 913 36 964 0 q 754 0 851 0 l 67 0 q 38 18 47 0 q 28 56 28 36 q 38 92 28 75 q 67 110 47 110 l 161 110 l 161 711 q 139 810 161 772 q 88 867 117 849 q 122 899 94 882 q 185 917 149 917 q 267 878 235 917 q 300 760 300 840 l 300 414 q 379 532 326 474 q 508 628 432 590 q 678 667 585 667 q 853 627 769 667 q 992 506 938 588 q 1046 304 1046 424 q 994 110 1046 186 l 1211 110 m 700 110 q 856 169 806 110 q 907 313 907 228 q 869 447 907 392 q 769 530 831 503 q 643 557 708 557 q 433 472 521 557 q 300 288 344 386 l 300 110 l 700 110 m 579 757 q 517 782 543 757 q 492 842 492 807 q 517 903 492 878 q 579 928 543 928 q 639 902 614 928 q 664 842 664 876 q 639 782 664 807 q 579 757 614 757 z "},"ﻈ":{"ha":1215,"x_min":0,"x_max":1215,"o":"m 1215 110 l 1215 0 l 1046 0 q 914 38 967 0 q 751 0 847 0 l 0 0 l 0 110 l 158 110 l 158 711 q 136 810 158 772 q 85 867 114 849 q 119 899 92 882 q 181 917 146 917 q 264 878 231 917 q 297 760 297 840 l 297 414 q 376 532 324 474 q 505 628 428 590 q 674 667 582 667 q 850 627 765 667 q 989 506 935 588 q 1043 304 1043 425 q 992 110 1043 186 l 1215 110 m 697 110 q 853 169 803 110 q 904 313 904 228 q 866 447 904 392 q 767 530 828 503 q 640 557 706 557 q 430 472 518 557 q 297 288 342 386 l 297 110 l 697 110 m 553 757 q 491 782 517 757 q 465 842 465 807 q 491 903 465 878 q 553 928 517 928 q 613 902 588 928 q 638 842 638 876 q 613 782 638 807 q 553 757 588 757 z "},"ﻇ":{"ha":1133,"x_min":0,"x_max":1043,"o":"m 674 667 q 850 627 765 667 q 989 506 935 588 q 1043 304 1043 425 q 975 88 1043 175 q 751 0 907 0 l 0 0 l 0 110 l 158 110 l 158 711 q 136 810 158 772 q 85 867 114 849 q 119 899 92 882 q 181 917 146 917 q 264 878 231 917 q 297 760 297 840 l 297 414 q 376 532 324 474 q 505 628 428 590 q 674 667 582 667 m 697 110 q 853 169 803 110 q 904 313 904 228 q 866 447 904 392 q 767 530 828 503 q 640 557 706 557 q 430 472 518 557 q 297 288 342 386 l 297 110 l 697 110 m 553 757 q 491 782 517 757 q 465 842 465 807 q 491 903 465 878 q 553 928 517 928 q 613 902 588 928 q 638 842 638 876 q 613 782 638 807 q 553 757 588 757 z "},"ع":{"ha":768,"x_min":90,"x_max":678,"o":"m 635 110 q 668 92 658 110 q 678 56 678 75 q 668 17 678 35 q 635 0 658 0 l 222 0 q 338 -337 222 -246 q 303 -359 328 -349 q 253 -369 279 -369 q 157 -320 193 -369 q 106 -206 121 -271 q 90 -86 90 -140 q 130 52 90 7 q 228 106 169 97 q 144 350 144 215 q 181 508 144 436 q 287 624 218 581 q 449 667 356 667 q 599 631 535 667 q 663 519 663 596 q 644 456 663 479 q 596 429 625 432 q 532 439 565 426 q 508 521 532 494 q 439 560 485 547 q 328 501 374 557 q 282 354 282 444 q 347 178 282 246 q 547 110 411 110 l 635 110 z "},"ﻊ":{"ha":853,"x_min":97,"x_max":853,"o":"m 853 110 l 853 0 l 690 0 q 606 14 639 0 q 521 0 564 0 l 381 0 l 285 0 q 313 -203 285 -117 q 400 -337 342 -290 q 366 -359 390 -349 q 315 -369 342 -369 q 219 -320 256 -369 q 167 -205 182 -271 q 153 -82 153 -139 q 196 60 153 11 q 324 110 239 110 l 393 110 l 97 511 q 148 583 110 547 q 252 643 186 619 q 406 667 318 667 q 603 630 517 667 q 738 522 689 593 q 786 351 786 451 q 772 230 786 296 q 722 110 757 164 l 853 110 m 408 556 q 250 501 304 556 l 529 122 q 621 215 594 149 q 647 344 647 281 q 583 501 647 446 q 408 556 518 556 z "},"ﻌ":{"ha":792,"x_min":0,"x_max":792,"o":"m 792 110 l 792 0 l 631 0 q 544 14 578 0 q 460 0 503 0 l 0 0 l 0 110 l 332 110 l 38 511 q 87 583 49 547 q 191 643 125 619 q 346 667 257 667 q 542 630 457 667 q 676 522 628 593 q 725 351 725 451 q 710 231 725 299 q 660 110 694 164 l 792 110 m 347 556 q 189 501 243 556 l 468 124 q 560 218 533 150 q 588 349 588 286 q 522 501 588 447 q 347 556 456 556 z "},"ﻋ":{"ha":708,"x_min":0,"x_max":618,"o":"m 575 110 q 608 92 599 110 q 618 56 618 75 q 608 17 618 35 q 575 0 599 0 l 375 0 q 243 38 292 0 q 121 0 190 4 l 0 0 l 0 111 l 171 111 q 85 347 85 217 q 122 509 85 436 q 227 624 158 582 q 389 667 296 667 q 539 631 475 667 q 603 518 603 596 q 580 451 603 472 q 524 429 557 429 q 472 439 499 429 q 447 524 472 499 q 372 561 421 550 q 266 498 310 554 q 222 354 222 442 q 287 177 222 244 q 488 110 351 110 l 575 110 m 410 560 q 393 561 404 561 l 410 560 z "},"غ":{"ha":768,"x_min":90,"x_max":678,"o":"m 635 110 q 668 92 658 110 q 678 56 678 75 q 668 17 678 35 q 635 0 658 0 l 222 0 q 338 -337 222 -246 q 303 -359 328 -349 q 253 -369 279 -369 q 157 -320 193 -369 q 106 -206 121 -271 q 90 -86 90 -140 q 130 52 90 7 q 228 106 169 97 q 144 350 144 215 q 181 508 144 436 q 287 624 218 581 q 449 667 356 667 q 599 631 535 667 q 663 519 663 596 q 644 456 663 479 q 596 429 625 432 q 532 439 565 426 q 508 521 532 494 q 439 560 485 547 q 328 501 374 557 q 282 354 282 444 q 347 178 282 246 q 547 110 411 110 l 635 110 m 415 757 q 353 782 379 757 q 328 842 328 807 q 353 903 328 878 q 415 928 379 928 q 475 902 450 928 q 500 842 500 876 q 475 782 500 807 q 415 757 450 757 z "},"ﻎ":{"ha":853,"x_min":97,"x_max":853,"o":"m 853 110 l 853 0 l 690 0 q 606 14 639 0 q 521 0 564 0 l 381 0 l 285 0 q 313 -203 285 -117 q 400 -337 342 -290 q 366 -359 390 -349 q 315 -369 342 -369 q 219 -320 256 -369 q 167 -205 182 -271 q 153 -82 153 -139 q 196 60 153 11 q 324 110 239 110 l 393 110 l 97 511 q 148 583 110 547 q 252 643 186 619 q 406 667 318 667 q 603 630 517 667 q 738 522 689 593 q 786 351 786 451 q 772 230 786 296 q 722 110 757 164 l 853 110 m 408 556 q 250 501 304 556 l 529 122 q 621 215 594 149 q 647 344 647 281 q 583 501 647 446 q 408 556 518 556 m 454 757 q 392 782 418 757 q 367 842 367 807 q 392 903 367 878 q 454 928 418 928 q 514 902 489 928 q 539 842 539 876 q 514 782 539 807 q 454 757 489 757 z "},"ﻐ":{"ha":792,"x_min":0,"x_max":792,"o":"m 792 110 l 792 0 l 631 0 q 544 14 578 0 q 460 0 503 0 l 0 0 l 0 110 l 332 110 l 38 511 q 87 583 49 547 q 191 643 125 619 q 346 667 257 667 q 542 630 457 667 q 676 522 628 593 q 725 351 725 451 q 710 231 725 299 q 660 110 694 164 l 792 110 m 347 556 q 189 501 243 556 l 468 124 q 560 218 533 150 q 588 349 588 286 q 522 501 588 447 q 347 556 456 556 m 397 757 q 335 782 361 757 q 310 842 310 807 q 335 903 310 878 q 397 928 361 928 q 457 902 432 928 q 482 842 482 876 q 457 782 482 807 q 397 757 432 757 z "},"ﻏ":{"ha":708,"x_min":0,"x_max":618,"o":"m 575 110 q 608 92 599 110 q 618 56 618 75 q 608 17 618 35 q 575 0 599 0 l 375 0 q 243 38 292 0 q 121 0 190 4 l 0 0 l 0 111 l 171 111 q 85 347 85 217 q 122 509 85 436 q 227 624 158 582 q 389 667 296 667 q 539 631 475 667 q 603 518 603 596 q 580 451 603 472 q 524 429 557 429 q 472 439 499 429 q 447 524 472 499 q 372 561 421 550 q 266 498 310 554 q 222 354 222 442 q 287 177 222 244 q 488 110 351 110 l 575 110 m 410 560 q 393 561 404 561 l 410 560 m 356 757 q 294 782 319 757 q 268 842 268 807 q 294 903 268 878 q 356 928 319 928 q 415 902 390 928 q 440 842 440 876 q 415 782 440 807 q 356 757 390 757 z "},"ف":{"ha":1340,"x_min":90,"x_max":1250,"o":"m 982 667 q 1133 644 1076 667 q 1220 558 1190 622 q 1250 375 1250 494 l 1250 194 q 1206 53 1250 107 q 1069 0 1163 0 l 363 0 q 161 81 232 0 q 90 292 90 161 q 133 463 90 396 q 240 529 175 529 q 318 489 288 529 q 256 409 282 465 q 229 272 229 353 q 274 141 229 172 q 383 110 318 110 l 767 110 q 708 347 708 203 q 744 553 708 483 q 838 644 779 622 q 982 667 896 667 m 1110 422 q 996 558 1110 558 q 885 505 924 558 q 847 347 847 451 q 876 190 847 271 q 982 110 904 110 l 1010 110 q 1088 138 1067 110 q 1110 236 1110 167 l 1110 422 m 1006 757 q 944 782 969 757 q 918 842 918 807 q 944 903 918 878 q 1006 928 969 928 q 1065 902 1040 928 q 1090 842 1090 876 q 1065 782 1090 807 q 1006 757 1040 757 z "},"ﻒ":{"ha":1374,"x_min":90,"x_max":1374,"o":"m 1374 110 l 1374 0 l 1236 0 q 1147 14 1181 0 q 1069 0 1115 0 l 363 0 q 161 81 232 0 q 90 292 90 161 q 133 463 90 396 q 240 529 175 529 q 318 489 288 529 q 256 409 282 465 q 229 272 229 353 q 274 141 229 172 q 383 110 318 110 l 767 110 q 708 347 708 203 q 744 553 708 483 q 838 644 779 622 q 982 667 896 667 q 1133 644 1076 667 q 1220 558 1190 622 q 1250 375 1250 494 l 1250 194 q 1238 110 1250 150 l 1374 110 m 1010 110 q 1088 138 1067 110 q 1110 236 1110 167 l 1110 422 q 996 558 1110 558 q 885 505 924 558 q 847 347 847 451 q 876 190 847 271 q 982 110 904 110 l 1010 110 m 1006 757 q 944 782 969 757 q 918 842 918 807 q 944 903 918 878 q 1006 928 969 928 q 1065 902 1040 928 q 1090 842 1090 876 q 1065 782 1090 807 q 1006 757 1040 757 z "},"ﻔ":{"ha":778,"x_min":0,"x_max":778,"o":"m 778 110 l 778 0 l 639 0 q 551 13 588 0 q 472 0 518 0 l 0 0 l 0 110 l 171 110 q 113 347 113 203 q 148 553 113 483 q 241 644 183 622 q 385 667 299 667 q 536 644 479 667 q 623 558 593 622 q 653 375 653 494 l 653 194 q 640 110 653 143 l 778 110 m 413 110 q 492 138 469 110 q 514 236 514 167 l 514 422 q 399 558 514 558 q 290 505 328 558 q 251 347 251 451 q 279 188 251 265 q 386 110 307 110 l 413 110 m 410 757 q 348 782 374 757 q 322 842 322 807 q 348 903 322 878 q 410 928 374 928 q 469 902 444 928 q 494 842 494 876 q 469 782 494 807 q 410 757 444 757 z "},"ﻓ":{"ha":743,"x_min":0,"x_max":653,"o":"m 385 667 q 536 644 479 667 q 623 558 593 622 q 653 375 653 494 l 653 194 q 609 53 653 107 q 472 0 565 0 l 0 0 l 0 110 l 171 110 q 113 347 113 203 q 148 553 113 483 q 241 644 183 622 q 385 667 299 667 m 514 422 q 399 558 514 558 q 290 505 328 558 q 251 347 251 451 q 279 188 251 265 q 386 110 307 110 l 413 110 q 492 138 469 110 q 514 236 514 167 l 514 422 m 408 757 q 347 782 372 757 q 321 842 321 807 q 347 903 321 878 q 408 928 372 928 q 468 902 443 928 q 493 842 493 876 q 468 782 493 807 q 408 757 443 757 z "},"ڤ":{"ha":1340,"x_min":90,"x_max":1250,"o":"m 982 667 q 1133 644 1076 667 q 1220 558 1190 622 q 1250 375 1250 494 l 1250 194 q 1206 53 1250 107 q 1069 0 1163 0 l 363 0 q 161 81 232 0 q 90 292 90 161 q 133 463 90 396 q 240 529 175 529 q 318 489 288 529 q 256 409 282 465 q 229 272 229 353 q 274 141 229 172 q 383 110 318 110 l 767 110 q 708 347 708 203 q 744 553 708 483 q 838 644 779 622 q 982 667 896 667 m 1110 422 q 996 558 1110 558 q 885 505 924 558 q 847 347 847 451 q 876 190 847 271 q 982 110 904 110 l 1010 110 q 1088 138 1067 110 q 1110 236 1110 167 l 1110 422 m 1004 1094 q 1058 1072 1036 1094 q 1081 1018 1081 1050 q 1058 965 1081 988 q 1004 942 1036 942 q 950 964 972 942 q 928 1018 928 986 q 950 1072 928 1050 q 1004 1094 972 1094 m 900 922 q 958 898 935 922 q 982 840 982 874 q 958 781 982 806 q 900 757 935 757 q 842 781 867 757 q 818 840 818 806 q 842 898 818 874 q 900 922 867 922 m 1108 922 q 1167 898 1143 922 q 1190 840 1190 874 q 1167 781 1190 806 q 1108 757 1143 757 q 1051 781 1075 757 q 1026 840 1026 806 q 1051 898 1026 874 q 1108 922 1075 922 z "},"ﭫ":{"ha":1374,"x_min":90,"x_max":1374,"o":"m 1374 110 l 1374 0 l 1236 0 q 1147 14 1181 0 q 1069 0 1115 0 l 363 0 q 161 81 232 0 q 90 292 90 161 q 133 463 90 396 q 240 529 175 529 q 318 489 288 529 q 256 409 282 465 q 229 272 229 353 q 274 141 229 172 q 383 110 318 110 l 767 110 q 708 347 708 203 q 744 553 708 483 q 838 644 779 622 q 982 667 896 667 q 1133 644 1076 667 q 1220 558 1190 622 q 1250 375 1250 494 l 1250 194 q 1238 110 1250 150 l 1374 110 m 1010 110 q 1088 138 1067 110 q 1110 236 1110 167 l 1110 422 q 996 558 1110 558 q 885 505 924 558 q 847 347 847 451 q 876 190 847 271 q 982 110 904 110 l 1010 110 m 1003 1094 q 1057 1072 1035 1094 q 1079 1018 1079 1050 q 1057 965 1079 988 q 1003 942 1035 942 q 949 964 971 942 q 926 1018 926 986 q 949 1072 926 1050 q 1003 1094 971 1094 m 899 922 q 957 898 933 922 q 981 840 981 874 q 957 781 981 806 q 899 757 933 757 q 841 781 865 757 q 817 840 817 806 q 841 898 817 874 q 899 922 865 922 m 1107 922 q 1165 898 1142 922 q 1189 840 1189 874 q 1165 781 1189 806 q 1107 757 1142 757 q 1049 781 1074 757 q 1025 840 1025 806 q 1049 898 1025 874 q 1107 922 1074 922 z "},"ﭭ":{"ha":778,"x_min":0,"x_max":778,"o":"m 778 110 l 778 0 l 639 0 q 551 13 588 0 q 472 0 518 0 l 0 0 l 0 110 l 171 110 q 113 347 113 203 q 148 553 113 483 q 241 644 183 622 q 385 667 299 667 q 536 644 479 667 q 623 558 593 622 q 653 375 653 494 l 653 194 q 640 110 653 143 l 778 110 m 413 110 q 492 138 469 110 q 514 236 514 167 l 514 422 q 399 558 514 558 q 290 505 328 558 q 251 347 251 451 q 279 188 251 265 q 386 110 307 110 l 413 110 m 408 1094 q 463 1072 440 1094 q 485 1018 485 1050 q 463 965 485 988 q 408 942 440 942 q 354 964 376 942 q 332 1018 332 986 q 354 1072 332 1050 q 408 1094 376 1094 m 304 922 q 363 898 339 922 q 386 840 386 874 q 363 781 386 806 q 304 757 339 757 q 247 781 271 757 q 222 840 222 806 q 247 898 222 874 q 304 922 271 922 m 513 922 q 571 898 547 922 q 594 840 594 874 q 571 781 594 806 q 513 757 547 757 q 455 781 479 757 q 431 840 431 806 q 455 898 431 874 q 513 922 479 922 z "},"ﭬ":{"ha":743,"x_min":0,"x_max":653,"o":"m 385 667 q 536 644 479 667 q 623 558 593 622 q 653 375 653 494 l 653 194 q 609 53 653 107 q 472 0 565 0 l 0 0 l 0 110 l 171 110 q 113 347 113 203 q 148 553 113 483 q 241 644 183 622 q 385 667 299 667 m 514 422 q 399 558 514 558 q 290 505 328 558 q 251 347 251 451 q 279 188 251 265 q 386 110 307 110 l 413 110 q 492 138 469 110 q 514 236 514 167 l 514 422 m 407 1094 q 461 1072 439 1094 q 483 1018 483 1050 q 461 965 483 988 q 407 942 439 942 q 353 964 375 942 q 331 1018 331 986 q 353 1072 331 1050 q 407 1094 375 1094 m 303 922 q 361 898 338 922 q 385 840 385 874 q 361 781 385 806 q 303 757 338 757 q 245 781 269 757 q 221 840 221 806 q 245 898 221 874 q 303 922 269 922 m 511 922 q 569 898 546 922 q 593 840 593 874 q 569 781 593 806 q 511 757 546 757 q 453 781 478 757 q 429 840 429 806 q 453 898 429 874 q 511 922 478 922 z "},"ڡ":{"ha":1340,"x_min":90,"x_max":1250,"o":"m 982 667 q 1133 644 1076 667 q 1220 558 1190 622 q 1250 375 1250 494 l 1250 194 q 1206 53 1250 107 q 1069 0 1163 0 l 363 0 q 161 81 232 0 q 90 292 90 161 q 133 463 90 396 q 240 529 175 529 q 318 489 288 529 q 256 409 282 465 q 229 272 229 353 q 274 141 229 172 q 383 110 318 110 l 767 110 q 708 347 708 203 q 744 553 708 483 q 838 644 779 622 q 982 667 896 667 m 1110 422 q 996 558 1110 558 q 885 505 924 558 q 847 347 847 451 q 876 190 847 271 q 982 110 904 110 l 1010 110 q 1088 138 1067 110 q 1110 236 1110 167 l 1110 422 z "},"ٯ":{"ha":1222,"x_min":90,"x_max":1132,"o":"m 872 667 q 1017 644 963 667 q 1102 557 1072 622 q 1132 367 1132 492 l 1132 72 q 624 -328 1132 -328 q 201 -203 311 -328 q 90 88 90 -79 q 128 282 90 206 q 242 358 167 358 q 290 348 271 358 q 317 324 310 338 q 255 221 279 293 q 231 64 231 149 q 319 -142 231 -65 q 624 -218 407 -218 q 892 -160 813 -218 q 983 0 971 -101 l 829 0 q 647 97 703 0 q 590 354 590 194 q 624 551 590 483 q 719 643 658 619 q 872 667 779 667 m 731 340 q 763 185 731 260 q 894 110 796 110 l 992 110 l 992 422 q 876 557 992 557 q 768 502 806 557 q 731 340 731 447 z "},"ق":{"ha":1222,"x_min":90,"x_max":1132,"o":"m 872 667 q 1017 644 963 667 q 1102 557 1072 622 q 1132 367 1132 492 l 1132 72 q 624 -328 1132 -328 q 201 -203 311 -328 q 90 88 90 -79 q 128 282 90 206 q 242 358 167 358 q 290 348 271 358 q 317 324 310 338 q 255 221 279 293 q 231 64 231 149 q 319 -142 231 -65 q 624 -218 407 -218 q 892 -160 813 -218 q 983 0 971 -101 l 829 0 q 647 97 703 0 q 590 354 590 194 q 624 551 590 483 q 719 643 658 619 q 872 667 779 667 m 731 340 q 763 185 731 260 q 894 110 796 110 l 992 110 l 992 422 q 876 557 992 557 q 768 502 806 557 q 731 340 731 447 m 779 758 q 722 783 746 758 q 697 840 697 807 q 722 899 697 875 q 779 924 746 924 q 838 899 814 924 q 861 840 861 875 q 838 783 861 807 q 779 758 814 758 m 988 758 q 930 783 954 758 q 906 840 906 807 q 930 899 906 875 q 988 924 954 924 q 1046 899 1022 924 q 1069 840 1069 875 q 1046 783 1069 807 q 988 758 1022 758 z "}}}
